<?xml version="1.0" encoding="utf-8"?>
<!DOCTYPE svg PUBLIC "-//W3C//DTD SVG 1.1//EN" "http://www.w3.org/Graphics/SVG/1.1/DTD/svg11.dtd">
<svg version="1.1" id="Layer_1" xmlns="http://www.w3.org/2000/svg" xmlns:xlink="http://www.w3.org/1999/xlink" x="0px" y="0px"
	 viewBox="-50 7 250 250" xml:space="preserve">
    <defs id="SvgjsDefs1181"></defs>
    <g id="SvgjsG1182" featurekey="root" fill="#fcfffe"></g>
    <g id="SvgjsG1183" featurekey="symbol1" fill="#0a1920"
       transform="matrix(1.6230095223808942,0,0,1.6230095223808942,-7.150457545174753,1.8853811349271368)">
        <g transform="translate(0,-952.36216)">
            <path style="color:;font-style:normal;font-variant:normal;font-weight:normal;font-stretch:normal;font-size:medium;line-height:normal;font-family:sans-serif;text-indent:0;text-align:start;text-decoration:none;text-decoration-line:none;text-decoration-style:solid;text-decoration-color:;letter-spacing:normal;word-spacing:normal;text-transform:none;direction:ltr;block-progression:tb;writing-mode:lr-tb;baseline-shift:baseline;text-anchor:start;white-space:normal;clip-rule:nonzero;display:inline;overflow:visible;visibility:visible;opacity:1;isolation:auto;mix-blend-mode:normal;color-interpolation:sRGB;color-interpolation-filters:linearRGB;solid-color:;solid-opacity:1;fill:#0a1920;fill-opacity:1;fill-rule:evenodd;stroke:none;stroke-width:8;stroke-linecap:square;stroke-linejoin:miter;stroke-miterlimit:4;stroke-dasharray:none;stroke-dashoffset:0;stroke-opacity:1;color-rendering:auto;image-rendering:auto;shape-rendering:auto;text-rendering:auto;enable-background:accumulate"
                  d="m 28.435122,957.36216 0,3.33742 c 0,6.36028 2.874095,11.521 6.66481,15.29518 3.790726,3.7741 8.429803,6.4805 12.794124,9.0876 4.36432,2.6072 8.453904,5.1145 11.209639,7.8583 0.877136,0.8732 1.610814,1.7428 2.224283,2.6474 l -22.655957,0 c 0.613418,-0.9044 1.347281,-1.7743 2.224283,-2.6474 1.429906,-1.4237 3.228571,-2.7844 5.228754,-4.1278 -0.11529,-0.069 -0.220968,-0.1352 -0.336946,-0.2045 -2.294801,-1.3708 -4.764667,-2.8209 -7.216378,-4.5068 -1.208321,0.9347 -2.377795,1.9274 -3.471802,3.0165 -3.790715,3.7743 -6.66481,8.935 -6.66481,15.29534 0,6.3603 2.874095,11.521 6.66481,15.2951 3.790726,3.7742 8.429803,6.4825 12.794124,9.0897 4.36432,2.6071 8.453904,5.1125 11.209639,7.8561 0.777845,0.7745 1.442546,1.5459 2.013687,2.3406 l -22.236778,0 c 0.571182,-0.7948 1.237773,-1.566 2.0157,-2.3406 1.539876,-1.5331 3.520046,-2.9908 5.708111,-4.4344 -0.188642,-0.1133 -0.363132,-0.2233 -0.553561,-0.337 -2.253365,-1.3461 -4.663137,-2.7603 -7.049907,-4.3924 -1.36175,1.0281 -2.678132,2.1259 -3.901015,3.3435 -3.790715,3.7741 -6.66481,8.9329 -6.66481,15.2932 l 0,3.235 8.215191,0 0,-3.235 c 0,-1.3138 0.170127,-2.4697 0.473339,-3.5401 l 25.750692,0 c 0.303204,1.0704 0.475342,2.2263 0.475342,3.5401 l 0,3.235 8.215191,0 0,-3.235 c 0,-6.3603 -2.874104,-11.5191 -6.664809,-15.2932 -3.790727,-3.7742 -8.429804,-6.4825 -12.794124,-9.0897 -4.36432,-2.6071 -8.453894,-5.1145 -11.209639,-7.8582 -0.777177,-0.7737 -1.442865,-1.5446 -2.013687,-2.3386 l 22.232763,0 c -0.570792,0.794 -1.234579,1.5649 -2.011685,2.3386 -1.539866,1.5332 -3.520045,2.9923 -5.70811,4.4365 0.188703,0.1133 0.36307,0.2232 0.55356,0.337 2.253375,1.3461 4.663138,2.7602 7.049907,4.3924 1.361751,-1.0281 2.678122,-2.1259 3.901015,-3.3435 3.790705,-3.7741 6.664809,-8.9348 6.664809,-15.2951 0,-6.36034 -2.874104,-11.52104 -6.664809,-15.29534 -3.790727,-3.7741 -8.429804,-6.4804 -12.794124,-9.0876 -4.36432,-2.6071 -8.453894,-5.1145 -11.209639,-7.85814 -0.811055,-0.80749 -1.499816,-1.61177 -2.085898,-2.4429 l 22.377175,0 c -0.586031,0.83101 -1.272944,1.63551 -2.083886,2.4429 -1.429885,1.4237 -3.22857,2.78434 -5.228754,4.12764 0.11529,0.069 0.220968,0.1353 0.336946,0.2045 2.295119,1.3712 4.764328,2.8207 7.216378,4.5068 1.208322,-0.9346 2.377794,-1.9273 3.471802,-3.0165 3.790705,-3.77418 6.664809,-8.9349 6.664809,-15.29518 l 0,-3.33742 -8.215191,0 0,3.33742 c 0,1.27209 -0.162723,2.39527 -0.447266,3.43771 l -25.806852,0 c -0.284535,-1.04244 -0.445255,-2.16562 -0.445255,-3.43771 l 0,-3.33742 -8.215191,0 z m 8.604294,41.818 25.919165,0 c 0.248941,0.98574 0.391105,2.04434 0.391105,3.23324 0,1.3144 -0.17179,2.4711 -0.475342,3.542 l -25.750692,0 c -0.303551,-1.0709 -0.473339,-2.2276 -0.473339,-3.542 0,-1.1889 0.140162,-2.2475 0.389104,-3.23324 z"></path>
        </g>
    </g>
    <g id="SvgjsG1184" featurekey="text1" fill="#0a1920"
       transform="matrix(3.5143093072861475,0,0,3.5143093072861475,-2.1788711588674703,145.16372290000922)">
        <path d="M3.98 26.720000000000002 q-0.22 0.36 -0.63 0.57 t-0.93 0.21 q-0.96 0 -1.38 -0.52 t-0.42 -1.74 l0 -7.34 q0 -1.2 0.45 -1.76 t1.31 -0.56 q0.64 0 1.05 0.27 t0.67 0.79 q0 -0.24 0.01 -0.48 t0.03 -0.46 l1.16 0 l0 13.02 q0 1.14 -0.55 1.74 t-1.71 0.6 q-0.64 0 -1.08 -0.16 t-0.7 -0.46 t-0.37 -0.73 t-0.11 -0.99 l0 -0.5 l1.24 0 l0 0.56 q0 1.08 1 1.08 q0.96 0 0.96 -1.08 l0 -2.06 z M3.98 17.86 q-0.16 -0.4 -0.46 -0.61 t-0.66 -0.21 q-0.52 0 -0.7 0.25 t-0.18 0.69 l0 7.22 q0 0.52 0.19 0.75 t0.69 0.23 q0.36 0 0.66 -0.2 t0.46 -0.6 l0 -7.52 z M9.74 18.040000000000003 q0 -1.1 -0.92 -1.1 q-0.86 0 -0.86 1.1 l0 2.98 l1.78 0 l0 -2.98 z M9.74 23.040000000000003 l1.3 0 l0 2.72 q0 2.5 -2.22 2.5 q-2.14 0 -2.14 -2.5 l0 -7.72 q0 -1.26 0.55 -1.9 t1.59 -0.64 q2.22 0 2.22 2.54 l0 3.98 l-3.08 0 l0 3.74 q0 1.1 0.86 1.1 q0.92 0 0.92 -1.1 l0 -2.72 z M15.64 28.080000000000002 l0 -10.22 q0 -0.54 -0.18 -0.77 t-0.62 -0.23 q-0.3 0 -0.6 0.18 t-0.46 0.58 l0 10.46 l-1.38 0 l0 -12.38 l1.16 0 q0.06 0.46 0.06 0.94 q0.28 -0.52 0.74 -0.83 t1.04 -0.31 q0.84 0 1.23 0.54 t0.39 1.74 l0 10.3 l-1.38 0 z M18.439999999999998 28.080000000000002 l0 -16.46 l1.38 0 l0 16.46 l-1.38 0 z M24.36 28.080000000000002 q-0.08 -0.26 -0.08 -0.74 q-0.5 0.92 -1.48 0.92 q-0.84 0 -1.31 -0.46 t-0.47 -1.5 l0 -1.82 q0 -0.9 0.25 -1.51 t0.68 -1.03 t1.01 -0.71 t1.24 -0.57 l0 -2.7 q0 -0.52 -0.19 -0.8 t-0.71 -0.28 q-0.54 0 -0.72 0.28 t-0.18 0.8 l0 2.6 l-1.22 0 l0 -2.62 q0 -1.22 0.51 -1.83 t1.65 -0.61 q2.18 0 2.18 2.44 l0 8.72 q0 0.44 0.02 0.82 t0.08 0.6 l-1.26 0 z M24.2 21.76 q-0.6 0.22 -0.97 0.48 t-0.56 0.59 t-0.25 0.76 t-0.06 0.99 l0 1.32 q0 1.02 0.94 1.02 q0.3 0 0.55 -0.18 t0.35 -0.6 l0 -4.38 z M30.299999999999997 17.880000000000003 q0 -0.94 -0.88 -0.94 q-0.34 0 -0.63 0.2 t-0.43 0.6 l0 8.2 q0.14 0.4 0.43 0.61 t0.63 0.21 q0.46 0 0.67 -0.23 t0.21 -0.81 l0 -7.84 z M26.979999999999997 28.080000000000002 l0 -16.46 l1.38 0 l0 4.68 q0.22 -0.36 0.61 -0.58 t0.89 -0.22 q0.96 0 1.38 0.53 t0.42 1.75 l0 7.92 q0 1.32 -0.48 1.92 t-1.56 0.6 q-0.62 0 -1.03 -0.3 t-0.65 -0.76 q-0.04 0.24 -0.09 0.47 t-0.13 0.45 l-0.74 0 z M35.919999999999995 24.5 q0 -0.4 -0.11 -0.69 t-0.49 -0.75 q-0.42 -0.5 -0.94 -0.95 t-0.9 -0.91 q-0.4 -0.44 -0.52 -0.88 t-0.12 -1.16 l0 -1.28 q0 -1.28 0.56 -1.83 t1.64 -0.55 q1.26 0 1.73 0.56 t0.47 1.82 l0 2.02 l-1.26 0 l0 -2.02 q0 -0.46 -0.26 -0.73 t-0.64 -0.27 q-0.9 0 -0.9 1 l0 1.46 q0 0.44 0.11 0.69 t0.45 0.61 q0.4 0.44 0.9 0.84 t0.88 0.84 q0.46 0.54 0.62 1.05 t0.16 1.31 l0 1.34 q0 1.2 -0.57 1.72 t-1.73 0.52 q-2.16 0 -2.16 -2.3 l0 -2.02 l1.24 0 l0 1.98 q0 0.46 0.27 0.73 t0.67 0.27 q0.9 0 0.9 -1 l0 -1.42 z M41.48 24.5 q0 -0.4 -0.11 -0.69 t-0.49 -0.75 q-0.42 -0.5 -0.94 -0.95 t-0.9 -0.91 q-0.4 -0.44 -0.52 -0.88 t-0.12 -1.16 l0 -1.28 q0 -1.28 0.56 -1.83 t1.64 -0.55 q1.26 0 1.73 0.56 t0.47 1.82 l0 2.02 l-1.26 0 l0 -2.02 q0 -0.46 -0.26 -0.73 t-0.64 -0.27 q-0.9 0 -0.9 1 l0 1.46 q0 0.44 0.11 0.69 t0.45 0.61 q0.4 0.44 0.9 0.84 t0.88 0.84 q0.46 0.54 0.62 1.05 t0.16 1.31 l0 1.34 q0 1.2 -0.57 1.72 t-1.73 0.52 q-2.16 0 -2.16 -2.3 l0 -2.02 l1.24 0 l0 1.98 q0 0.46 0.27 0.73 t0.67 0.27 q0.9 0 0.9 -1 l0 -1.42 z"></path>
    </g>
    <g id="SvgjsG1185" featurekey="text3" fill="#f9fcfb"
       transform="matrix(0.046167669247367794,0,0,0.046167669247367794,64.92151497108526,268.7257641521012)">
        <path d="M1.7 6.16 l5.02 0 c2.7 0 4.12 1.06 4.12 3.52 c0 1.8 -0.66 2.66 -1.78 3.18 c1.22 0.42 2.2 1.26 2.2 3.26 c0 2.92 -1.68 3.88 -4.28 3.88 l-5.28 0 l0 -13.84 z M6.82 13.64 l-3.58 0 l0 5 l3.68 0 c1.68 0 2.78 -0.54 2.78 -2.58 c0 -2.14 -1.82 -2.42 -2.88 -2.42 z M6.66 7.52 l-3.42 0 l0 4.78 l3.56 0 c1.74 0 2.46 -0.82 2.46 -2.48 c0 -1.62 -0.84 -2.3 -2.6 -2.3 z M14.02 20 l0 -13.84 l1.54 0 l0 13.84 l-1.54 0 z M23.840000000000003 18.84 c3.22 0 3.88 -1.8 3.88 -5.7 c0 -3.74 -0.72 -5.82 -3.88 -5.82 c-3.18 0 -3.88 2.06 -3.88 5.82 c0 3.78 0.68 5.7 3.88 5.7 z M23.840000000000003 20.2 c-4.3 0 -5.46 -2.42 -5.46 -7.06 c0 -4.56 1.18 -7.18 5.46 -7.18 s5.48 2.58 5.48 7.18 c0 4.76 -1.18 7.06 -5.48 7.06 z M39.760000000000005 20 l-7.62 0 l0 -13.84 l1.54 0 l0 12.46 l6.08 0 l0 1.38 z M46.620000000000005 18.84 c3.22 0 3.88 -1.8 3.88 -5.7 c0 -3.74 -0.72 -5.82 -3.88 -5.82 c-3.18 0 -3.88 2.06 -3.88 5.82 c0 3.78 0.68 5.7 3.88 5.7 z M46.620000000000005 20.2 c-4.3 0 -5.46 -2.42 -5.46 -7.06 c0 -4.56 1.18 -7.18 5.46 -7.18 s5.48 2.58 5.48 7.18 c0 4.76 -1.18 7.06 -5.48 7.06 z M60.400000000000006 14.3 l0 -1.38 l3.82 0 l0 6.8 c-0.42 0.08 -2.98 0.48 -4.5 0.48 c-4.24 0 -5.36 -2.6 -5.36 -7.08 c0 -4.6 1.16 -7.16 5.32 -7.16 c2.1 0 4.54 0.52 4.54 0.52 l-0.06 1.28 s-2.48 -0.42 -4.3 -0.42 c-3.2 0 -3.9 1.86 -3.9 5.78 c0 3.84 0.68 5.72 3.88 5.72 c1 0 2.34 -0.18 2.86 -0.28 l0 -4.26 l-2.3 0 z M67.24000000000001 20 l0 -13.84 l1.54 0 l0 13.84 l-1.54 0 z M80.46000000000001 18.46 l0.06 1.32 c-0.98 0.2 -2.5 0.42 -3.82 0.42 c-4.14 0 -5.06 -2.52 -5.06 -7.08 c0 -4.68 0.9 -7.16 5.06 -7.16 c1.42 0 2.94 0.26 3.82 0.44 l-0.06 1.3 c-0.9 -0.16 -2.52 -0.36 -3.6 -0.36 c-3.08 0 -3.62 1.84 -3.62 5.78 c0 3.86 0.5 5.7 3.66 5.7 c1.12 0 2.6 -0.18 3.56 -0.36 z M81.82000000000001 20 l3.8 -13.84 l3.36 0 l3.8 13.84 l-1.52 0 l-1 -3.56 l-5.92 0 l-1 3.56 l-1.52 0 z M86.78 7.48 l-2.1 7.58 l5.24 0 l-2.1 -7.58 l-1.04 0 z M102.58000000000001 20 l-7.62 0 l0 -13.84 l1.54 0 l0 12.46 l6.08 0 l0 1.38 z  M113.84 18.84 c3.22 0 3.88 -1.8 3.88 -5.7 c0 -3.74 -0.72 -5.82 -3.88 -5.82 c-3.18 0 -3.88 2.06 -3.88 5.82 c0 3.78 0.68 5.7 3.88 5.7 z M113.84 20.2 c-4.3 0 -5.46 -2.42 -5.46 -7.06 c0 -4.56 1.18 -7.18 5.46 -7.18 s5.48 2.58 5.48 7.18 c0 4.76 -1.18 7.06 -5.48 7.06 z M127.60000000000001 14.7 l-3.92 0 l0 5.3 l-1.54 0 l0 -13.84 l5.12 0 c2.9 0 4.42 1.28 4.42 4.2 c0 2.04 -0.8 3.46 -2.54 4.02 l2.66 5.62 l-1.7 0 z M130.10000000000002 10.36 c0 -1.9 -0.9 -2.84 -2.84 -2.84 l-3.58 0 l0 5.82 l3.6 0 c2.08 0 2.82 -1.24 2.82 -2.98 z M134.46 20 l0 -13.84 l1.54 0 l0 13.84 l-1.54 0 z M139.38 20 l0 -13.84 l8.42 0 l0 1.36 l-6.88 0 l0 4.78 l5.68 0 l0 1.34 l-5.68 0 l0 5 l6.88 0 l0 1.36 l-8.42 0 z M150.44 20 l0 -13.84 l2.88 0 l5.3 12.48 l0.42 0 l0 -12.48 l1.52 0 l0 13.84 l-2.82 0 l-5.38 -12.48 l-0.38 0 l0 12.48 l-1.54 0 z M162.52 7.539999999999999 l0 -1.38 l10 0 l0 1.38 l-4.22 0 l0 12.46 l-1.52 0 l0 -12.46 l-4.26 0 z M174.48000000000002 20 l0 -13.84 l8.42 0 l0 1.36 l-6.88 0 l0 4.78 l5.68 0 l0 1.34 l-5.68 0 l0 5 l6.88 0 l0 1.36 l-8.42 0 z M190.48000000000002 20 l-4.94 0 l0 -13.84 l4.94 0 c4.02 0 5.12 2.8 5.12 6.72 c0 3.96 -1.04 7.12 -5.12 7.12 z M194.02000000000004 12.879999999999999 c0 -3 -0.66 -5.36 -3.54 -5.36 l-3.4 0 l0 11.12 l3.4 0 c2.88 0 3.54 -2.76 3.54 -5.76 z  M207.90000000000003 15.34 l-3.52 0 l0 4.66 l-1.54 0 l0 -13.84 l5.06 0 c3.02 0 4.42 1.46 4.42 4.46 c0 3.02 -1.4 4.72 -4.42 4.72 z M204.38000000000005 13.98 l3.5 0 c2.02 0 2.86 -1.22 2.86 -3.36 c0 -2.12 -0.84 -3.1 -2.86 -3.1 l-3.5 0 l0 6.46 z M220.16000000000005 14.7 l-3.92 0 l0 5.3 l-1.54 0 l0 -13.84 l5.12 0 c2.9 0 4.42 1.28 4.42 4.2 c0 2.04 -0.8 3.46 -2.54 4.02 l2.66 5.62 l-1.7 0 z M222.66000000000005 10.36 c0 -1.9 -0.9 -2.84 -2.84 -2.84 l-3.58 0 l0 5.82 l3.6 0 c2.08 0 2.82 -1.24 2.82 -2.98 z M231.92000000000004 18.84 c3.22 0 3.88 -1.8 3.88 -5.7 c0 -3.74 -0.72 -5.82 -3.88 -5.82 c-3.18 0 -3.88 2.06 -3.88 5.82 c0 3.78 0.68 5.7 3.88 5.7 z M231.92000000000004 20.2 c-4.3 0 -5.46 -2.42 -5.46 -7.06 c0 -4.56 1.18 -7.18 5.46 -7.18 s5.48 2.58 5.48 7.18 c0 4.76 -1.18 7.06 -5.48 7.06 z M245.70000000000005 14.3 l0 -1.38 l3.82 0 l0 6.8 c-0.42 0.08 -2.98 0.48 -4.5 0.48 c-4.24 0 -5.36 -2.6 -5.36 -7.08 c0 -4.6 1.16 -7.16 5.32 -7.16 c2.1 0 4.54 0.52 4.54 0.52 l-0.06 1.28 s-2.48 -0.42 -4.3 -0.42 c-3.2 0 -3.9 1.86 -3.9 5.78 c0 3.84 0.68 5.72 3.88 5.72 c1 0 2.34 -0.18 2.86 -0.28 l0 -4.26 l-2.3 0 z M258.00000000000006 14.7 l-3.92 0 l0 5.3 l-1.54 0 l0 -13.84 l5.12 0 c2.9 0 4.42 1.28 4.42 4.2 c0 2.04 -0.8 3.46 -2.54 4.02 l2.66 5.62 l-1.7 0 z M260.50000000000006 10.36 c0 -1.9 -0.9 -2.84 -2.84 -2.84 l-3.58 0 l0 5.82 l3.6 0 c2.08 0 2.82 -1.24 2.82 -2.98 z M263.64000000000004 20 l3.8 -13.84 l3.36 0 l3.8 13.84 l-1.52 0 l-1 -3.56 l-5.92 0 l-1 3.56 l-1.52 0 z M268.6 7.48 l-2.1 7.58 l5.24 0 l-2.1 -7.58 l-1.04 0 z M276.78000000000003 20 l0 -13.84 l2.78 0 l3.92 11.7 l3.92 -11.7 l2.78 0 l0 13.84 l-1.54 0 l0 -12.2 l-0.28 0 l-4.02 11.7 l-1.72 0 l-4.02 -11.7 l-0.28 0 l0 12.2 l-1.54 0 z M293.58000000000004 20 l0 -13.84 l2.78 0 l3.92 11.7 l3.92 -11.7 l2.78 0 l0 13.84 l-1.54 0 l0 -12.2 l-0.28 0 l-4.02 11.7 l-1.72 0 l-4.02 -11.7 l-0.28 0 l0 12.2 l-1.54 0 z M310.38000000000005 20 l0 -13.84 l1.54 0 l0 13.84 l-1.54 0 z M315.30000000000007 20 l0 -13.84 l2.88 0 l5.3 12.48 l0.42 0 l0 -12.48 l1.52 0 l0 13.84 l-2.82 0 l-5.38 -12.48 l-0.38 0 l0 12.48 l-1.54 0 z M334.30000000000007 14.3 l0 -1.38 l3.82 0 l0 6.8 c-0.42 0.08 -2.98 0.48 -4.5 0.48 c-4.24 0 -5.36 -2.6 -5.36 -7.08 c0 -4.6 1.16 -7.16 5.32 -7.16 c2.1 0 4.54 0.52 4.54 0.52 l-0.06 1.28 s-2.48 -0.42 -4.3 -0.42 c-3.2 0 -3.9 1.86 -3.9 5.78 c0 3.84 0.68 5.72 3.88 5.72 c1 0 2.34 -0.18 2.86 -0.28 l0 -4.26 l-2.3 0 z  M353.16 20 l-7.62 0 l0 -13.84 l1.54 0 l0 12.46 l6.08 0 l0 1.38 z M353.90000000000003 20 l3.8 -13.84 l3.36 0 l3.8 13.84 l-1.52 0 l-1 -3.56 l-5.92 0 l-1 3.56 l-1.52 0 z M358.86 7.48 l-2.1 7.58 l5.24 0 l-2.1 -7.58 l-1.04 0 z M367.04 6.16 l5.02 0 c2.7 0 4.12 1.06 4.12 3.52 c0 1.8 -0.66 2.66 -1.78 3.18 c1.22 0.42 2.2 1.26 2.2 3.26 c0 2.92 -1.68 3.88 -4.28 3.88 l-5.28 0 l0 -13.84 z M372.16 13.64 l-3.58 0 l0 5 l3.68 0 c1.68 0 2.78 -0.54 2.78 -2.58 c0 -2.14 -1.82 -2.42 -2.88 -2.42 z M372.00000000000006 7.52 l-3.42 0 l0 4.78 l3.56 0 c1.74 0 2.46 -0.82 2.46 -2.48 c0 -1.62 -0.84 -2.3 -2.6 -2.3 z M387.26000000000005 6.34 l-0.14 1.3 s-2.78 -0.34 -3.94 -0.34 c-1.96 0 -3 0.7 -3 2.26 c0 1.8 0.96 2.1 3.38 2.64 c2.76 0.62 3.98 1.3 3.98 3.72 c0 3.06 -1.68 4.26 -4.42 4.26 c-1.64 0 -4.38 -0.44 -4.38 -0.44 l0.16 -1.28 s2.72 0.36 4.14 0.36 c1.96 0 2.96 -0.86 2.96 -2.78 c0 -1.56 -0.82 -2 -3.08 -2.44 c-2.86 -0.62 -4.3 -1.3 -4.3 -3.94 c0 -2.68 1.76 -3.72 4.46 -3.72 c1.64 0 4.18 0.4 4.18 0.4 z"></path>
    </g>
</svg>