<?xml version="1.0" encoding="utf-8"?>
<!-- Generator: Adobe Illustrator 21.1.0, SVG Export Plug-In . SVG Version: 6.00 Build 0)  -->
<svg version="1.1" id="Laag_1" xmlns="http://www.w3.org/2000/svg" xmlns:xlink="http://www.w3.org/1999/xlink" x="0px" y="0px"
	 viewBox="0 0 192 112.6" style="enable-background:new 0 0 192 112.6;" xml:space="preserve">
<style type="text/css">
	.st0{fill:#FFFFFF;}
</style>
<path class="st0" d="M39.7,112.6c0.3,0,0.6,0,0.8,0v0h111.7c21.9,0,39.7-17.8,39.7-39.7c0-21.9-17.8-39.7-39.7-39.7c-1.7,0-3.5,0.1-5.1,0.3
	c-6.8-12.1-19.8-20.2-34.6-20.2c-4.2,0-8.2,0.6-12,1.8C94.7,6,84.5,0,72.8,0C54.5,0,39.7,14.8,39.7,33.1C17.8,33.1,0,50.9,0,72.8
	C0,94.8,17.8,112.6,39.7,112.6z"/>
</svg>
