<?xml version="1.0" encoding="utf-8"?>
<!-- Generator: Adobe Illustrator 20.0.0, SVG Export Plug-In . SVG Version: 6.00 Build 0)  -->
<svg version="1.1" xmlns="http://www.w3.org/2000/svg" xmlns:xlink="http://www.w3.org/1999/xlink" x="0px" y="0px"
	 viewBox="0 0 778.3 427.7" style="enable-background:new 0 0 778.3 427.7;" xml:space="preserve">
<style type="text/css">
	.st0{display:none;fill:#333333;}
	.st1{fill:none;stroke:#F4CB00;stroke-width:25;stroke-linecap:square;stroke-miterlimit:10;}
	.st2{fill:none;stroke:#00AFA2;stroke-width:25;stroke-linecap:square;stroke-miterlimit:10;}
	.st3{fill:none;stroke:#FFFFFF;stroke-width:25;stroke-miterlimit:10;}
	.st4{fill:none;stroke:#F4CB00;stroke-width:2;stroke-linecap:square;stroke-miterlimit:10;}
	.st5{fill:none;stroke:#00AFA2;stroke-width:2;stroke-linecap:square;stroke-miterlimit:10;}
	.st6{fill:#FFFFFF;}
	.st7{fill:none;stroke:#FFFFFF;stroke-width:1.25;stroke-linecap:square;stroke-miterlimit:10;}
	.st8{display:none;}
	.st9{display:inline;}
	.st10{fill:none;stroke:#333333;stroke-width:25;stroke-miterlimit:10;}
	.st11{fill:#333333;}
	.st12{font-family:'FilsonSoft-Thin';}
	.st13{font-size:71.2272px;}
	.st14{fill:none;stroke:#333333;stroke-width:1.25;stroke-linecap:square;stroke-miterlimit:10;}
</style>
<g id="PLUSS_LOGO_WIT">
	<g id="logo_large">
		<rect id="achtergrond" x="-5.3" y="-6.2" class="st0" width="790.8" height="440.7"/>
		<g id="pluss">
			<path class="st1" d="M68,229c0,49.5,0,95.8,0,145.4c0-2,0-0.7,0-2.7"/>
			<circle class="st2" cx="138.6" cy="215.8" r="70.6"/>
			<path class="st3" d="M318.3,238c0,30.1-18.8,48.3-42.1,48.3c-23.2,0-42.1-18.2-42.1-48.3c0,0,0-188.8,0-188.8"/>
			<path class="st3" d="M425.5,132.7c0,0,0,105.4,0,105.4c0,30.1-24,48.3-53.6,48.3c-29.6,0-53.6-18.2-53.6-48.3
				c0,0,0-105.4,0-105.4"/>
			<path class="st3" d="M497.3,215.8c0,0,35,0,35,0c19.8,0,31.8,15.8,31.8,35.3c0,19.5-12,35.3-31.8,35.3c0,0-159.4,0-159.4,0"/>
			<path class="st3" d="M677.2,145.3c0,0-182.4,0-182.4,0c-19.8,0-31.8,15.8-31.8,35.3c0,19.5,12,35.3,31.8,35.3c0,0,35,0,35,0"/>
			<path class="st3" d="M610.4,215.8c0,0,35,0,35,0c19.8,0,31.8,15.8,31.8,35.3c0,19.5-12,35.3-31.8,35.3c0,0-272.4,0-272.5,0"/>
			<path class="st3" d="M678.2,145.3c0,0-70.3,0-70.3,0c-19.8,0-31.8,15.8-31.8,35.3c0,19.5,12,35.3,31.8,35.3c0,0,35,0,35,0"/>
		</g>
		<g id="design">
			<path class="st4" d="M474.5,355.6c0-12.4,0-25.8,0-38.2c0,0.5,0,0.2,0,0.7"/>
			<circle class="st5" cx="457" cy="356.6" r="17.5"/>
			<g>
				<path class="st6" d="M482.8,356.7c0-10.1,7.9-18.5,18.9-18.5c8.3,0,16.3,4.8,17,16.2c0,0.3-0.1,0.4-0.4,0.4h-33.6
					c-1.1,10.4,6.8,18.6,17.7,18.6c4.1,0,8.9-1.1,12.8-4.8c0.1-0.2,0.4-0.2,0.6,0l0.6,0.6c0.1,0.2,0.1,0.4-0.1,0.6
					c-4.1,3.8-9.3,5.1-13.8,5.1C490.5,375,482.8,366.7,482.8,356.7z M516.8,353.4c-0.9-9.4-7.8-13.7-15.2-13.7
					c-9,0-15.4,6.2-16.8,13.7H516.8z"/>
				<path class="st6" d="M525.1,368.9c-0.1-0.3,0-0.5,0.2-0.6l0.8-0.4c0.2-0.1,0.4,0,0.6,0.2c1.6,3.1,5.2,5.2,9.8,5.2
					c5,0,9.4-3.1,9.4-8c0-3.3-1.9-6-6.3-7.4l-5.7-1.7c-3.8-1.2-7.8-3.6-7.8-8.7c0-4.4,3.6-9.5,10.5-9.5c3.6,0,7.3,1.9,9,5.6
					c0.1,0.3,0,0.4-0.3,0.6l-0.7,0.3c-0.3,0.1-0.4,0-0.5-0.2c-1.4-2.8-4.6-4.6-7.5-4.6c-5.8,0-8.8,4.2-8.8,7.9
					c0,4.2,3.3,6.2,6.6,7.2l5.5,1.6c5.3,1.7,7.7,4.8,7.7,9c0,5.8-5.2,9.5-11.1,9.5C531.1,375,527,372.6,525.1,368.9z"/>
				<path class="st6" d="M556.8,326.1c0-1.3,0.6-2,1.6-2c1,0,1.6,0.7,1.6,2s-0.6,2-1.6,2C557.4,328.1,556.8,327.3,556.8,326.1z
					 M557.6,373.8v-34.4c0-0.2,0.1-0.4,0.4-0.4h0.9c0.3,0,0.4,0.1,0.4,0.4v34.4c0,0.2-0.1,0.4-0.4,0.4h-0.9
					C557.8,374.2,557.6,374.1,557.6,373.8z"/>
				<path class="st6" d="M573.9,386.9c-0.2-0.1-0.3-0.3-0.1-0.6l0.4-0.7c0.1-0.2,0.4-0.4,0.6-0.1c4.4,3.1,8.8,3.9,13.7,3.9
					c9.6,0,16.1-6.5,16.1-16V364c-2.6,6.8-8.6,11-16.5,11c-11.1,0-18.1-8.1-18.1-18.4c0-10,6.5-18.4,17.9-18.4
					c8.3,0,14.2,4.6,16.7,11.1v-9.9c0-0.2,0.1-0.4,0.4-0.4h0.9c0.3,0,0.4,0.1,0.4,0.4v34c0,10.4-7.1,17.5-17.8,17.5
					C583.1,391,578.4,390,573.9,386.9z M604.6,356.6c0-9.4-6.6-16.8-16.7-16.8c-10.3,0-16.2,7.6-16.2,16.8c0,9.5,6.3,16.9,16.3,16.9
					C597.5,373.4,604.6,366.6,604.6,356.6z"/>
				<path class="st6" d="M619.3,373.8v-34.4c0-0.2,0.1-0.4,0.4-0.4h0.9c0.3,0,0.4,0.1,0.4,0.4v8.2c2.9-7.1,9.6-9.4,13.5-9.4
					c7.2,0,15.2,3.2,15.2,15.6v20c0,0.2-0.1,0.4-0.4,0.4h-0.9c-0.3,0-0.4-0.1-0.4-0.4v-20c0-11.2-7.1-14-13.5-14
					c-4.4,0-13.2,3.4-13.5,15.5v18.6c0,0.3-0.1,0.4-0.4,0.4h-0.9C619.5,374.2,619.3,374.1,619.3,373.8z"/>
			</g>
		</g>
		<g id="pluss_icon">
			<circle class="st7" cx="711.2" cy="99.8" r="12.8"/>
			<line class="st7" x1="689.8" y1="99.8" x2="732.7" y2="99.8"/>
			<line class="st7" x1="711.2" y1="121.3" x2="711.2" y2="78.4"/>
		</g>
	</g>
</g>
<g id="PLUSS_LOGO_DONKER" class="st8">
	<g id="logo_large_1_" class="st9">
		<g id="pluss_1_">
			<path class="st1" d="M68,229c0,49.5,0,95.8,0,145.4c0-2,0-0.7,0-2.7"/>
			<circle class="st2" cx="138.6" cy="215.8" r="70.6"/>
			<path class="st10" d="M318.3,238c0,30.1-18.8,48.3-42.1,48.3c-23.2,0-42.1-18.2-42.1-48.3c0,0,0-188.8,0-188.8"/>
			<path class="st10" d="M425.5,132.7c0,0,0,105.4,0,105.4c0,30.1-24,48.3-53.6,48.3c-29.6,0-53.6-18.2-53.6-48.3
				c0,0,0-105.4,0-105.4"/>
			<path class="st10" d="M497.3,215.8c0,0,35,0,35,0c19.8,0,31.8,15.8,31.8,35.3c0,19.5-12,35.3-31.8,35.3c0,0-159.4,0-159.4,0"/>
			<path class="st10" d="M677.2,145.3c0,0-182.4,0-182.4,0c-19.8,0-31.8,15.8-31.8,35.3c0,19.5,12,35.3,31.8,35.3c0,0,35,0,35,0"/>
			<path class="st10" d="M610.4,215.8c0,0,35,0,35,0c19.8,0,31.8,15.8,31.8,35.3c0,19.5-12,35.3-31.8,35.3c0,0-272.4,0-272.5,0"/>
			<path class="st10" d="M678.2,145.3c0,0-70.3,0-70.3,0c-19.8,0-31.8,15.8-31.8,35.3c0,19.5,12,35.3,31.8,35.3c0,0,35,0,35,0"/>
		</g>
		<g id="design_1_">
			<path class="st4" d="M474.5,355.6c0-12.4,0-25.8,0-38.2c0,0.5,0,0.2,0,0.7"/>
			<circle class="st5" cx="457" cy="356.6" r="17.5"/>
			<text transform="matrix(1 0 0 1 479.3608 374.2151)" class="st11 st12 st13">esign</text>
		</g>
		<g id="pluss_icon_1_">
			<circle class="st14" cx="711.2" cy="99.8" r="12.8"/>
			<line class="st14" x1="689.8" y1="99.8" x2="732.7" y2="99.8"/>
			<line class="st14" x1="711.2" y1="121.3" x2="711.2" y2="78.4"/>
		</g>
	</g>
</g>
</svg>
