<?xml version="1.0" encoding="utf-8"?>
<!-- Generator: Adobe Illustrator 19.1.0, SVG Export Plug-In . SVG Version: 6.00 Build 0)  -->
<!DOCTYPE svg PUBLIC "-//W3C//DTD SVG 1.1//EN" "http://www.w3.org/Graphics/SVG/1.1/DTD/svg11.dtd">
<svg version="1.1" id="Layer_1" xmlns="http://www.w3.org/2000/svg" xmlns:xlink="http://www.w3.org/1999/xlink" x="0px" y="0px"
	 viewBox="0 0 14.4 15.7" style="enable-background:new 0 0 14.4 15.7;" xml:space="preserve">
<style type="text/css">
	.st0{fill:#000000;}
</style>
<g>
	<path class="st0" d="M14,15.7c-0.1,0-0.3-0.1-0.3-0.2l-6.4-7l-6.4,7c-0.1,0.1-0.2,0.2-0.3,0.2c-0.1,0-0.2,0-0.3-0.1
		c-0.2-0.2-0.2-0.5,0-0.7l6.5-7.1L0.1,0.8C0,0.7,0,0.6,0,0.4c0-0.1,0.1-0.2,0.2-0.3C0.2,0,0.4,0,0.5,0c0.1,0,0.3,0.1,0.3,0.2l6.4,7
		l6.4-7C13.7,0.1,13.8,0,14,0c0.1,0,0.2,0,0.3,0.1c0.2,0.2,0.2,0.5,0,0.7L7.9,7.8l6.5,7.1c0.2,0.2,0.2,0.5,0,0.7
		C14.2,15.6,14.1,15.7,14,15.7z"/>
</g>
</svg>
