<svg xmlns="http://www.w3.org/2000/svg" viewBox="0 0 100 100"><g class="hide"><g class="st5"><path class="st8" d="M72.3 85.9c0.4 0 0.8-0.2 1.1-0.5 0.6-0.6 0.6-1.6 0-2.2L42.3 52.2c-0.6-0.6-1.6-0.6-2.2 0 -0.6 0.6-0.6 1.6 0 2.2l31.1 31.1C71.5 85.8 71.9 85.9 72.3 85.9z"/></g><g class="st5"><path class="st8" d="M84.1 74.1c0.4 0 0.8-0.2 1.1-0.5 0.6-0.6 0.6-1.6 0-2.2L54.1 40.3c-0.6-0.6-1.6-0.6-2.2 0 -0.6 0.6-0.6 1.6 0 2.2L83 73.6C83.3 73.9 83.7 74.1 84.1 74.1z"/></g><g class="st5"><path class="st8" d="M78.4 88c2.6 0 5.1-0.8 7-2.7 1.9-1.9 2.9-4.3 2.9-7 0-2.6-1.1-5.1-3-7 -0.6-0.6-1.6-0.6-2.2 0s-0.6 1.6 0 2.2c1.3 1.3 2.1 3.1 2.1 4.9 0 1.8-0.7 3.6-2 4.9 -1.3 1.3-3 2-4.9 2 -1.8 0-3.6-0.8-4.9-2.1 -0.6-0.6-1.6-0.6-2.2 0 -0.6 0.6-0.6 1.4 0 2 1.9 1.9 4.4 2.8 7.1 2.8C78.3 88 78.3 88 78.4 88z"/></g><g class="st5"><path class="st8" d="M33.2 54.9c5.5 0 11-2.1 15.2-6.3 8.4-8.4 8.4-22 0-30.4 -5.8-5.8-14.2-7.8-22-5.2 -0.8 0.3-1.3 1.2-1 2 0.3 0.8 1.2 1.3 2 1 6.6-2.2 13.8-0.5 18.8 4.4 7.1 7.1 7.1 18.8 0 25.9 -7.1 7.1-18.8 7.1-25.9 0 -4.8-4.8-6.5-11.8-4.6-18.2 0.2-0.8-0.2-1.7-1.1-2 -0.8-0.2-1.7 0.2-2 1.1C10.4 34.9 12.4 43 18 48.6 22.2 52.8 27.7 54.9 33.2 54.9z"/></g><g class="st5"><path class="st8" d="M26.7 40.4c0.4 0 0.8-0.2 1.1-0.5l11.9-11.9c0.3-0.3 0.5-0.7 0.5-1.1 0-0.4-0.2-0.8-0.5-1.1L27.5 13.6c-0.6-0.6-1.6-0.6-2.2 0 -0.6 0.6-0.6 1.6 0 2.2L36.4 27l-9.6 9.6L15.6 25.5c-0.6-0.6-1.6-0.6-2.2 0 -0.6 0.6-0.6 1.6 0 2.2l12.2 12.2C25.9 40.2 26.3 40.4 26.7 40.4z"/></g></g><path class="line" d="M83.8 73.1L51.5 40.7c-2.1 5.4-6.4 9.6-11.8 11.8l32.9 32.9c3.1 3.1 8.1 3.1 11.1 0C87.2 82 87.2 76.5 83.8 73.1z"/><path class="line" d="M32 12c-2.5 0-4.9 0.5-7.2 1.3L38 26.4 26.2 38.2 12.7 24.7C11.6 27.3 11 30.1 11 33c0 11.6 9.4 21 21 21s21-9.4 21-21C53 21.4 43.6 12 32 12z"/><path class="hide" d="M83.8 73.1L51.5 40.7c0 0 0 0 0 0 1-2.4 1.5-5 1.5-7.7 0-11.6-9.4-21-21-21 -2.5 0-4.9 0.5-7.2 1.3L38 26.4 26.2 38.2 12.7 24.7C11.6 27.3 11 30.1 11 33c0 11.6 9.4 21 21 21 2.7 0 5.3-0.5 7.7-1.5 0 0 0 0 0 0l32.9 32.9c3.1 3.1 8.1 3.1 11.1 0C87.2 82 87.2 76.5 83.8 73.1z"/><path class="line" d="M39.7 52.5C39.7 52.5 39.7 52.5 39.7 52.5c-2.2 0.9-4.6 1.4-7.1 1.5L13.6 73.1c-3.4 3.4-3.4 9 0 12.4 3.1 3.1 8.1 3.1 11.1 0l24-24L39.7 52.5z"/><polyline class="line" points="53.5 40.9 67 27.4 67 21.2 76.3 15 82.5 21.2 77.4 30.5 70.9 30.9 56.6 45 "/></svg>
