<?xml version="1.0" encoding="utf-8"?>
<!-- Generator: Adobe Illustrator 21.1.0, SVG Export Plug-In . SVG Version: 6.00 Build 0)  -->
<svg version="1.1" id="Laag_1" xmlns="http://www.w3.org/2000/svg" xmlns:xlink="http://www.w3.org/1999/xlink" x="0px" y="0px"
	 viewBox="0 0 300 300" style="enable-background:new 0 0 300 300;" xml:space="preserve">
<style type="text/css">
	.st0{fill:#4C515D;}
	.st1{fill:#8D9099;}
</style>
<g id="organiisaties">
	<rect class="st0" width="300" height="300"/>
	<g>
		<polygon class="st1" points="155,246 57,232.9 57,110.1 155,87.1 		"/>
		<polygon class="st1" points="165.4,246 243,232.9 243,84.1 165.4,54 		"/>
	</g>
	<g>
		<g>
			<polygon class="st0" points="101,144.6 101,116.2 71,122.3 71,147.5 			"/>
			<g>
				<polygon class="st0" points="101,183.1 101,155.8 71,157.1 71,182.8 				"/>
			</g>
		</g>
		<polygon class="st0" points="140,140.8 140,108.3 111,114.1 111,143.6 		"/>
		<g>
			<polygon class="st0" points="140,183.4 140,154.2 111,155.4 111,183.2 			"/>
			<polygon class="st0" points="111,195 111,221.8 140,224.8 140,196.8 			"/>
		</g>
	</g>
</g>
</svg>
