<?xml version="1.0" encoding="utf-8"?>
<!-- Generator: Adobe Illustrator 21.1.0, SVG Export Plug-In . SVG Version: 6.00 Build 0)  -->
<svg version="1.1" id="Laag_1" xmlns="http://www.w3.org/2000/svg" xmlns:xlink="http://www.w3.org/1999/xlink" x="0px" y="0px"
	 viewBox="0 0 100 100" style="enable-background:new 0 0 100 100;" xml:space="preserve">
<style type="text/css">
	.st0{display:none;}
	.st1{display:inline;}
	.st2{fill:#FF00FF;}
	.st3{display:inline;fill:none;stroke:#000000;stroke-width:3.7;stroke-miterlimit:10;}
	.st4{display:inline;fill:none;stroke:#2CADE8;stroke-width:3.7;stroke-miterlimit:10;}
	.st5{display:inline;fill:none;stroke:#2CADE8;stroke-width:3.7;stroke-linecap:round;stroke-linejoin:round;stroke-miterlimit:10;}
	.st6{display:none;stroke:#000000;stroke-width:2;stroke-miterlimit:10;}
</style>
<g id="GRAPH" class="st0">
	<g class="st1">
		<g>
			<g>
				<path class="st2" d="M24.6,62.4c-7.4,0-13.5-6.1-13.5-13.5s6.1-13.5,13.5-13.5s13.5,6.1,13.5,13.5C38.1,56.4,32,62.4,24.6,62.4z
					 M24.6,38.4c-5.8,0-10.5,4.7-10.5,10.5s4.7,10.5,10.5,10.5s10.5-4.7,10.5-10.5S30.4,38.4,24.6,38.4z"/>
			</g>
		</g>
		<g>
			<path class="st2" d="M74.6,36.4c-7.4,0-13.5-6.1-13.5-13.5S67.2,9.4,74.6,9.4s13.5,6.1,13.5,13.5C88.1,30.4,82,36.4,74.6,36.4z
				 M74.6,12.4c-5.8,0-10.5,4.7-10.5,10.5s4.7,10.5,10.5,10.5s10.5-4.7,10.5-10.5S80.4,12.4,74.6,12.4z"/>
		</g>
		<g>
			<path class="st2" d="M35.7,44c-0.5,0-1.1-0.3-1.3-0.8c-0.4-0.7-0.1-1.6,0.7-2l26.3-13.3c0.7-0.4,1.6-0.1,2,0.7
				c0.4,0.7,0.1,1.6-0.7,2L36.4,43.8C36.2,43.9,35.9,44,35.7,44z"/>
		</g>
		<g>
			<g>
				<path class="st2" d="M74.6,90c-7.4,0-13.5-6.1-13.5-13.5c0-7.5,6-13.5,13.5-13.5c7.4,0,13.5,6,13.5,13.5
					C88.1,83.9,82,90,74.6,90z M74.6,66c-5.8,0-10.5,4.7-10.5,10.5S68.8,87,74.6,87s10.5-4.7,10.5-10.5S80.4,66,74.6,66z"/>
			</g>
			<g>
				<path class="st2" d="M62,71.7c-0.2,0-0.4,0-0.7-0.2L34.1,58.3c-0.7-0.4-1.1-1.3-0.7-2c0.4-0.7,1.3-1.1,2-0.7l27.3,13.3
					c0.7,0.4,1.1,1.3,0.7,2C63.1,71.4,62.6,71.7,62,71.7z"/>
			</g>
		</g>
	</g>
	<circle class="st3" cx="74.6" cy="22.9" r="11.9"/>
	<circle class="st4" cx="24.8" cy="50.2" r="11.9"/>
	<circle class="st4" cx="74.9" cy="24.1" r="11.9"/>
	<circle class="st4" cx="74.9" cy="76.2" r="11.9"/>
	<line class="st5" x1="63.6" y1="29" x2="35.7" y2="43.2"/>
	<line class="st5" x1="35.2" y1="57.2" x2="63.1" y2="71.3"/>
	<rect y="0" class="st1" width="100" height="100"/>
</g>
<path class="st6" d="M89.2,24.3L77,12.1c-1-1-2.8-1-3.8,0L18.8,66.6l0,0c-0.1,0.1-0.1,0.2-0.2,0.3L13,87.5c-0.1,0.2,0,0.5,0.2,0.6
	c0.1,0.1,0.3,0.2,0.5,0.2c0.1,0,0.1,0,0.2,0l20.6-5.6c0.1,0,0.2-0.1,0.3-0.2l0,0L89.3,28C90.3,27,90.3,25.3,89.2,24.3z M15.5,83.3
	l2.5,2.5l-3.4,0.9L15.5,83.3z M19.4,85.4l-3.5-3.5l3.7-13.6L33,81.7L19.4,85.4z M88.3,27.1l-54,54L20.1,67l54-54
	c0.5-0.5,1.4-0.5,2,0l12.2,12.2C88.9,25.7,88.9,26.6,88.3,27.1z"/>
<g>
	<g>
		<path d="M89.3,52H13.7c-0.9,0-1.7-0.8-1.7-1.7s0.8-1.7,1.7-1.7h75.6c0.9,0,1.7,0.8,1.7,1.7C91,51.2,90.2,52,89.3,52z"/>
	</g>
</g>
</svg>
