<svg xmlns="http://www.w3.org/2000/svg" viewBox="0 0 100 100"><g class="st2"><path d="M10 87c-1.1 0-1.9-0.9-1.9-1.9V14.9c0-1.1 0.9-1.9 1.9-1.9h34.7c0.7 0 1.4 0.4 1.7 1l5.8 10.5H90c1.1 0 1.9 0.9 1.9 1.9v58.7c0 1.1-0.9 1.9-1.9 1.9H10zM11.9 83.2h76.1v-38H11.9V83.2zM11.9 41.3h76.1v-13H51c-0.1 0-0.3 0-0.5-0.1 -0.2-0.1-0.3-0.1-0.4-0.2 -0.3-0.2-0.4-0.2-0.5-0.3 -0.1-0.1-0.2-0.2-0.3-0.4l0-0.1 0 0 -5.7-10.4H11.9V41.3z"/></g><polygon class="line" points="10 15 45 15 51 26 90 26 90 85 10 85 "/><line class="line" x1="10" y1="43.4" x2="90" y2="43.4"/></svg>
