<?xml version="1.0" encoding="utf-8"?>
<!-- Generator: Adobe Illustrator 19.1.0, SVG Export Plug-In . SVG Version: 6.00 Build 0)  -->
<!DOCTYPE svg PUBLIC "-//W3C//DTD SVG 1.1//EN" "http://www.w3.org/Graphics/SVG/1.1/DTD/svg11.dtd">
<svg version="1.1" xmlns="http://www.w3.org/2000/svg" xmlns:xlink="http://www.w3.org/1999/xlink" x="0px" y="0px"
	 viewBox="0 0 599.4 599.5" style="enable-background:new 0 0 599.4 599.5;" xml:space="preserve">
<style type="text/css">
	.st0{fill:#B0B0B0;}
	.st1{display:none;}
	.st2{display:inline;}
	.st3{display:inline;fill:#B0B0B0;}
</style>
<g id="Layer_1">
	<g>
		<g>
			<g>
				<path class="st0" d="M337.7,165c0-21.4,17.4-38.8,38.8-38.8l0,0c21.4,0,38.8,17.4,38.8,38.8l0,0c0,21.4-17.4,38.8-38.8,38.8l0,0
					C355,203.8,337.7,186.5,337.7,165L337.7,165z M345.2,165c0,17.2,14,31.2,31.2,31.2l0,0c17.3,0,31.2-14,31.2-31.2l0,0
					c0-17.2-14-31.2-31.2-31.2l0,0C359.2,133.9,345.3,147.8,345.2,165L345.2,165z"/>
				<path class="st0" d="M376.4,207.4c-23.4,0-42.4-19-42.4-42.4v0c0-23.4,19-42.4,42.4-42.4c23.4,0,42.4,19,42.4,42.4
					C418.9,188.4,399.8,207.4,376.4,207.4z M341.3,165c0,19.4,15.8,35.1,35.1,35.1c19.4,0,35.1-15.8,35.1-35.1
					c0-19.4-15.8-35.1-35.1-35.1C357.1,129.9,341.3,145.7,341.3,165L341.3,165z M376.4,199.9c-19.2,0-34.8-15.7-34.9-34.8v0
					c0-19.2,15.7-34.8,34.8-34.9c19.2,0,34.8,15.7,34.9,34.9C411.3,184.2,395.6,199.9,376.4,199.9z M348.9,165
					c0,15.2,12.4,27.5,27.6,27.6c15.2,0,27.6-12.4,27.6-27.6c0-15.2-12.4-27.6-27.6-27.6C361.3,137.5,348.9,149.9,348.9,165z"/>
			</g>
		</g>
		<g>
			<g>
				<path class="st0" d="M325,230.3c-1.6-1.4-1.8-3.7-0.4-5.3l0,0c6.6-7.6,16.3-12.5,27.2-12.5l0,0h50.7c10,0,19.1,4.1,25.6,10.8
					l0,0v0c1.5,1.5,1.4,3.9-0.1,5.3l0,0c-1.5,1.5-3.9,1.4-5.3-0.1l0,0c-5.1-5.2-12.3-8.5-20.2-8.5l0,0h-50.7
					c-8.6,0-16.3,3.8-21.5,9.9l0,0c-0.7,0.9-1.8,1.3-2.9,1.3l0,0C326.6,231.2,325.7,230.9,325,230.3L325,230.3z"/>
				<path class="st0" d="M327.5,234.8c-1.8,0-3.5-0.6-4.8-1.8l0,0c-1.5-1.3-2.4-3.1-2.6-5.1c-0.1-2,0.5-3.9,1.8-5.4
					c7.5-8.7,18.4-13.7,29.9-13.7c0,0,0,0,0,0h50.7c0,0,0,0,0,0c10.7,0,20.7,4.2,28.2,11.8l1,1.1v0.3c1.7,2.9,1.4,6.7-1.1,9.1
					c-1.4,1.4-3.2,2.1-5.2,2.1c0,0-0.1,0-0.1,0c-2,0-3.8-0.8-5.2-2.2c-4.7-4.8-10.9-7.4-17.6-7.4h-50.7c-7.2,0-14,3.1-18.7,8.6
					C331.7,233.9,329.6,234.8,327.5,234.8z M351.8,216.1c-9.4,0-18.3,4.1-24.4,11.2l0,0.1c0,0.1,0,0.1,0,0.1l0,0c0,0,0.2,0,0.2,0
					c6.1-7.1,14.9-11.1,24.2-11.1h50.7c8.7,0,16.8,3.4,22.8,9.6c0,0,0.1,0,0.2,0c0.1-0.1,0.1-0.1,0-0.2l-0.3-0.3
					c-6.1-6-14.1-9.3-22.7-9.3c0,0,0,0,0,0H351.8C351.8,216.1,351.8,216.1,351.8,216.1z"/>
			</g>
		</g>
		<g>
			<g>
				<path class="st0" d="M269.1,229.9c-5.2-6-12.9-9.8-21.5-9.8l0,0h-50.7c-7.9,0-15.1,3.2-20.2,8.5l0,0v0c-1.5,1.5-3.8,1.5-5.3,0.1
					l0,0c-1.5-1.5-1.5-3.8-0.1-5.3l0,0c6.5-6.6,15.6-10.8,25.6-10.8l0,0h50.7c10.9,0,20.6,4.8,27.2,12.5l0,0c1.4,1.6,1.2,4-0.4,5.3
					l0,0c-0.7,0.6-1.6,0.9-2.5,0.9l0,0C270.9,231.2,269.8,230.7,269.1,229.9L269.1,229.9z"/>
				<path class="st0" d="M272,234.8c-2.2,0-4.2-0.9-5.6-2.6l0,0c-4.7-5.5-11.5-8.6-18.7-8.6h-50.7c-6.6,0-12.7,2.5-17.4,7.2
					l-0.2,0.2c-1.4,1.4-3.2,2.2-5.2,2.2c-2,0-3.9-0.7-5.3-2.1c-1.4-1.4-2.2-3.2-2.2-5.2c0-2,0.7-3.9,2.1-5.3
					c7.5-7.6,17.5-11.8,28.2-11.8h50.7c11.5,0,22.4,5,29.9,13.7c2.7,3.1,2.3,7.8-0.8,10.4C275.5,234.2,273.7,234.8,272,234.8z
					 M196.9,216.4h50.7c9.3,0,18.1,4.1,24.2,11.1l0,0c0,0,0,0,0.1,0c0.1-0.1,0.1-0.2,0.1-0.2c-6.1-7.1-15-11.2-24.4-11.2h-50.7
					c-8.7,0-16.9,3.4-23,9.7c0,0,0,0.1,0,0.2c0,0,0.1,0,0.2,0l0,0C180.2,219.8,188.2,216.4,196.9,216.4z"/>
			</g>
		</g>
		<g>
			<g>
				<path class="st0" d="M184.2,165c0-21.4,17.4-38.8,38.8-38.8l0,0c21.4,0,38.8,17.4,38.8,38.8l0,0c0,21.4-17.4,38.8-38.8,38.8l0,0
					C201.6,203.8,184.2,186.5,184.2,165L184.2,165z M191.8,165c0,17.2,14,31.2,31.2,31.2l0,0c17.2,0,31.2-14,31.2-31.2l0,0
					c0-17.2-14-31.2-31.2-31.2l0,0C205.7,133.9,191.8,147.8,191.8,165L191.8,165z"/>
				<path class="st0" d="M223,207.4c-23.4,0-42.4-19-42.4-42.4v0c0-23.4,19-42.4,42.4-42.4c23.4,0,42.4,19,42.4,42.4
					C265.4,188.4,246.4,207.4,223,207.4z M187.9,165c0,19.4,15.8,35.1,35.1,35.1c19.4,0,35.1-15.8,35.1-35.1
					c0-19.4-15.8-35.1-35.1-35.1C203.6,129.9,187.9,145.7,187.9,165L187.9,165z M223,199.9c-19.2,0-34.8-15.7-34.9-34.8v0
					c0-19.2,15.7-34.8,34.8-34.9c19.2,0,34.8,15.7,34.9,34.9C257.8,184.2,242.2,199.9,223,199.9z M195.4,165
					c0,15.2,12.4,27.5,27.6,27.6c15.2,0,27.6-12.4,27.6-27.6c0-15.2-12.4-27.6-27.6-27.6C207.8,137.5,195.4,149.9,195.4,165z"/>
			</g>
		</g>
		<g>
			<g>
				<path class="st0" d="M241,307.3c0-32.5,26.3-58.8,58.8-58.8l0,0c32.5,0,58.8,26.3,58.8,58.8l0,0c0,32.5-26.3,58.8-58.8,58.8l0,0
					C267.3,366.1,241,339.8,241,307.3L241,307.3z M263.5,271.1c-9.3,9.3-15,22.1-15,36.2l0,0c0,14.2,5.7,26.9,15,36.2l0,0
					c9.3,9.3,22.1,15,36.2,15l0,0c14.2,0,26.9-5.7,36.2-15l0,0c9.3-9.3,15-22.1,15-36.2l0,0c0-14.2-5.7-26.9-15-36.2l0,0
					c-9.3-9.3-22.1-15-36.2-15l0,0C285.6,256.1,272.8,261.8,263.5,271.1L263.5,271.1z"/>
				<path class="st0" d="M299.7,369.7c-34.4,0-62.4-28-62.4-62.4l0,0c0-34.4,28-62.4,62.4-62.4c34.4,0,62.4,28,62.4,62.4
					C362.1,341.7,334.1,369.7,299.7,369.7z M244.6,307.3c0,30.4,24.7,55.1,55.1,55.1s55.1-24.7,55.1-55.1
					c0-30.4-24.7-55.1-55.1-55.1S244.6,276.9,244.6,307.3L244.6,307.3z M299.7,362.2c-14.6,0-28.4-5.7-38.8-16.1
					c-10.4-10.4-16.1-24.1-16.1-38.8c0-14.6,5.7-28.4,16.1-38.8l0,0c10.4-10.4,24.1-16.1,38.8-16.1c14.6,0,28.4,5.7,38.8,16.1
					c10.4,10.4,16.1,24.1,16.1,38.8c0,14.6-5.7,28.4-16.1,38.8C328.1,356.5,314.4,362.2,299.7,362.2z M266.1,273.7
					c-9,9-13.9,20.9-13.9,33.6c0,12.7,5,24.6,13.9,33.6c9,9,20.9,13.9,33.6,13.9c12.7,0,24.7-5,33.6-13.9c9-9,13.9-20.9,13.9-33.6
					c0-12.7-5-24.6-13.9-33.6c-9-9-20.9-13.9-33.6-13.9C287,259.7,275.1,264.7,266.1,273.7z"/>
			</g>
		</g>
		<g>
			<g>
				<path class="st0" d="M502.1,403.9v-18.1c0-17.9-14.5-32.4-32.4-32.4l0,0h-57.3c-13.4,0-24.9,8.2-29.9,19.8l0,0
					c-0.8,1.9-3,2.8-4.9,2l0,0c-1.9-0.8-2.8-3-2-4.9l0,0c6.1-14.3,20.3-24.4,36.8-24.4l0,0h57.3c22.1,0,39.9,17.9,40,40l0,0v18.1
					c0,2.1-1.7,3.8-3.8,3.8l0,0C503.7,407.7,502.1,406,502.1,403.9L502.1,403.9z"/>
				<path class="st0" d="M505.8,411.3c-4.1,0-7.4-3.3-7.4-7.4v-18.1c0-15.8-12.9-28.7-28.8-28.8h-57.3c0,0,0,0,0,0
					c-11.6,0-22,6.9-26.5,17.6c-1.6,3.8-6,5.5-9.7,3.9c-1.8-0.8-3.3-2.2-4-4.1c-0.7-1.8-0.7-3.9,0.1-5.7
					c6.8-16.2,22.6-26.6,40.2-26.6h57.3c24,0,43.6,19.6,43.6,43.6v18.1C513.2,408,509.9,411.3,505.8,411.3z M412.4,349.7
					C412.4,349.7,412.4,349.7,412.4,349.7h57.3c19.8,0,36,16.2,36,36v18.1c0,0.1,0.3,0.2,0.3,0v-18.1c0-20-16.3-36.3-36.3-36.3
					h-57.3c-14.6,0-27.8,8.7-33.5,22.2l0,0.1c0,0.1,0.1,0.1,0.1,0.1c0.1,0,0.1,0,0.2-0.1C384.8,358.4,397.8,349.7,412.4,349.7z"/>
			</g>
		</g>
		<g>
			<g>
				<path class="st0" d="M397.7,291.8c0-23.9,19.4-43.3,43.3-43.3l0,0c23.9,0,43.3,19.4,43.3,43.3l0,0c0,23.9-19.4,43.3-43.3,43.3
					l0,0C417.1,335.1,397.7,315.7,397.7,291.8L397.7,291.8z M441,327.6c19.7,0,35.7-16,35.7-35.7l0,0c0-19.7-16-35.7-35.7-35.7l0,0
					c-19.7,0-35.7,16-35.7,35.7l0,0C405.3,311.6,421.3,327.5,441,327.6L441,327.6z"/>
				<path class="st0" d="M441,338.7c-25.9,0-46.9-21-46.9-46.9v0c0-25.9,21.1-46.9,46.9-46.9c25.9,0,46.9,21.1,46.9,46.9
					C487.9,317.7,466.9,338.7,441,338.7z M401.4,291.8c0,21.9,17.8,39.6,39.6,39.6c21.9,0,39.6-17.8,39.6-39.6
					c0-21.9-17.8-39.6-39.6-39.6C419.1,252.2,401.4,270,401.4,291.8L401.4,291.8z M441,331.2L441,331.2c-21.7,0-39.3-17.7-39.4-39.4
					c0-21.7,17.7-39.3,39.4-39.4c21.7,0,39.3,17.7,39.4,39.4C480.3,313.5,462.7,331.2,441,331.2L441,331.2z M441,259.7
					c-17.7,0-32.1,14.4-32.1,32.1c0,17.7,14.4,32,32.1,32.1c17.7,0,32.1-14.4,32.1-32.1C473.1,274.2,458.7,259.8,441,259.7z"/>
			</g>
		</g>
		<g>
			<g>
				<path class="st0" d="M89.8,403.9v-18.1c0-22.1,17.9-40,39.9-40l0,0h57.3c16.5,0,30.7,10.1,36.8,24.4l0,0c0.8,1.9-0.1,4.1-2,4.9
					l0,0c-1.9,0.8-4.1-0.1-4.9-2l0,0c-4.9-11.6-16.4-19.8-29.9-19.8l0,0h-57.3c-17.9,0-32.4,14.5-32.4,32.4l0,0v18.1
					c0,2.1-1.7,3.8-3.8,3.8l0,0C91.5,407.7,89.8,406,89.8,403.9L89.8,403.9z"/>
				<path class="st0" d="M93.6,411.3c-4.1,0-7.4-3.3-7.4-7.4v-18.1c0-24,19.6-43.6,43.6-43.6h57.3c17.6,0,33.3,10.5,40.2,26.6
					c1.6,3.8-0.2,8.1-3.9,9.7c-3.8,1.6-8.1-0.2-9.7-3.9c-4.5-10.7-14.9-17.6-26.5-17.6c0,0,0,0,0,0h-57.3
					c-15.8,0-28.7,12.9-28.8,28.8v18.1C101,408,97.7,411.3,93.6,411.3z M129.8,349.5c-20,0-36.3,16.3-36.3,36.3v18.1
					c0,0.1,0.3,0.1,0.3,0v-18.1c0-19.9,16.2-36,36-36h57.3c0,0,0,0,0,0c14.5,0,27.5,8.6,33.2,22c0,0.1,0.1,0.1,0.2,0.1
					c0.1,0,0.1-0.1,0.1-0.2c-5.7-13.5-18.8-22.2-33.5-22.2H129.8z"/>
			</g>
		</g>
		<g>
			<g>
				<path class="st0" d="M115.2,291.8c0-23.9,19.4-43.3,43.3-43.3l0,0c23.9,0,43.3,19.4,43.3,43.3l0,0c0,23.9-19.4,43.3-43.3,43.3
					l0,0C134.5,335.1,115.2,315.7,115.2,291.8L115.2,291.8z M122.7,291.8c0,19.7,16,35.7,35.7,35.7l0,0c19.7,0,35.7-16,35.7-35.7
					l0,0c0-19.7-16-35.7-35.7-35.7l0,0C138.7,256.1,122.7,272.1,122.7,291.8L122.7,291.8z"/>
				<path class="st0" d="M158.4,338.7c-25.9,0-46.9-21.1-46.9-46.9v0c0-25.9,21-46.9,46.9-46.9c25.9,0,46.9,21.1,46.9,46.9
					C205.3,317.7,184.3,338.7,158.4,338.7z M118.8,291.8c0,21.8,17.8,39.6,39.6,39.6c21.9,0,39.6-17.8,39.6-39.6
					c0-21.9-17.8-39.6-39.6-39.6C136.6,252.2,118.8,270,118.8,291.8L118.8,291.8z M158.4,331.2c-21.7,0-39.3-17.7-39.4-39.4v0
					c0-21.7,17.7-39.3,39.4-39.4c21.7,0,39.3,17.7,39.4,39.4C197.8,313.5,180.1,331.2,158.4,331.2z M126.3,291.8
					c0,17.7,14.4,32.1,32.1,32.1c17.7,0,32.1-14.4,32.1-32.1c0-17.7-14.4-32.1-32.1-32.1C140.8,259.8,126.4,274.2,126.3,291.8z"/>
			</g>
		</g>
		<g>
			<g>
				<path class="st0" d="M387.1,469.4v-25.9c0-14.9-6.1-28.4-15.9-38.2l0,0c-9.8-9.8-23.3-15.9-38.2-15.9l0,0H267
					c-14.9,0-28.4,6.1-38.2,15.9l0,0c-9.8,9.8-15.9,23.3-15.9,38.2l0,0v25.9c0,2.1-1.7,3.8-3.8,3.8l0,0c-2.1,0-3.8-1.7-3.8-3.8l0,0
					v-25.9c0-33.9,27.7-61.6,61.6-61.6l0,0h66.1c33.9,0,61.6,27.7,61.6,61.6l0,0v25.9c0,2.1-1.7,3.8-3.8,3.8l0,0
					C388.8,473.2,387.1,471.5,387.1,469.4L387.1,469.4z"/>
				<path class="st0" d="M390.9,476.8c-4.1,0-7.4-3.3-7.4-7.4v-25.9c0-13.4-5.3-26.1-14.8-35.6c-9.6-9.6-22.2-14.8-35.6-14.8H267
					c-13.4,0-26.1,5.3-35.6,14.8c-9.6,9.6-14.8,22.2-14.8,35.6v25.9c0,4.1-3.3,7.4-7.4,7.4c-4.1,0-7.4-3.3-7.4-7.4v-25.9
					c0-36,29.3-65.3,65.3-65.3h66.1c36,0,65.3,29.3,65.3,65.3v25.9C398.3,473.5,395,476.8,390.9,476.8z M267,385.8h66.1
					c15.4,0,29.8,6,40.8,17c10.9,10.9,17,25.4,17,40.8v25.9c0,0.2,0.3,0.1,0.3,0v-25.9c0-32-26-58-58-58H267c-32,0-58,26-58,58v25.9
					c0,0.1,0.3,0.2,0.3,0v-25.9c0-15.3,6-29.8,17-40.8C237.1,391.8,251.6,385.8,267,385.8z"/>
			</g>
		</g>
	</g>
	<g>
		<g>
			<path class="st0" d="M299.7,599.5c-82.8,0.1-157.7-33.5-212-87.8l0,0C33.5,457.4,0,382.5,0,299.8l0,0C0,217,33.5,142.1,87.8,87.8
				l0,0C142,33.6,216.9,0,299.7,0l0,0c82.8,0,157.7,33.6,212,87.8l0,0c54.2,54.2,87.8,129.1,87.8,211.9l0,0
				c0,82.8-33.5,157.7-87.8,211.9l0,0C457.4,565.9,382.5,599.5,299.7,599.5L299.7,599.5C299.8,599.5,299.8,599.5,299.7,599.5
				L299.7,599.5z M98.1,501.4c51.7,51.6,122.9,83.5,201.7,83.5l0,0c78.8,0,150-31.9,201.7-83.5l0,0c51.6-51.7,83.5-122.9,83.5-201.6
				l0,0c0-78.8-31.9-150-83.5-201.7l0,0c-51.6-51.6-122.9-83.5-201.7-83.5l0,0c-78.8,0-150,31.9-201.7,83.5l0,0
				c-51.6,51.7-83.5,122.9-83.5,201.7l0,0C14.5,378.6,46.4,449.7,98.1,501.4L98.1,501.4z"/>
		</g>
	</g>
</g>
<g id="Layer_2" class="st1">
	<g class="st2">
		<g>
			<g>
				<path class="st0" d="M327.9,485.2c-7.3,0-14.6-2.8-20.1-8.5l-8.7-8.9c-2.1-2.1-2.1-5.6,0.1-7.7c2.1-2.1,5.6-2.1,7.7,0.1l8.7,8.9
					c6.7,6.8,17.6,6.9,24.5,0.3c3.3-3.2,5.2-7.6,5.2-12.2c0.1-4.6-1.7-9-4.9-12.3c-2.1-2.1-2.1-5.6,0.1-7.7c2.1-2.1,5.6-2.1,7.7,0.1
					c5.3,5.4,8.1,12.5,8,20c-0.1,7.5-3.1,14.6-8.5,19.8C342.1,482.6,335,485.2,327.9,485.2z"/>
				<path class="st0" d="M327.9,487.7c-8.3,0-16.1-3.3-21.9-9.2l-8.7-8.9c-3.1-3.1-3-8.2,0.1-11.2c3.1-3,8.1-3,11.2,0.1l8.7,8.9
					c5.7,5.8,15.1,5.9,20.9,0.2c2.8-2.8,4.4-6.5,4.5-10.4c0-4-1.5-7.7-4.2-10.5c-1.5-1.5-2.3-3.5-2.3-5.6c0-2.1,0.9-4.1,2.4-5.6
					c1.5-1.5,3.5-2.3,5.6-2.3c2.1,0,4.1,0.9,5.6,2.4c5.7,5.9,8.8,13.6,8.7,21.8c-0.1,8.2-3.4,15.8-9.2,21.6
					C343.6,484.6,336,487.7,327.9,487.7L327.9,487.7C327.9,487.7,327.9,487.7,327.9,487.7z M303,461.2c-0.7,0-1.5,0.3-2,0.8
					c-1.2,1.1-1.2,3,0,4.1l8.7,8.9c4.9,5,11.4,7.7,18.3,7.7c0,0,0,0,0,0h0c6.7,0,13.1-2.6,17.9-7.3c4.9-4.8,7.6-11.2,7.7-18.1
					c0.1-6.9-2.5-13.3-7.3-18.2c-0.5-0.6-1.3-0.9-2.1-0.9c-0.8,0-1.5,0.3-2.1,0.8c-0.6,0.5-0.9,1.3-0.9,2.1c0,0.8,0.3,1.5,0.8,2.1
					c3.7,3.8,5.7,8.8,5.6,14.1c-0.1,5.3-2.2,10.2-6,13.9c-7.8,7.6-20.4,7.5-28-0.3l-8.7-8.9C304.5,461.5,303.8,461.2,303,461.2z"/>
			</g>
		</g>
		<g>
			<g>
				<path class="st0" d="M361.5,454.5c-0.1,0-0.2,0-0.3,0c-7.5-0.1-14.6-3.1-19.8-8.5l-20.4-20.8c-2.1-2.1-2.1-5.6,0.1-7.7
					c2.1-2.1,5.6-2.1,7.7,0.1l20.4,20.8c3.2,3.3,7.6,5.2,12.2,5.2c0.1,0,0.1,0,0.2,0c4.6,0,8.8-1.7,12.1-4.9
					c3.3-3.2,5.2-7.6,5.2-12.2c0.1-4.6-1.7-9-4.9-12.3c-2.1-2.1-2.1-5.6,0.1-7.7c2.1-2.1,5.6-2.1,7.7,0.1c5.3,5.4,8.1,12.5,8,20
					c-0.1,7.5-3.1,14.6-8.5,19.8C375.8,451.7,368.9,454.5,361.5,454.5z"/>
				<path class="st0" d="M361.5,457l-0.3,0c-8.2-0.1-15.9-3.4-21.6-9.2L319.1,427c-1.5-1.5-2.3-3.5-2.3-5.6c0-2.1,0.9-4.1,2.4-5.6
					c1.5-1.5,3.5-2.3,5.6-2.3c2.1,0,4.1,0.9,5.6,2.4l20.4,20.8c2.8,2.8,6.5,4.4,10.4,4.5l0.2,0c3.9,0,7.6-1.5,10.4-4.2
					c2.8-2.8,4.4-6.5,4.5-10.4s-1.5-7.7-4.2-10.5c-1.5-1.5-2.3-3.5-2.3-5.6c0-2.1,0.9-4.1,2.4-5.6c1.5-1.5,3.5-2.2,5.6-2.3
					c2.1,0,4.1,0.9,5.6,2.4c5.7,5.9,8.8,13.6,8.7,21.8c-0.1,8.2-3.4,15.8-9.2,21.6C377.1,453.9,369.5,457,361.5,457z M324.8,418.5
					c-0.8,0-1.5,0.3-2,0.8c-0.6,0.5-0.9,1.3-0.9,2.1c0,0.8,0.3,1.5,0.8,2.1l20.4,20.8c4.8,4.9,11.2,7.6,18.1,7.7l0.3,0
					c6.7,0,13.1-2.6,17.9-7.3c4.9-4.8,7.6-11.2,7.7-18.1c0.1-6.8-2.5-13.3-7.3-18.2c-0.5-0.6-1.3-0.9-2.1-0.9c0,0,0,0,0,0
					c-0.8,0-1.5,0.3-2,0.8c-0.6,0.5-0.9,1.3-0.9,2.1c0,0.8,0.3,1.5,0.8,2.1c3.7,3.8,5.7,8.8,5.6,14.1s-2.2,10.2-6,13.9
					c-3.7,3.6-8.6,5.7-13.8,5.7l-0.2,0c-5.3-0.1-10.2-2.2-13.9-6l-20.4-20.8C326.3,418.9,325.6,418.5,324.8,418.5
					C324.8,418.5,324.8,418.5,324.8,418.5z"/>
			</g>
		</g>
		<g>
			<g>
				<path class="st0" d="M394,422.7c-0.1,0-0.2,0-0.3,0c-7.5-0.1-14.6-3.1-19.8-8.5l-58.1-59.4c-2.1-2.1-2.1-5.6,0.1-7.7
					c2.1-2.1,5.6-2.1,7.7,0.1l58.1,59.4c3.2,3.3,7.6,5.2,12.2,5.2c4.7,0,9-1.7,12.3-4.9c3.3-3.2,5.2-7.6,5.2-12.2
					c0.1-4.6-1.7-9-4.9-12.3l-58.1-59.4c-2.1-2.1-2.1-5.6,0.1-7.7c2.1-2.1,5.6-2.1,7.7,0.1l58.1,59.4c5.3,5.4,8.1,12.5,8,20
					c-0.1,7.5-3.1,14.6-8.5,19.8C408.3,419.9,401.4,422.7,394,422.7z"/>
				<path class="st0" d="M394,425.2l-0.3,0c-8.2-0.1-15.9-3.4-21.6-9.2l-58.1-59.4c-3.1-3.1-3-8.2,0.1-11.2c3.1-3.1,8.1-3,11.2,0.1
					l58.1,59.4c2.8,2.8,6.5,4.4,10.4,4.5c4.1,0,7.7-1.5,10.5-4.2c2.8-2.8,4.4-6.5,4.5-10.4c0-4-1.5-7.7-4.2-10.5l-58.1-59.4
					c-1.5-1.5-2.3-3.5-2.3-5.6c0-2.1,0.9-4.1,2.4-5.6c1.5-1.5,3.5-2.3,5.6-2.3c2.1,0,4.1,0.9,5.6,2.4l58.1,59.4
					c5.7,5.8,8.8,13.6,8.7,21.8c-0.1,8.2-3.4,15.9-9.2,21.6C409.6,422.1,402,425.2,394,425.2z M319.6,348.1c-0.7,0-1.5,0.3-2,0.8
					c-1.2,1.1-1.2,3,0,4.1l58.1,59.4c4.8,4.9,11.2,7.6,18.1,7.7l0.3,0c6.7,0,13.1-2.6,17.9-7.3c4.9-4.8,7.6-11.2,7.7-18.1
					c0.1-6.8-2.5-13.3-7.3-18.2l-58.1-59.4c-0.5-0.6-1.3-0.9-2.1-0.9c0,0,0,0,0,0c-0.8,0-1.5,0.3-2,0.8c-0.6,0.5-0.9,1.3-0.9,2.1
					c0,0.8,0.3,1.5,0.8,2.1l58.1,59.4c3.7,3.8,5.7,8.8,5.6,14.1c-0.1,5.3-2.2,10.2-6,13.9c-3.7,3.7-8.6,5.6-14,5.6
					c-5.3-0.1-10.3-2.2-14-6L321.7,349C321.1,348.4,320.4,348.1,319.6,348.1z"/>
			</g>
		</g>
		<g>
			<g>
				<path class="st0" d="M426.5,390.9c-0.1,0-0.2,0-0.3,0c-7.5-0.1-14.6-3.1-19.8-8.5c-2.1-2.1-2.1-5.6,0.1-7.7
					c2.1-2.1,5.6-2,7.7,0.1c3.2,3.3,7.6,5.2,12.2,5.2c4.6,0.1,9-1.7,12.3-4.9c6.8-6.7,6.9-17.7,0.3-24.5L324.5,233.8
					c-2.1-2.1-2.1-5.6,0.1-7.7c2.1-2.1,5.6-2.1,7.7,0.1l114.3,116.9c10.8,11.1,10.6,29-0.5,39.8
					C440.8,388.1,433.9,390.9,426.5,390.9z"/>
				<path class="st0" d="M426.5,393.4l-0.4,0c-8.2-0.1-15.8-3.4-21.6-9.2c-1.5-1.5-2.3-3.5-2.3-5.6c0-2.1,0.9-4.1,2.4-5.6
					c3.1-3,8.2-3,11.2,0.1c2.8,2.8,6.5,4.4,10.4,4.5c3.9,0.1,7.7-1.4,10.5-4.2c5.8-5.7,5.9-15.1,0.2-21L322.7,235.5
					c-1.5-1.5-2.3-3.5-2.3-5.6c0-2.1,0.9-4.1,2.4-5.6c1.5-1.5,3.4-2.3,5.5-2.3c0,0,0.1,0,0.1,0c2.1,0,4.1,0.9,5.6,2.4l114.3,116.9
					c11.8,12.1,11.6,31.5-0.5,43.3C442.1,390.3,434.5,393.4,426.5,393.4z M410.2,375.8c-0.7,0-1.5,0.3-2,0.8
					c-0.6,0.5-0.9,1.3-0.9,2.1c0,0.8,0.3,1.5,0.8,2.1c4.8,4.9,11.2,7.6,18.1,7.7l0.3,0c6.7,0,13.1-2.6,17.9-7.3
					c10.1-9.9,10.3-26.2,0.4-36.3L330.5,227.9c-0.5-0.6-1.3-0.9-2.1-0.9c0,0,0,0,0,0c-0.8,0-1.5,0.3-2,0.8c-0.6,0.5-0.9,1.3-0.9,2.1
					c0,0.8,0.3,1.5,0.8,2.1l114.3,116.9c7.6,7.8,7.5,20.4-0.3,28c-3.8,3.7-8.9,5.8-14.1,5.6c-5.3-0.1-10.2-2.2-13.9-6
					C411.7,376.1,411,375.8,410.2,375.8z"/>
			</g>
		</g>
		<g>
			<g>
				<path class="st0" d="M361.1,242.5c-20.2,0-40.4-7.8-55.6-23.4c-2.1-2.1-2.1-5.6,0.1-7.7c2.1-2.1,5.6-2.1,7.7,0.1
					c25.8,26.4,68.3,26.9,94.7,1.1c2.1-2.1,5.6-2.1,7.7,0.1c2.1,2.1,2.1,5.6-0.1,7.7C400.4,235.1,380.8,242.5,361.1,242.5z"/>
				<path class="st0" d="M361.1,245c-21.8,0-42.2-8.6-57.4-24.1c-3.1-3.1-3-8.1,0.1-11.2c3.1-3.1,8.1-3,11.2,0.1
					c12,12.3,28.1,19.2,45.4,19.4c17.3,0.2,33.5-6.3,45.8-18.3c3.1-3.1,8.1-3,11.2,0.1c3.1,3.1,3,8.2-0.1,11.2
					C402.2,236.9,382.3,245,361.1,245z M309.4,212.4c-0.7,0-1.5,0.3-2,0.8c-1.2,1.1-1.2,3,0,4.1c14.3,14.6,33.4,22.6,53.9,22.6
					c19.8,0,38.5-7.6,52.7-21.4c1.2-1.1,1.2-3,0-4.1c-1.1-1.2-3-1.2-4.1,0c-13.2,13-30.8,20-49.4,19.8c-18.6-0.2-35.9-7.6-48.9-20.9
					C310.9,212.7,310.1,212.4,309.4,212.4z"/>
			</g>
		</g>
		<g>
			<g>
				<g>
					<path class="st0" d="M185.3,372.8c-7.3,0-14.6-2.8-20.1-8.4c-10.9-11.1-10.6-29,0.5-39.8l8.9-8.7c2.1-2.1,5.6-2.1,7.7,0.1
						c2.1,2.1,2.1,5.6-0.1,7.7l-8.9,8.7c-6.8,6.7-6.9,17.6-0.3,24.5c6.7,6.8,17.7,6.9,24.5,0.3c2.1-2.1,5.6-2.1,7.7,0.1
						c2.1,2.1,2.1,5.6-0.1,7.7C199.5,370.1,192.4,372.8,185.3,372.8z"/>
					<path class="st0" d="M185.3,375.3c-8.3,0-16.1-3.3-21.9-9.2c-11.8-12.1-11.6-31.5,0.5-43.3l8.9-8.7c1.5-1.5,3.5-2.2,5.6-2.3
						c2.1,0,4.1,0.9,5.6,2.4c1.5,1.5,2.3,3.5,2.3,5.6c0,2.1-0.9,4.1-2.4,5.6l-8.9,8.7c-5.8,5.7-5.9,15.1-0.2,20.9
						c5.7,5.8,15.1,5.9,20.9,0.2c1.5-1.5,3.5-2.2,5.6-2.3c2.1,0,4.1,0.9,5.6,2.4c1.5,1.5,2.3,3.5,2.3,5.6c0,2.1-0.9,4.1-2.4,5.6
						C201,372.2,193.4,375.3,185.3,375.3z M178.3,316.8c-0.8,0-1.5,0.3-2,0.8l-8.9,8.7c-10.1,9.9-10.3,26.2-0.4,36.3
						c4.9,5,11.4,7.7,18.3,7.7c6.8,0,13.1-2.6,17.9-7.3c0.6-0.5,0.9-1.3,0.9-2.1s-0.3-1.5-0.8-2.1c-0.5-0.6-1.3-0.9-2.1-0.9
						c-0.8,0-1.5,0.3-2.1,0.8c-7.8,7.6-20.4,7.5-28-0.3c-7.6-7.8-7.5-20.4,0.3-28l8.9-8.7c0.6-0.5,0.9-1.3,0.9-2.1
						c0-0.8-0.3-1.5-0.8-2.1C179.8,317.1,179.1,316.8,178.3,316.8C178.3,316.8,178.3,316.8,178.3,316.8z"/>
				</g>
			</g>
			<g>
				<g>
					<path class="st0" d="M216.3,406.7c-0.1,0-0.2,0-0.3,0c-7.5-0.1-14.6-3.1-19.8-8.5c-10.9-11.1-10.7-29,0.4-39.8
						c2.1-2.1,5.6-2.1,7.7,0.1c2.1,2.1,2.1,5.6-0.1,7.7c-6.8,6.7-6.9,17.7-0.3,24.5c3.2,3.3,7.6,5.2,12.2,5.2
						c4.7,0.1,9-1.7,12.3-4.9c2.1-2.1,5.6-2.1,7.7,0.1c2.1,2.1,2.1,5.6-0.1,7.7C230.7,403.8,223.7,406.7,216.3,406.7z"/>
					<path class="st0" d="M216.3,409.2l-0.4,0c-8.2-0.1-15.8-3.4-21.6-9.2c-11.8-12.1-11.6-31.5,0.5-43.4c1.5-1.5,3.5-2.3,5.6-2.3
						c2.1,0,4.1,0.9,5.6,2.4c1.5,1.5,2.3,3.5,2.3,5.6c0,2.1-0.9,4.1-2.4,5.6c-5.8,5.7-5.9,15.1-0.2,20.9c2.8,2.8,6.5,4.4,10.4,4.5
						c4,0.1,7.6-1.4,10.5-4.2c1.5-1.5,3.5-2.3,5.6-2.3c2.1,0,4.1,0.9,5.6,2.4c1.5,1.5,2.3,3.5,2.3,5.6c0,2.1-0.9,4.1-2.4,5.6
						C232,406.1,224.4,409.2,216.3,409.2z M200.4,359.3c-0.8,0-1.5,0.3-2,0.8c-10.1,9.9-10.3,26.2-0.4,36.3
						c4.8,4.9,11.2,7.6,18.1,7.7l0.3,0c6.7,0,13.1-2.6,17.9-7.3c0.6-0.5,0.9-1.3,0.9-2.1c0-0.8-0.3-1.5-0.8-2.1
						c-0.5-0.6-1.3-0.9-2.1-0.9c-0.7,0-1.5,0.3-2.1,0.8c-3.9,3.8-8.8,5.8-14.1,5.6c-5.3-0.1-10.2-2.2-13.9-6
						c-7.6-7.8-7.5-20.4,0.3-28c0.6-0.5,0.9-1.3,0.9-2.1c0-0.8-0.3-1.5-0.8-2.1C202,359.7,201.2,359.3,200.4,359.3
						C200.4,359.3,200.4,359.3,200.4,359.3z"/>
				</g>
			</g>
			<g>
				<g>
					<path class="st0" d="M248.1,439.2c-0.1,0-0.2,0-0.3,0c-7.5-0.1-14.6-3.1-19.8-8.5c-5.3-5.4-8.1-12.5-8-20
						c0.1-7.5,3.1-14.6,8.5-19.8c2.1-2.1,5.6-2.1,7.7,0.1c2.1,2.1,2.1,5.6-0.1,7.7c-3.3,3.2-5.2,7.6-5.2,12.2
						c-0.1,4.6,1.7,9,4.9,12.3c3.2,3.3,7.6,5.2,12.2,5.2c0.1,0,0.1,0,0.2,0c4.5,0,8.8-1.7,12.1-4.9c2.1-2.1,5.6-2.1,7.7,0.1
						c2.1,2.1,2.1,5.6-0.1,7.7C262.5,436.3,255.5,439.2,248.1,439.2z"/>
					<path class="st0" d="M248.1,441.7l-0.3,0c-8.2-0.1-15.9-3.4-21.6-9.2c-5.7-5.8-8.8-13.6-8.7-21.8c0.1-8.2,3.4-15.9,9.2-21.6
						c3.1-3,8.1-3,11.2,0.1c3.1,3.1,3,8.2-0.1,11.2c-2.8,2.8-4.4,6.5-4.5,10.4c0,4,1.5,7.7,4.2,10.5c2.8,2.8,6.5,4.4,10.4,4.5l0.2,0
						c3.9,0,7.6-1.5,10.3-4.2c1.5-1.5,3.5-2.3,5.6-2.3c2.1,0,4.1,0.9,5.6,2.4s2.3,3.5,2.3,5.6c0,2.1-0.9,4.1-2.4,5.6
						C263.8,438.6,256.2,441.7,248.1,441.7z M232.2,391.8c-0.7,0-1.5,0.3-2,0.8c-4.9,4.8-7.6,11.2-7.7,18.1
						c-0.1,6.9,2.5,13.3,7.3,18.2c4.8,4.9,11.2,7.6,18,7.7l0.3,0c6.7,0,13.1-2.6,17.9-7.3c0.6-0.5,0.9-1.3,0.9-2.1
						c0-0.8-0.3-1.5-0.8-2.1c-0.5-0.6-1.3-0.9-2.1-0.9c-0.8,0-1.5,0.3-2.1,0.8c-3.7,3.6-8.6,5.6-13.8,5.6l-0.2,0
						c-5.3-0.1-10.2-2.2-13.9-6c-3.7-3.8-5.7-8.8-5.7-14.1c0.1-5.3,2.2-10.2,6-13.9c1.2-1.1,1.2-3,0-4.1
						C233.7,392.1,233,391.8,232.2,391.8z"/>
				</g>
			</g>
			<g>
				<g>
					<path class="st0" d="M279.9,471.6c-7.3,0-14.6-2.8-20.1-8.4c-10.9-11.1-10.6-29,0.5-39.8c2.1-2.1,5.6-2.1,7.7,0.1
						c2.1,2.1,2.1,5.6-0.1,7.7c-6.8,6.7-7,17.7-0.3,24.5c6.7,6.8,17.7,6.9,24.5,0.3c2.1-2.1,5.6-2.1,7.7,0.1
						c2.1,2.1,2.1,5.6-0.1,7.7C294.1,469,287,471.6,279.9,471.6z"/>
					<path class="st0" d="M279.9,474.1c-8.3,0-16.1-3.3-21.9-9.2c-11.8-12.1-11.6-31.5,0.5-43.4c1.5-1.5,3.5-2.3,5.5-2.3
						c0,0,0.1,0,0.1,0c2.1,0,4.1,0.9,5.6,2.4c1.5,1.5,2.3,3.5,2.3,5.6c0,2.1-0.9,4.1-2.4,5.6c-5.8,5.7-6,15.1-0.2,21
						c5.7,5.8,15.1,5.9,20.9,0.2c3.1-3,8.1-3,11.2,0.1c3.1,3.1,3,8.2-0.1,11.2C295.6,471.1,287.9,474.1,279.9,474.1z M264,424.3
						c-0.8,0-1.5,0.3-2,0.8c-10.1,9.9-10.3,26.2-0.4,36.3c4.9,5,11.4,7.7,18.3,7.7c6.8,0,13.1-2.6,17.9-7.3c1.2-1.1,1.2-3,0-4.1
						c-1.1-1.1-3-1.2-4.1,0c-7.8,7.6-20.4,7.5-28-0.3c-7.6-7.8-7.5-20.4,0.3-28c0.6-0.5,0.9-1.3,0.9-2.1c0-0.8-0.3-1.5-0.8-2.1
						C265.5,424.6,264.8,424.3,264,424.3C264,424.3,264,424.3,264,424.3z"/>
				</g>
			</g>
			<g>
				<g>
					<path class="st0" d="M220.3,347.6c-1.4,0-2.8-0.5-3.9-1.6c-2.1-2.1-2.1-5.6,0.1-7.7c3.3-3.2,5.2-7.6,5.2-12.2
						c0.1-4.6-1.7-9-4.9-12.3c-3.2-3.3-7.6-5.2-12.2-5.2c-0.1,0-0.1,0-0.2,0c-4.5,0-8.8,1.7-12.1,4.9l-8.9,8.7
						c-2.1,2.1-5.6,2.1-7.7-0.1c-2.1-2.1-2.1-5.6,0.1-7.7l8.9-8.7c5.3-5.2,12.3-8,19.7-8c0.1,0,0.2,0,0.3,0
						c7.5,0.1,14.6,3.1,19.8,8.5c5.3,5.4,8.1,12.5,8,20c-0.1,7.5-3.1,14.6-8.5,19.8C223.1,347.1,221.7,347.6,220.3,347.6z"/>
					<path class="st0" d="M220.3,350.1c-2.1,0-4.2-0.8-5.7-2.4c-3.1-3.1-3-8.2,0.1-11.2c2.8-2.8,4.4-6.5,4.4-10.4
						c0-4-1.5-7.7-4.2-10.5c-2.8-2.8-6.5-4.4-10.4-4.5l-0.2,0c-3.9,0-7.6,1.5-10.3,4.2l-8.9,8.7c-1.5,1.5-3.5,2.3-5.6,2.3
						c-2.1,0-4.1-0.9-5.6-2.4c-1.5-1.5-2.3-3.5-2.3-5.6c0-2.1,0.9-4.1,2.4-5.6l8.9-8.7c5.8-5.6,13.4-8.7,21.4-8.7l0.4,0
						c8.2,0.1,15.8,3.4,21.6,9.2c5.7,5.8,8.8,13.6,8.7,21.8c-0.1,8.2-3.4,15.9-9.2,21.6C224.4,349.3,222.4,350.1,220.3,350.1z
						 M204.4,306.1l0.2,0c5.3,0.1,10.2,2.2,13.9,6c3.7,3.8,5.7,8.8,5.6,14.1c-0.1,5.3-2.2,10.2-6,13.9c-1.2,1.1-1.2,3,0,4.1
						c1.1,1.1,3,1.1,4.1,0c4.9-4.8,7.6-11.2,7.7-18.1c0.1-6.9-2.5-13.3-7.3-18.2c-4.8-4.9-11.2-7.6-18.1-7.7l-0.3,0
						c-6.7,0-13.1,2.6-17.9,7.3l-8.9,8.7c-0.6,0.5-0.9,1.3-0.9,2.1c0,0.8,0.3,1.5,0.8,2.1c0.5,0.6,1.3,0.9,2.1,0.9
						c0.8,0,1.5-0.3,2.1-0.8l8.9-8.7C194.3,308.1,199.2,306.1,204.4,306.1z"/>
				</g>
			</g>
			<g>
				<g>
					<path class="st0" d="M253.5,379.4c-1.4,0-2.8-0.5-3.9-1.6c-2.1-2.1-2.1-5.6,0.1-7.7c6.8-6.7,6.9-17.7,0.3-24.5
						c-3.2-3.3-7.6-5.2-12.2-5.2c-4.6-0.1-9,1.7-12.3,4.9c-2.1,2.1-5.6,2.1-7.7-0.1c-2.1-2.1-2.1-5.6,0.1-7.7c5.3-5.2,12.3-8,19.7-8
						c0.1,0,0.2,0,0.3,0c7.5,0.1,14.6,3.1,19.8,8.5c10.8,11.1,10.6,28.9-0.4,39.8C256.2,378.8,254.9,379.4,253.5,379.4z"/>
					<path class="st0" d="M253.5,381.9c-2.1,0-4.2-0.8-5.7-2.4c-1.5-1.5-2.3-3.5-2.3-5.6c0-2.1,0.9-4.1,2.4-5.6
						c5.8-5.7,5.9-15.1,0.2-20.9c-2.8-2.8-6.5-4.4-10.4-4.5c-3.9-0.1-7.7,1.4-10.5,4.2c-1.5,1.5-3.5,2.3-5.5,2.3c0,0-0.1,0-0.1,0
						c-2.1,0-4.1-0.9-5.6-2.4c-1.5-1.5-2.3-3.5-2.3-5.6c0-2.1,0.9-4.1,2.4-5.6c5.8-5.6,13.4-8.7,21.4-8.7l0.4,0
						c8.2,0.1,15.9,3.4,21.6,9.2c11.8,12.1,11.6,31.5-0.5,43.3C257.6,381.1,255.6,381.9,253.5,381.9z M237.4,337.9
						c0.1,0,0.3,0,0.4,0c5.3,0.1,10.2,2.2,13.9,6c7.6,7.8,7.5,20.4-0.3,28c-0.6,0.5-0.9,1.3-0.9,2.1s0.3,1.5,0.8,2.1
						c1.1,1.1,3,1.1,4.1,0c10.1-9.9,10.3-26.2,0.4-36.3c-4.8-4.9-11.2-7.7-18.1-7.7l-0.3,0c-6.7,0-13.1,2.6-17.9,7.3
						c-0.6,0.5-0.9,1.3-0.9,2.1s0.3,1.5,0.8,2.1c0.5,0.6,1.3,0.9,2.1,0.9c0.8,0,1.5-0.3,2.1-0.8
						C227.5,339.9,232.3,337.9,237.4,337.9z"/>
				</g>
			</g>
			<g>
				<g>
					<path class="st0" d="M285.3,411.8c-1.4,0-2.8-0.5-3.9-1.6c-2.1-2.1-2.1-5.6,0.1-7.7c3.3-3.2,5.2-7.5,5.2-12.2
						c0.1-4.6-1.7-9-4.9-12.3c-3.2-3.3-7.6-5.2-12.2-5.2c-4.7,0-9,1.7-12.3,4.9c-2.1,2.1-5.6,2.1-7.7-0.1c-2.1-2.1-2.1-5.6,0.1-7.7
						c5.3-5.2,12.3-8,19.7-8c0.1,0,0.2,0,0.3,0c7.5,0.1,14.6,3.1,19.8,8.5c5.3,5.4,8.1,12.5,8,20c-0.1,7.5-3.1,14.6-8.5,19.8
						C288,411.3,286.7,411.8,285.3,411.8z"/>
					<path class="st0" d="M285.3,414.3c-2.2,0-4.2-0.8-5.7-2.4c-3.1-3.1-3-8.2,0.1-11.2c2.8-2.8,4.4-6.5,4.4-10.4
						c0-4-1.5-7.7-4.2-10.5c-2.8-2.8-6.5-4.4-10.4-4.5c0,0,0,0,0,0c-4,0-7.7,1.5-10.5,4.2c-3.1,3.1-8.2,3-11.2-0.1
						c-3.1-3.1-3-8.1,0.1-11.2c5.8-5.6,13.4-8.8,21.4-8.8l0.3,0c8.2,0.1,15.9,3.4,21.6,9.2c5.7,5.8,8.8,13.6,8.7,21.8
						c-0.1,8.2-3.4,15.8-9.2,21.6C289.3,413.5,287.4,414.3,285.3,414.3z M269.6,370.4C269.6,370.4,269.6,370.4,269.6,370.4
						c5.4,0.1,10.3,2.2,14,6c3.7,3.8,5.7,8.8,5.6,14.1c-0.1,5.3-2.2,10.2-6,13.9c-1.2,1.1-1.2,3,0,4.1c1.1,1.1,3,1.1,4.1,0
						c4.9-4.8,7.6-11.2,7.7-18c0.1-6.9-2.5-13.3-7.3-18.2c-4.8-4.9-11.2-7.6-18.1-7.7l-0.3,0c-6.7,0-13.1,2.6-17.9,7.3
						c-1.2,1.1-1.2,3,0,4.1c1.1,1.1,3,1.2,4.1,0C259.3,372.4,264.3,370.4,269.6,370.4z"/>
				</g>
			</g>
			<g>
				<g>
					<path class="st0" d="M317.1,444.4c-1.4,0-2.8-0.5-3.9-1.6c-2.1-2.1-2.1-5.6,0.1-7.7c6.8-6.7,6.9-17.7,0.3-24.5
						c-3.2-3.3-7.6-5.2-12.2-5.2c-0.1,0-0.1,0-0.2,0c-4.6,0-8.8,1.7-12.1,4.9c-2.1,2.1-5.6,2.1-7.7-0.1c-2.1-2.1-2.1-5.6,0.1-7.7
						c5.3-5.2,12.3-8,19.7-8c0.1,0,0.2,0,0.3,0c7.5,0.1,14.6,3.1,19.8,8.5c10.8,11.1,10.6,29-0.4,39.8
						C319.8,443.8,318.4,444.4,317.1,444.4z"/>
					<path class="st0" d="M317.1,446.9c-2.1,0-4.2-0.8-5.7-2.4c-3.1-3.1-3-8.1,0.1-11.2c5.8-5.7,5.9-15.1,0.2-20.9
						c-2.8-2.8-6.5-4.4-10.4-4.5l-0.2,0c-3.9,0-7.6,1.5-10.3,4.2c-3.1,3.1-8.2,3-11.2-0.1c-1.5-1.5-2.3-3.5-2.3-5.6
						c0-2.1,0.9-4.1,2.4-5.6c5.8-5.6,13.4-8.7,21.4-8.7l0.3,0c8.2,0.1,15.9,3.4,21.6,9.2c11.8,12.1,11.6,31.5-0.5,43.3
						C321.1,446.1,319.2,446.9,317.1,446.9z M301.2,402.9l0.2,0c5.3,0.1,10.2,2.2,13.9,6c7.6,7.8,7.5,20.4-0.3,28
						c-1.2,1.1-1.2,3,0,4.1c1.1,1.1,3,1.1,4.1,0c10.1-9.9,10.3-26.2,0.4-36.3c-4.8-4.9-11.2-7.6-18.1-7.7l-0.3,0
						c-6.7,0-13.1,2.6-17.9,7.3c-0.6,0.5-0.9,1.3-0.9,2.1s0.3,1.5,0.8,2.1c1.1,1.2,3,1.2,4.1,0C291.1,404.9,296,402.9,301.2,402.9z"
						/>
				</g>
			</g>
			<g>
				<g>
					<path class="st0" d="M197.5,369.9c-1.4,0-2.8-0.5-3.9-1.6c-2.1-2.1-2.1-5.6,0.1-7.7l24.7-24.2c2.1-2.1,5.6-2.1,7.7,0.1
						c2.1,2.1,2.1,5.6-0.1,7.7l-24.7,24.2C200.3,369.4,198.9,369.9,197.5,369.9z"/>
					<path class="st0" d="M197.5,372.4c-2.1,0-4.2-0.8-5.7-2.4c-1.5-1.5-2.3-3.5-2.3-5.6c0-2.1,0.9-4.1,2.4-5.6l24.7-24.2
						c3.1-3.1,8.2-3,11.2,0.1c3.1,3.1,3,8.1-0.1,11.2l-24.7,24.2C201.6,371.6,199.6,372.4,197.5,372.4z M222.3,337.4
						c-0.7,0-1.5,0.3-2,0.8l-24.7,24.2c-0.6,0.5-0.9,1.3-0.9,2.1c0,0.8,0.3,1.5,0.8,2.1c1.1,1.1,3,1.1,4.1,0l24.7-24.2
						c1.2-1.1,1.2-3,0-4.1C223.8,337.7,223,337.4,222.3,337.4z"/>
				</g>
			</g>
			<g>
				<g>
					<path class="st0" d="M229.6,402.7c-1.4,0-2.8-0.5-3.9-1.6c-2.1-2.1-2.1-5.6,0.1-7.7l24.7-24.2c2.1-2.1,5.6-2.1,7.7,0.1
						c2.1,2.1,2.1,5.6-0.1,7.7l-24.7,24.2C232.4,402.2,231,402.7,229.6,402.7z"/>
					<path class="st0" d="M229.6,405.2c-2.1,0-4.2-0.8-5.7-2.4c-3.1-3.1-3-8.2,0.1-11.2l24.7-24.2c3.1-3.1,8.1-3,11.2,0.1
						c3.1,3.1,3,8.1-0.1,11.2l-24.7,24.2C233.7,404.4,231.7,405.2,229.6,405.2z M254.4,370.2c-0.7,0-1.5,0.3-2,0.8l-24.7,24.2
						c-1.2,1.1-1.2,3,0,4.1c1.1,1.1,3,1.1,4.1,0l24.7-24.2c1.2-1.1,1.2-3,0-4.1C255.9,370.5,255.1,370.2,254.4,370.2z"/>
				</g>
			</g>
			<g>
				<g>
					<path class="st0" d="M261.4,435.2c-1.4,0-2.8-0.5-3.9-1.6c-2.1-2.1-2.1-5.6,0.1-7.7l24.7-24.2c2.1-2.1,5.6-2.1,7.7,0.1
						c2.1,2.1,2.1,5.6-0.1,7.7l-24.7,24.2C264.1,434.7,262.8,435.2,261.4,435.2z"/>
					<path class="st0" d="M261.4,437.7c-2.1,0-4.2-0.8-5.7-2.4c-3.1-3.1-3-8.1,0.1-11.2l24.7-24.2c3.1-3.1,8.1-3,11.2,0.1
						c1.5,1.5,2.3,3.5,2.3,5.6c0,2.1-0.9,4.1-2.4,5.6l-24.7,24.2C265.5,436.9,263.5,437.7,261.4,437.7z M286.1,402.7
						c-0.7,0-1.5,0.3-2,0.8l-24.7,24.2c-1.2,1.1-1.2,3,0,4.1c1.1,1.1,3,1.1,4.1,0l24.7-24.2c0.6-0.5,0.9-1.3,0.9-2.1
						c0-0.8-0.3-1.5-0.8-2.1C287.7,403,286.9,402.7,286.1,402.7z"/>
				</g>
			</g>
			<g>
				<g>
					<path class="st0" d="M293.2,467.7c-1.4,0-2.8-0.5-3.9-1.6c-2.1-2.1-2.1-5.6,0.1-7.7l24.7-24.2c2.1-2.1,5.6-2.1,7.7,0.1
						c2.1,2.1,2.1,5.6-0.1,7.7L297,466.2C295.9,467.2,294.6,467.7,293.2,467.7z"/>
					<path class="st0" d="M293.2,470.2c-2.1,0-4.2-0.8-5.7-2.4c-1.5-1.5-2.3-3.5-2.3-5.6c0-2.1,0.9-4.1,2.4-5.6l24.7-24.2
						c1.5-1.5,3.5-2.3,5.6-2.3c2.1,0,4.1,0.9,5.6,2.4c1.5,1.5,2.3,3.5,2.3,5.6c0,2.1-0.9,4.1-2.4,5.6L298.7,468
						C297.2,469.4,295.3,470.2,293.2,470.2z M317.9,435.2c-0.8,0-1.5,0.3-2,0.8l-24.7,24.2c-0.6,0.5-0.9,1.3-0.9,2.1
						c0,0.8,0.3,1.5,0.8,2.1c1.1,1.1,3,1.1,4.1,0l24.7-24.2c0.6-0.5,0.9-1.3,0.9-2.1c0-0.8-0.3-1.5-0.8-2.1
						C319.5,435.5,318.7,435.2,317.9,435.2C317.9,435.2,317.9,435.2,317.9,435.2z"/>
				</g>
			</g>
		</g>
		<g>
			<g>
				<path class="st0" d="M167.4,331.5c-1.4,0-2.8-0.5-3.9-1.6L130.4,296c-16.6-17-25.7-39.5-25.4-63.3c0.3-23.8,9.8-46.1,26.8-62.7
					l31.1-30.4c33.7-33,87.4-33.9,122.2-2.2c0.1,0.1,0.2,0.1,0.2,0.2l16.7,17c2.1,2.1,2.1,5.6-0.1,7.7c-2.1,2.1-5.6,2.1-7.7-0.1
					l-16.5-16.9c-30.6-27.8-77.6-26.9-107.2,2.1l-31.1,30.4c-14.9,14.6-23.3,34.2-23.5,55.1c-0.2,20.9,7.7,40.6,22.3,55.6l33.2,33.9
					c2.1,2.1,2.1,5.6-0.1,7.7C170.2,331,168.8,331.5,167.4,331.5z"/>
				<path class="st0" d="M167.4,334c-2.2,0-4.2-0.8-5.7-2.4l-33.2-33.9c-17.1-17.5-26.4-40.6-26.1-65.1
					c0.3-24.5,10.1-47.4,27.6-64.5l31.1-30.4c34.7-33.9,89.8-34.9,125.6-2.3c0.1,0.1,0.2,0.2,0.3,0.3l16.6,17
					c1.5,1.5,2.3,3.5,2.3,5.6c0,2.1-0.9,4.1-2.4,5.6c-3.1,3.1-8.1,3-11.2-0.1l-16.5-16.9c-29.6-26.8-75.1-25.9-103.7,2l-31.1,30.4
					c-14.5,14.1-22.6,33.1-22.8,53.3c-0.2,20.2,7.4,39.3,21.6,53.8l33.2,33.9c1.5,1.5,2.3,3.5,2.3,5.6c0,2.1-0.9,4.1-2.4,5.6
					C171.5,333.2,169.5,334,167.4,334z M225.2,116.7c-21.9,0-43.8,8.3-60.6,24.7l-31.1,30.4c-16.5,16.2-25.8,37.8-26,60.9
					c-0.3,23.1,8.5,45,24.7,61.5l33.2,33.9c1.1,1.1,3,1.1,4.1,0c0.6-0.5,0.9-1.3,0.9-2.1s-0.3-1.5-0.8-2.1l-33.2-33.9
					c-15.1-15.4-23.2-35.8-23-57.4c0.2-21.6,8.9-41.7,24.3-56.8l31.1-30.4c30.5-29.8,79.1-30.7,110.6-2.1l0.1,0.1l16.5,16.9
					c1.1,1.2,3,1.2,4.1,0c0.6-0.5,0.9-1.3,0.9-2.1c0-0.8-0.3-1.5-0.8-2.1l-16.8-17.1C266.9,124.2,246,116.7,225.2,116.7z"/>
			</g>
		</g>
		<g>
			<g>
				<path class="st0" d="M428.4,336c-1.4,0-2.8-0.5-3.9-1.6c-2.1-2.1-2.1-5.6,0.1-7.7l38.8-37.9c27.8-30.6,26.9-77.6-2.1-107.2
					l-30.4-31.1c-14.6-14.9-34.2-23.3-55.1-23.5c-20.8-0.2-40.6,7.7-55.6,22.3l-18.8,18.5L232,237.3c-6.6,6.6-6.6,17.3,0,23.9
					c6.6,6.6,17.3,6.6,23.9,0l49.7-49.7c2.1-2.1,5.5-2.1,7.7,0c2.1,2.1,2.1,5.6,0,7.7l-49.7,49.7c-10.8,10.8-28.4,10.8-39.2,0
					c-5.2-5.2-8.1-12.2-8.1-19.6c0-7.4,2.9-14.4,8.1-19.6l69.5-69.5l18.8-18.6c17-16.7,39.5-25.7,63.3-25.4
					c23.8,0.3,46.1,9.8,62.7,26.8l30.4,31.1c33,33.7,33.9,87.4,2.2,122.2c-0.1,0.1-0.1,0.2-0.2,0.2l-38.9,38
					C431.1,335.5,429.8,336,428.4,336z"/>
				<path class="st0" d="M428.4,338.5c-2.2,0-4.2-0.8-5.7-2.4c-1.5-1.5-2.3-3.5-2.3-5.6c0-2.1,0.9-4.1,2.4-5.6l38.7-37.9
					c26.8-29.6,25.9-75.1-2-103.7l-30.4-31.1c-14.1-14.5-33.1-22.6-53.3-22.8c-20.2-0.2-39.3,7.4-53.8,21.6l-18.8,18.5l-69.5,69.5
					c-2.7,2.7-4.2,6.3-4.2,10.2s1.5,7.4,4.2,10.2c5.6,5.6,14.7,5.6,20.3,0l49.7-49.7c3.1-3.1,8.1-3.1,11.2,0
					c1.5,1.5,2.3,3.5,2.3,5.6s-0.8,4.1-2.3,5.6l-49.7,49.7c-5.7,5.7-13.3,8.8-21.4,8.8c0,0,0,0,0,0c-8.1,0-15.7-3.1-21.4-8.8
					c-5.7-5.7-8.8-13.3-8.8-21.4c0-8.1,3.1-15.7,8.8-21.4l69.5-69.5l18.8-18.6c17.5-17.1,40.6-26.4,65.1-26.1
					c24.5,0.3,47.4,10.1,64.5,27.5l30.4,31.1c33.9,34.7,34.9,89.9,2.3,125.7c-0.1,0.1-0.2,0.2-0.3,0.3l-38.9,38
					C432.4,337.7,430.5,338.5,428.4,338.5z M375,124.5c0.3,0,0.6,0,0.9,0c21.6,0.2,41.7,8.9,56.8,24.3l30.4,31.1
					c29.8,30.5,30.8,79.1,2.1,110.7l-0.1,0.1l-38.8,37.9c-0.6,0.5-0.9,1.3-0.9,2.1c0,0.8,0.3,1.5,0.8,2.1c1.1,1.1,3,1.1,4.1,0
					l39-38.2c30.8-33.8,29.9-86-2.2-118.8l-30.4-31.1c-16.2-16.5-37.8-25.8-60.9-26c-0.3,0-0.7,0-1,0c-22.8,0-44.2,8.7-60.5,24.7
					l-18.8,18.6l-69.5,69.5c-4.8,4.8-7.4,11.1-7.4,17.8c0,6.7,2.6,13.1,7.4,17.8c4.8,4.8,11.1,7.4,17.8,7.4c0,0,0,0,0,0
					c6.7,0,13.1-2.6,17.8-7.4l49.7-49.7c0.6-0.6,0.9-1.3,0.9-2.1s-0.3-1.5-0.9-2.1c-1.1-1.1-3-1.1-4.1,0l-49.7,49.7
					c-7.6,7.6-19.8,7.6-27.4,0c-3.7-3.7-5.7-8.5-5.7-13.7s2-10,5.7-13.7l69.5-69.5l18.8-18.6C333.7,132.6,353.8,124.5,375,124.5z"/>
			</g>
		</g>
	</g>
	<g class="st2">
		<g>
			<path class="st0" d="M299.7,599.5c-82.8,0.1-157.7-33.5-212-87.8l0,0C33.5,457.4,0,382.5,0,299.8l0,0C0,217,33.5,142.1,87.8,87.8
				l0,0C142,33.6,216.9,0,299.7,0l0,0c82.8,0,157.7,33.6,212,87.8l0,0c54.2,54.2,87.8,129.1,87.8,211.9l0,0
				c0,82.8-33.5,157.7-87.8,211.9l0,0C457.4,565.9,382.5,599.5,299.7,599.5L299.7,599.5C299.8,599.5,299.8,599.5,299.7,599.5
				L299.7,599.5z M98.1,501.4c51.7,51.6,122.9,83.5,201.7,83.5l0,0c78.8,0,150-31.9,201.7-83.5l0,0c51.6-51.7,83.5-122.9,83.5-201.6
				l0,0c0-78.8-31.9-150-83.5-201.7l0,0c-51.6-51.6-122.9-83.5-201.7-83.5l0,0c-78.8,0-150,31.9-201.7,83.5l0,0
				c-51.6,51.7-83.5,122.9-83.5,201.7l0,0C14.5,378.6,46.4,449.7,98.1,501.4L98.1,501.4z"/>
		</g>
	</g>
</g>
<g id="acties" class="st1">
	<path class="st3" d="M472.2,159.7c-4.3,0-7.8,3.5-7.8,7.8v9.4l-361.2,82.8c-7.1,1.6-12.1,7.9-12.1,15.2v49.8
		c0,7.3,5,13.5,12.1,15.2l91.8,21l-2.6,10.8c-3.1,10.7-1.5,21.9,4.4,31.5c5.8,9.4,15.2,16.1,26.4,18.9l66.7,16.3
		c3.6,0.9,7.2,1.3,10.8,1.3l1.5,0c19.3-0.6,35.7-12.8,40.8-30.7l3.3-13.5l118.1,27.1v9.4c0,4.3,3.5,7.8,7.8,7.8
		c4.3,0,7.8-3.5,7.8-7.8V167.5C480,163.2,476.5,159.7,472.2,159.7z M328,405c-3.1,10.9-13.9,18.8-26.3,19.2l-1,0
		c-2.4,0-4.8-0.3-7.2-0.9L226.9,407c-7.2-1.8-13.2-6-16.9-12c-3.6-5.8-4.6-12.6-2.6-19.4l2.7-11.3l121.1,27.7L328,405z M106.7,324.6
		v-49.8l357.8-82v213.8L106.7,324.6z"/>
	<g class="st2">
		<g>
			<path class="st0" d="M299.7,599.5c-82.8,0.1-157.7-33.5-212-87.8l0,0C33.5,457.4,0,382.5,0,299.8l0,0C0,217,33.5,142.1,87.8,87.8
				l0,0C142,33.6,216.9,0,299.7,0l0,0c82.8,0,157.7,33.6,212,87.8l0,0c54.2,54.2,87.8,129.1,87.8,211.9l0,0
				c0,82.8-33.5,157.7-87.8,211.9l0,0C457.4,565.9,382.5,599.5,299.7,599.5L299.7,599.5C299.8,599.5,299.8,599.5,299.7,599.5
				L299.7,599.5z M98.1,501.4c51.7,51.6,122.9,83.5,201.7,83.5l0,0c78.8,0,150-31.9,201.7-83.5l0,0c51.6-51.7,83.5-122.9,83.5-201.6
				l0,0c0-78.8-31.9-150-83.5-201.7l0,0c-51.6-51.6-122.9-83.5-201.7-83.5l0,0c-78.8,0-150,31.9-201.7,83.5l0,0
				c-51.6,51.7-83.5,122.9-83.5,201.7l0,0C14.5,378.6,46.4,449.7,98.1,501.4L98.1,501.4z"/>
		</g>
	</g>
</g>
<g id="functies" class="st1">
	<g class="st2">
		<g>
			<g>
				<g>
					<g>
						<g>
							<g>
								<g>
									<path class="st0" d="M246.4,402.9c-9.5-2.4-15.5-10.6-16.4-17.8l0,0c-1.4-7.1-1.3-14-4-23.4l0,0
										c-1.1-6.2-16.7-22.4-31.9-43.1l0,0c-15.2-21.1-30.3-49.1-30.3-84.7l0,0c0.2-71.7,63.5-128.7,134.4-128.8l0,0h2.9v7.8v7.7
										h-2.9c-31.3,0-61.2,12.7-83.1,33.3l0,0c-21.9,20.6-35.8,48.9-35.8,79.9l0,0c0,31.2,13,55.8,27.4,75.7l0,0
										c14.3,20.3,29.6,33.5,34.3,48l0,0c3.1,11.2,3.2,19.8,4.2,24.3l0,0c1.5,4.4,0.3,3.8,6,6.3l0,0c5.1,1.8,27.5,3.4,48.6,3.3
										l0,0c21.1,0.1,43.5-1.4,48.6-3.3l0,0c5.7-2.4,4.5-1.8,6-6.2l0,0c1-4.5,1.1-13.1,4.2-24.3l0,0c4.6-14.5,20-27.7,34.3-48l0,0
										c14.3-19.9,27.3-44.6,27.3-75.7l0,0c0-31.1-13.9-59.3-35.8-79.9l0,0c-21.9-20.6-51.8-33.4-83.1-33.3l0,0V113v-7.8
										c70.9,0.1,134.2,57.1,134.5,128.8l0,0c0,35.7-15.1,63.6-30.3,84.7l0,0c-15.3,20.7-30.8,37-31.9,43.2l0,0
										c-2.7,9.4-2.6,16.3-4,23.3l0,0c-0.9,7.1-6.9,15.3-16.4,17.8l0,0c-10.1,3.1-31.1,3.9-53.3,4.1l0,0
										C277.5,406.9,256.4,406,246.4,402.9L246.4,402.9z"/>
								</g>
							</g>
						</g>
					</g>
				</g>
			</g>
			<g>
				<g>
					<g>
						<polygon class="st0" points="242.7,435.9 242.7,420.4 356.7,420.4 356.7,435.9 242.7,435.9 						"/>
					</g>
				</g>
			</g>
			<g>
				<g>
					<g>
						<polygon class="st0" points="242.7,465 242.7,449.6 356.7,449.6 356.7,465 242.7,465 						"/>
					</g>
				</g>
			</g>
			<g>
				<g>
					<g>
						<polygon class="st0" points="242.7,494.3 242.7,478.8 356.7,478.8 356.7,494.3 242.7,494.3 						"/>
					</g>
				</g>
			</g>
		</g>
		<g>
			<g>
				<path class="st0" d="M299.7,599.5c-82.8,0.1-157.7-33.5-212-87.8l0,0C33.5,457.4,0,382.5,0,299.8l0,0
					C0,217,33.5,142.1,87.8,87.8l0,0C142,33.6,216.9,0,299.7,0l0,0c82.8,0,157.7,33.6,212,87.8l0,0c54.2,54.2,87.8,129.1,87.8,211.9
					l0,0c0,82.8-33.5,157.7-87.8,211.9l0,0C457.4,565.9,382.5,599.5,299.7,599.5L299.7,599.5C299.8,599.5,299.8,599.5,299.7,599.5
					L299.7,599.5z M98.1,501.4c51.7,51.6,122.9,83.5,201.7,83.5l0,0c78.8,0,150-31.9,201.7-83.5l0,0
					c51.6-51.7,83.5-122.9,83.5-201.6l0,0c0-78.8-31.9-150-83.5-201.7l0,0c-51.6-51.6-122.9-83.5-201.7-83.5l0,0
					c-78.8,0-150,31.9-201.7,83.5l0,0c-51.6,51.7-83.5,122.9-83.5,201.7l0,0C14.5,378.6,46.4,449.7,98.1,501.4L98.1,501.4z"/>
			</g>
		</g>
	</g>
</g>
</svg>
