<?xml version="1.0" encoding="utf-8"?>
<!-- Generator: Adobe Illustrator 19.1.0, SVG Export Plug-In . SVG Version: 6.00 Build 0)  -->
<!DOCTYPE svg PUBLIC "-//W3C//DTD SVG 1.1//EN" "http://www.w3.org/Graphics/SVG/1.1/DTD/svg11.dtd">
<svg version="1.1" id="Layer_1" xmlns="http://www.w3.org/2000/svg" xmlns:xlink="http://www.w3.org/1999/xlink" x="0px" y="0px"
	 viewBox="0 0 14.2 14.2" style="enable-background:new 0 0 14.2 14.2;" xml:space="preserve">
<style type="text/css">
	.st0{fill:#1A171B;}
</style>
<g>
	<g>
		<path class="st0" d="M0.6,13.8v-3.5c0-0.1-0.1-0.3-0.3-0.3c-0.1,0-0.3,0.1-0.3,0.3v3.5c0,0.1,0.1,0.3,0.3,0.3
			C0.5,14.1,0.6,14,0.6,13.8z"/>
		<path class="st0" d="M0.4,14.1h3.5c0.1,0,0.3-0.1,0.3-0.3c0-0.1-0.1-0.3-0.3-0.3H0.4c-0.1,0-0.3,0.1-0.3,0.3
			C0.1,14,0.2,14.1,0.4,14.1z"/>
		<path class="st0" d="M0.6,14l5.2-5.2c0.1-0.1,0.1-0.3,0-0.4c-0.1-0.1-0.3-0.1-0.4,0l-5.2,5.2L0.6,14z"/>
	</g>
	<g>
		<path class="st0" d="M13.6,0.4v3.5c0,0.1,0.1,0.3,0.3,0.3c0.1,0,0.3-0.1,0.3-0.3V0.4c0-0.1-0.1-0.3-0.3-0.3
			C13.7,0.1,13.6,0.3,13.6,0.4z"/>
		<path class="st0" d="M13.8,0.1h-3.5c-0.1,0-0.3,0.1-0.3,0.3c0,0.1,0.1,0.3,0.3,0.3h3.5c0.1,0,0.3-0.1,0.3-0.3
			C14,0.2,13.9,0.1,13.8,0.1z"/>
		<path class="st0" d="M13.6,0.2L8.4,5.4c-0.1,0.1-0.1,0.3,0,0.4c0.1,0.1,0.3,0.1,0.4,0l5.2-5.2L13.6,0.2z"/>
	</g>
</g>
</svg>
