<?xml version="1.0" encoding="utf-8"?>
<!-- Generator: Adobe Illustrator 21.1.0, SVG Export Plug-In . SVG Version: 6.00 Build 0)  -->
<svg version="1.1" id="Laag_1" xmlns="http://www.w3.org/2000/svg" xmlns:xlink="http://www.w3.org/1999/xlink" x="0px" y="0px"
	 viewBox="0 0 100 100" style="enable-background:new 0 0 100 100;" xml:space="preserve">
<style type="text/css">
	.st0{display:none;}
	.st1{display:inline;fill:#222222;stroke:#000000;stroke-miterlimit:10;}
	.st2{display:inline;fill:#231F20;stroke:#000000;stroke-width:2;stroke-miterlimit:10;}
	.st3{display:inline;fill:none;stroke:#FFFFFF;stroke-width:2;stroke-miterlimit:10;}
	.st4{display:inline;fill:url(#SVGID_1_);}
	.st5{fill:none;stroke:#FFFFFF;stroke-width:3.1525;stroke-linecap:round;stroke-linejoin:round;stroke-miterlimit:10;}
</style>
<g id="HOME">
</g>
<g id="ORGANITATIE">
</g>
<g id="DOCUMENTEN">
</g>
<g id="OBJECTEN">
</g>
<g id="EISEN">
</g>
<g id="ACTIVITEITEN">
</g>
<g id="VERIFICATIES">
</g>
<g id="PROJECTCONTROLE">
</g>
<g id="RISICOS">
</g>
<g id="INTERACTIEF">
</g>
<g id="ZOEKEN">
</g>
<g id="ADMIN">
</g>
<g id="DASHBOARD">
</g>
<g id="TREE">
</g>
<g id="GRAPH">
</g>
<g id="RELATION">
</g>
<g id="LIST">
</g>
<g id="VR">
</g>
<g id="VR-1">
</g>
<g class="st0">
	<path class="st1" d="M79.9,83.3H20.7c-0.4,0-0.8-0.2-1.1-0.6c-0.2-0.4-0.2-0.8,0-1.2l4.7-9.1c1-1.9,1.5-4.1,1.5-6.3V46.9
		c0-11.5,8-21.4,19.2-23.9v-1.4c0-2.5,2-4.5,4.5-4.5h1.7c2.5,0,4.5,2,4.5,4.5V23c11.2,2.5,19.2,12.4,19.2,23.9v19.2
		c0,2.2,0.5,4.4,1.5,6.3l4.7,9.1c0.2,0.4,0.2,0.8,0,1.2C80.7,83.1,80.3,83.3,79.9,83.3z M22.7,80.8h55.2l-3.8-7.3
		c-1.2-2.3-1.8-4.9-1.8-7.4V46.9c0-10.7-7.6-19.8-18.1-21.7c-0.6-0.1-1-0.6-1-1.2v-2.4c0-1.1-0.9-2-2-2h-1.7c-1.1,0-2,0.9-2,2V24
		c0,0.6-0.4,1.1-1,1.2c-10.5,1.9-18.1,11-18.1,21.7v19.2c0,2.6-0.6,5.2-1.8,7.4L22.7,80.8z"/>
</g>
<g class="st0">
	<path class="st2" d="M71,36.2c0-10.3-8.4-18.7-18.8-18.7h-4.3C37.4,17.6,29,25.9,29,36.2v3.1c0,0.5,0.4,0.9,0.9,0.9l0,0
		c0.5,0,0.9-0.4,0.9-0.9v-3.1c0-9.3,7.6-16.9,17.1-16.9h4.3c9.4,0,17.1,7.6,17.1,16.9c0.1,4.3,0.1,11.1,0.1,13.3H29.9
		c-0.5,0-0.9,0.4-0.9,0.9v31.1c0,0.5,0.4,0.9,0.9,0.9h40.2c0.5,0,0.9-0.4,0.9-0.9v-31C71.1,48.9,71,38.4,71,36.2z M69.2,80.7H30.8
		V51.3h38.4V80.7z"/>
	<path class="st2" d="M50,69.7L50,69.7c0.5,0,0.9-0.4,0.9-0.9L51,58.7c0-0.5-0.4-0.9-0.9-0.9l0,0c-0.5,0-0.9,0.4-0.9,0.9l-0.1,10.1
		C49.1,69.3,49.5,69.7,50,69.7z"/>
</g>
<g class="st0">
	<path class="st3" d="M70.9,36.3c0-10.2-8.4-18.6-18.7-18.6h-4.3c-10.3,0-18.7,8.3-18.7,18.6c0,2.2-0.1,12.7,0,14.2v30.9
		c0,0.5,0.4,0.9,0.9,0.9h40c0.5,0,0.9-0.4,0.9-0.9V50.5C71,49,70.9,38.4,70.9,36.3z M30.9,36.3c0-9.3,7.6-16.8,17-16.8h4.3
		c9.4,0,17,7.5,17,16.8c0.1,4.3,0.1,11,0.1,13.3H30.8C30.8,47.3,30.8,40.6,30.9,36.3z M69.1,80.5H30.9V51.3h38.2V80.5z"/>
	<path class="st3" d="M50,69.6L50,69.6c0.5,0,0.9-0.4,0.9-0.9l0.1-10c0-0.5-0.4-0.9-0.9-0.9l0,0c-0.5,0-0.9,0.4-0.9,0.9l-0.1,10
		C49.1,69.2,49.5,69.6,50,69.6z"/>
</g>
<g id="ORGANITATIE_1_">
	<g class="st0">
		
			<linearGradient id="SVGID_1_" gradientUnits="userSpaceOnUse" x1="50.8433" y1="646.8875" x2="50.8433" y2="786.9146" gradientTransform="matrix(1 0 0 1 0 -668.49)">
			<stop  offset="0" style="stop-color:#53E9CB"/>
			<stop  offset="1" style="stop-color:#5AC8F9"/>
		</linearGradient>
		<path class="st4" d="M19.5,83.1c-0.9,0-1.5-0.7-1.5-1.5c0-14.2,5.7-22.7,10.5-27.2c2.8-2.6,5.5-4.3,7.4-5.3l0.9-0.4l-0.7-0.8
			c-2.6-3.3-4.1-7.3-4.1-11.6c0-10.3,8.4-18.7,18.7-18.7S69.5,26,69.5,36.4c0,4.3-1.4,8.3-4.1,11.7l-0.6,0.8l0.9,0.5
			c6.7,3.4,17.9,12.3,17.9,32.5c0,0.9-0.7,1.5-1.5,1.5H19.5V83.1z M38.9,51.1c-3.9,1.6-16.8,8.3-17.7,28L21.1,80h59.6v-0.9
			c-0.9-19.8-13.8-26.5-17.7-28l-0.4-0.2l-0.3,0.3c-3.2,2.5-7.2,3.7-11.2,3.7s-7.9-1.3-11.2-3.7l-0.3-0.3L38.9,51.1z M50.9,20.6
			c-8.7,0-15.7,7.1-15.7,15.7c0,8.7,7.1,15.7,15.7,15.7s15.7-7.1,15.7-15.7C66.6,27.6,59.6,20.6,50.9,20.6z"/>
	</g>
	<circle class="st5" cx="50.9" cy="36.3" r="17.5"/>
	<path class="st5" d="M62.4,49.4c-3.1,2.7-7.1,4.3-11.5,4.3s-8.4-1.6-11.5-4.3c-11.6,5.1-19.9,17.7-20,32.5h63.1
		C82.2,67.1,74,54.5,62.4,49.4z"/>
</g>
<g id="ZOEKEN_1_">
</g>
</svg>
