<svg xmlns="http://www.w3.org/2000/svg" viewBox="0 0 100 100"><path class="hide" d="M62.2 88.3c-1 0-1.8-0.8-1.8-1.8V63.9H39.6v22.7c0 1-0.8 1.8-1.8 1.8H13.5c-1 0-1.8-0.8-1.8-1.8V49.5l-4.5 3.9c-0.3 0.3-0.7 0.4-1.2 0.4 -0.5 0-1-0.2-1.3-0.6 -0.3-0.4-0.5-0.8-0.4-1.3 0-0.5 0.2-0.9 0.6-1.2l7-6.1 0.1-0.1c0.1-0.2 0.2-0.3 0.4-0.5l36.6-31.9c0.1-0.1 0.3-0.2 0.3-0.2l0.3-0.1 0.2 0 0.2 0 0.2 0 0.2 0 0.2 0 0.1 0 0.1 0 0.2 0.1L51 12c0 0 0.2 0.2 0.2 0.2L87.8 44c0.1 0.1 0.2 0.2 0.3 0.3l0.1 0.1 7 6.1c0.4 0.3 0.6 0.7 0.6 1.2 0 0.5-0.1 0.9-0.4 1.3 -0.3 0.4-0.8 0.6-1.3 0.6 -0.4 0-0.8-0.2-1.2-0.4l-4.4-3.8v37.2c0 1-0.8 1.8-1.8 1.8H62.2zM62.2 60.3c1 0 1.8 0.8 1.8 1.8v22.7h20.8V46.2L50 15.8 15.3 46.3v38.4h20.8V62.1c0-1 0.8-1.8 1.8-1.8H62.2z"/><polyline class="line" points="6 52.1 50 12.9 94 52.1 "/><polyline class="line" points="14 45 14 87 38 87 38 62 62 62 62 87 86 87 86 45 "/></svg>
