<?xml version="1.0" encoding="utf-8"?>
<!-- Generator: Adobe Illustrator 21.0.0, SVG Export Plug-In . SVG Version: 6.00 Build 0)  -->
<svg version="1.1" xmlns="http://www.w3.org/2000/svg" xmlns:xlink="http://www.w3.org/1999/xlink" x="0px" y="0px"
	 viewBox="0 0 100 100" style="enable-background:new 0 0 100 100;" xml:space="preserve">
<style type="text/css">
	.st0{display:none;fill:url(#SVGID_1_);}
	.st1{fill:none;stroke:#FFFFFF;stroke-width:3.7;stroke-linecap:round;stroke-linejoin:round;stroke-miterlimit:10;}
	.st2{display:none;}
	.st3{display:inline;fill:url(#SVGID_2_);}
	.st4{display:inline;fill:url(#SVGID_3_);}
	.st5{display:inline;}
	.st6{fill:url(#SVGID_4_);}
	.st7{fill:url(#SVGID_5_);}
	.st8{fill:#00FF00;}
	.st9{display:none;fill:none;stroke:#FFFFFF;stroke-width:3.7;stroke-linecap:round;stroke-linejoin:round;stroke-miterlimit:10;}
	.st10{fill:none;stroke:#FFFFFF;stroke-width:3.7;stroke-miterlimit:10;}
	.st11{fill:#0000FF;}
	.st12{fill:#00FFFF;}
	.st13{fill:#35424B;}
</style>
<g id="HOME">
</g>
<g id="ORGANITATIE">
</g>
<g id="DOCUMENTEN">
</g>
<g id="OBJECTEN">
</g>
<g id="EISEN">
</g>
<g id="ACTIVITEITEN">
</g>
<g id="VERIFICATIES">
</g>
<g id="PROJECTCONTROLE">
</g>
<g id="RISICOS">
</g>
<g id="INTERACTIEF">
</g>
<g id="ZOEKEN">
	<g class="st2">
		<g class="st5">
			<path class="st13" d="M43.7,74.7c-17,0-30.8-13.8-30.8-30.8c0-17,13.8-30.8,30.8-30.8c17,0,30.8,13.8,30.8,30.8
				C74.5,60.9,60.7,74.7,43.7,74.7L43.7,74.7z M43.7,16.3c-15.2,0-27.6,12.4-27.6,27.6c0,15.2,12.4,27.6,27.6,27.6
				c15.2,0,27.6-12.4,27.6-27.6C71.3,28.7,58.9,16.3,43.7,16.3L43.7,16.3z"/>
		</g>
		<g class="st5">
			<path class="st13" d="M25.4,43.9h-3.3c0-11.9,9.7-21.5,21.5-21.5v3.3C33.6,25.6,25.4,33.8,25.4,43.9L25.4,43.9z"/>
		</g>
		<g class="st5">
			<path class="st13" d="M82.4,85.5c-0.4,0-0.8-0.2-1.2-0.5L63.1,66.9c-0.6-0.6-0.6-1.7,0-2.3c0.6-0.6,1.7-0.6,2.3,0l18.1,18.1
				c0.6,0.6,0.6,1.7,0,2.3C83.2,85.3,82.8,85.5,82.4,85.5L82.4,85.5z"/>
		</g>
	</g>
	<circle class="st10" cx="44" cy="44" r="29"/>
	<line class="st1" x1="64" y1="65" x2="85.5" y2="86.5"/>
</g>
</svg>
