<?xml version="1.0" encoding="utf-8"?>
<!-- Generator: Adobe Illustrator 21.1.0, SVG Export Plug-In . SVG Version: 6.00 Build 0)  -->
<svg version="1.1" id="sync" xmlns="http://www.w3.org/2000/svg" xmlns:xlink="http://www.w3.org/1999/xlink" x="0px" y="0px"
	 viewBox="0 0 100 100" style="enable-background:new 0 0 100 100;" xml:space="preserve">
<style type="text/css">
	.st0{fill:none;stroke:#000000;stroke-width:3.7;stroke-miterlimit:10;}
</style>
<path class="st0" d="M24.7,24.7c1.6-1.6,3.4-3.1,5.3-4.4c1.9-1.3,3.9-2.4,6.1-3.3c2.1-0.9,4.4-1.6,6.7-2.1c2.3-0.5,4.7-0.7,7.2-0.7
	s4.9,0.3,7.2,0.7c2.3,0.5,4.6,1.2,6.7,2.1c2.1,0.9,4.2,2,6.1,3.3c1.9,1.3,3.7,2.7,5.3,4.4c1.6,1.6,3.1,3.4,4.4,5.3
	c1.3,1.9,2.4,3.9,3.3,6.1c0.9,2.1,1.6,4.4,2.1,6.7c0.5,2.3,0.7,4.7,0.7,7.2s-0.2,4.9-0.7,7.2c-0.5,2.3-1.2,4.6-2.1,6.7 M17.1,36
	c-0.9,2.1-1.6,4.4-2.1,6.7c-0.5,2.3-0.7,4.7-0.7,7.2s0.3,4.9,0.7,7.2c0.5,2.3,1.2,4.6,2.1,6.7s2,4.2,3.3,6.1
	c1.3,1.9,2.7,3.7,4.4,5.3c1.6,1.6,3.4,3.1,5.3,4.4c1.9,1.3,3.9,2.4,6.1,3.3s4.4,1.6,6.7,2.1c2.3,0.5,4.7,0.7,7.2,0.7
	s4.9-0.2,7.2-0.7c2.3-0.5,4.6-1.2,6.7-2.1s4.2-2,6.1-3.3c1.9-1.3,3.7-2.7,5.3-4.4 M23.1,11.3v16.4 M37.6,26.4H21.2 M76.8,72.3v16.4
	 M62.2,73.6h16.4"/>
</svg>
