<?xml version="1.0" encoding="utf-8"?>
<!-- Generator: Adobe Illustrator 21.1.0, SVG Export Plug-In . SVG Version: 6.00 Build 0)  -->
<svg version="1.1" id="Laag_1" xmlns="http://www.w3.org/2000/svg" xmlns:xlink="http://www.w3.org/1999/xlink" x="0px" y="0px"
	 viewBox="0 0 229.9 183.5" style="enable-background:new 0 0 229.9 183.5;" xml:space="preserve">
<style type="text/css">
	.st0{fill:#FFFFFF;}
</style>
<g>
	<polygon class="st0" points="0,132.5 7.3,158.5 85.6,183.5 68.8,154.8 	"/>
	<path class="st0" d="M203.3,48.7c-8.8-1.8-21.6,1.7-28.6,7.8c-27,23.5-99.6,97.3-99.6,97.3l16,28.3c0,0,62.3-63.4,62.3-63.4
		c-1.7,1.7,9.4,14.4,11.1,15.9c12.2,10.6,30.1,6.4,42.7-1C234.8,117.6,241.4,56.4,203.3,48.7z"/>
	<path class="st0" d="M139.6,77.8c40.9-40.9,53.1-38,53.1-38s-9.8-4.4-23.1-10.1c1.4-3,2.5-5.9,3.2-8.6c3.1-11.5-0.9-16.6-3.5-18.7
		c-2.6-2.1-8.6-4.6-19,1.2c-4.9,2.7-9.9,6.8-14.6,11.9c-0.3-0.1-0.5-0.2-0.8-0.3C108.5,4.4,91.6,27.8,91.6,27.8L0,127.2l69.7,22.7
		C69.7,149.9,98.7,118.7,139.6,77.8z M155.1,11.8c4.4-2.5,7.5-2.7,8.5-2c1,0.8,1.5,3.8,0.2,8.7c-0.6,2.3-1.6,4.8-2.8,7.3
		c-5-2.1-10.3-4.4-15.6-6.6C148.6,16.2,151.9,13.6,155.1,11.8z M67.8,64.8L67.8,64.8c2.2-2.4,5.6-3.4,8.8-2.5l32,9.1
		c6.4,1.8,8.5,9.7,3.8,14.5c0,0-0.1,0.1-0.1,0.1c-2.2,2.3-5.5,3.1-8.6,2.3l-31.9-9.2C65.6,77.3,63.4,69.6,67.8,64.8z"/>
</g>
</svg>
