<?xml version="1.0" encoding="utf-8"?>
<!-- Generator: Adobe Illustrator 21.1.0, SVG Export Plug-In . SVG Version: 6.00 Build 0)  -->
<svg version="1.1" id="Laag_1" xmlns="http://www.w3.org/2000/svg" xmlns:xlink="http://www.w3.org/1999/xlink" x="0px" y="0px"
	 viewBox="0 0 168.2 181.4" style="enable-background:new 0 0 168.2 181.4;" xml:space="preserve">
<style type="text/css">
	.st0{fill:#FFFFFF;}
</style>
<path class="st0" d="M106.8,0c0.1,0.1,0.2,0.2,0.4,0.3c2.3,0.8,3.4,2.5,3.4,4.9c0,15.8,0,31.5,0,47.3c0,3.2-2,5.1-5.2,5.1
	c-14.2,0-28.3,0-42.5,0c-3.3,0-5.2-2-5.2-5.2c0-15.3,0.1-30.6,0-45.9c0-3.1,0.8-5.3,3.8-6.4C76.6,0,91.7,0,106.8,0z M84,8.9
	c7,0,13.9,0,20.9,0c3.3,0,3.3,0,3.3-3.3c0-2.4-0.9-3.3-3.3-3.3c-12.7,0-25.4,0-38,0c-1.5,0-3,0-4.4,0c-1.5,0-2.5,1-2.6,2.6
	c0,0.9,0,1.8,0,2.8c-0.1,0.9,0.2,1.2,1.2,1.2C68.8,8.9,76.4,8.9,84,8.9z"/>
<path class="st0" d="M3.8,181.4c-1-0.7-2.2-1.3-3-2.3c-0.6-0.7-0.8-1.8-0.8-2.7c0-15.9,0-31.8,0-47.6c0-2.9,2-4.9,4.9-4.9
	c14.3,0,28.6,0,43,0c3.1,0,5.1,2.1,5.1,5.3c0,7.1,0,14.2,0,21.4c0,8.2-0.1,16.5,0,24.7c0,3.1-1,5.2-4,6.1
	C33.9,181.4,18.9,181.4,3.8,181.4z M7.1,126.3c-0.5,0-0.7-0.1-0.9-0.1c-3-0.1-3.7,0.7-3.7,3.7c0,8,0,16.1,0,24.1
	c0,7.4,0,14.8,0,22.2c0,1.9,0.9,2.9,2.9,2.9c1,0,1.9,0,2.9,0c1.4,0,2.8,0,4.1,0c0-13.5,0-26.7,0-39.9c-0.7-0.1-1.4-0.1-2-0.2
	c-2-0.2-2.8-1-3.1-3c-0.1-1-0.1-2.1-0.1-3.1C7,130.7,7.1,128.5,7.1,126.3z M42.3,138.5c0,13.6,0,27,0,40.6c1.7,0,3.3,0,5,0
	c2.5,0,3.4-0.9,3.4-3.4c0-11.9,0-23.9,0-35.8c0-0.4,0-0.9,0-1.3C47.8,138.5,45.1,138.5,42.3,138.5z"/>
<path class="st0" d="M119,181.4c-1.8-0.7-3.3-1.7-3.7-3.8c-0.1-0.5-0.1-0.9-0.1-1.4c0-15.7,0-31.4,0-47.2c0-3.2,2-5.2,5.1-5.2
	c14.2,0,28.4,0,42.6,0c3.2,0,5.2,2,5.2,5.2c0,15.7,0,31.4,0,47.2c0,2.7-1.5,4.3-4,5.2C149.1,181.4,134.1,181.4,119,181.4z
	 M156,139.1c0,13.3,0,26.6,0,39.9c2.3,0,4.5,0,6.8,0c2.2,0,3.1-0.9,3.1-3.1c0-3.9,0-7.8,0-11.8c0-11.6,0-23.2,0-34.8
	c0-1.8-0.8-3-2.3-3.1c-0.7-0.1-1.5,0-2.2,0c-0.1,0.3-0.1,0.4-0.1,0.5c0,2.4,0,4.7,0,7.1C161.2,138.1,160.4,139,156,139.1z
	 M125.9,179.1c0-13.6,0-27.1,0-40.6c-2.8,0-5.5,0-8.3,0c0,0.5,0,1,0,1.5c0,11.7,0,23.4,0,35.1c0,0.6,0,1.1,0,1.7
	c0.1,1.2,1,2.2,2.2,2.3C121.8,179.1,123.8,179.1,125.9,179.1z"/>
<path class="st0" d="M49.2,0c0.5,0.3,1,0.5,1.5,0.8c1.6,1,2.3,2.5,2.3,4.4c0,15.8,0,31.5,0,47.3c0,3.2-2.1,5.1-5.2,5.1
	c-14.2,0-28.3,0-42.5,0c-3.3,0-5.2-2-5.2-5.2C0,36.9,0.1,21.6,0,6.2C0,3.2,0.9,1.1,3.8,0C19,0,34.1,0,49.2,0z M2.4,28.7
	c0,7.9,0,15.8,0,23.6c0,1.9,0.9,2.9,2.9,2.9c6.6,0,13.1,0,19.7,0c0.4,0,1-0.1,1.3-0.4c2.1-1.6,4.2-3.2,6.2-4.9
	c2.1-1.9,3.8-4.2,3.9-7.2c0.2-3.9,0.1-7.8,0.3-11.6c0.1-3.3,0.2-6.6,0.8-9.8c1-5.7,4.3-9.7,10-11.4c1.1-0.3,2.7-0.3,3.1-1
	c0.6-0.8,0.2-2.3,0.2-3.5c0-2.1-1-3-3.1-3c-14,0-28.1,0-42.1,0c-2.2,0-3.1,0.9-3.1,3C2.4,13.2,2.4,20.9,2.4,28.7z"/>
<path class="st0" d="M164.4,0c0.1,0.1,0.2,0.2,0.4,0.3c2.3,0.8,3.4,2.5,3.4,4.9c0,15.8,0,31.6,0,47.4c0,3-2.1,5-5.1,5
	c-14.2,0-28.5,0-42.7,0c-3.2,0-5.1-2-5.1-5.2c0-15.3,0.1-30.6,0-45.9c0-3.1,0.8-5.3,3.8-6.4C134.2,0,149.3,0,164.4,0z M117.6,9.1
	c0.5,0.1,0.9,0.2,1.3,0.3c3,0.6,5.8,1.8,8,4c3.1,3.1,4.3,7.1,4.6,11.3c0.3,5.4,0.5,10.9,0.4,16.3c0,3.4,1.1,6.1,3.5,8.4
	c2,1.9,4.1,3.5,6.3,5.2c0.5,0.4,1.4,0.7,2.1,0.7c6.3,0.1,12.6,0,18.9,0c2.3,0,3.2-0.9,3.2-3.3c0-15.4,0-30.9,0-46.3
	c0-2.4-0.9-3.3-3.2-3.3c-11.5,0-23,0-34.5,0c-2.6,0-5.3,0-7.9,0c-1.5,0-2.5,1-2.6,2.6C117.5,6.3,117.6,7.6,117.6,9.1z"/>
<path class="st0" d="M61.4,181.4c-1.7-0.7-3.2-1.6-3.6-3.6c-0.1-0.5-0.2-0.9-0.2-1.4c0-15.8,0-31.6,0-47.4c0-3,2-5.1,5-5.1
	c14.2,0,28.5,0,42.7,0c3.2,0,5.2,2,5.2,5.3c0,9.3,0,18.6,0,28c0,6-0.1,12,0,18c0.1,3.1-0.9,5.3-4,6.2
	C91.5,181.4,76.5,181.4,61.4,181.4z M108.3,138.5c-16.2,0-32.2,0-48.3,0c0,0.6,0,1.1,0,1.6c0,11.9,0,23.8,0,35.6
	c0,2.5,0.8,3.3,3.3,3.3c13.8,0,27.7,0,41.5,0c2.7,0,3.5-0.8,3.5-3.5c0-11.9,0-23.8,0-35.6C108.3,139.5,108.3,139.1,108.3,138.5z"/>
<path class="st0" d="M57.6,90.7c0-7.8,0-15.7,0-23.5c0-3.2,1.9-5.2,5.1-5.2c14.2,0,28.4,0,42.6,0c3.2,0,5.2,2,5.2,5.2
	c0,15.8,0,31.5,0,47.3c0,3-2,5.1-5,5.1c-14.3,0-28.5,0-42.8,0c-3.1,0-5-2.1-5-5.2C57.6,106.4,57.6,98.5,57.6,90.7z"/>
<path class="st0" d="M0,90.6C0,82.8,0,75,0,67.2C0,63.9,2,62,5.3,62c14.2,0,28.3,0,42.5,0c3.2,0,5.2,2,5.2,5.2c0,15.7,0,31.4,0,47.2
	c0,3.2-2,5.2-5.2,5.2c-14.2,0-28.4,0-42.6,0c-3.2,0-5.1-2-5.1-5.2C0,106.4,0,98.5,0,90.6z M14.1,64.3c-3.1,0-5.9,0-8.7,0
	c-2.2,0-3.1,0.9-3.1,3.1c0,8,0,15.9,0,23.9c0,7.7,0,15.4,0,23.2c0,1.7,1,2.7,2.6,2.8c0.6,0,1.3,0,1.9,0c0-0.3,0.1-0.4,0.1-0.6
	c0-11.3,0.1-22.6-0.1-34c-0.1-6.4,1.8-11.9,5.9-16.8C13.2,65.4,13.6,65,14.1,64.3z"/>
<path class="st0" d="M115.2,90.7c0-7.8,0-15.7,0-23.5c0-3.3,1.9-5.3,5.2-5.3c14.2,0,28.3,0,42.5,0c3.3,0,5.2,2,5.2,5.2
	c0,15.7,0,31.4,0,47.1c0,3.1-2,5.1-5.1,5.1c-14.2,0-28.5,0-42.7,0c-3.2,0-5.1-2-5.1-5.2C115.2,106.4,115.2,98.6,115.2,90.7z
	 M154,64.3c0.5,0.6,0.8,0.9,1.1,1.3c3.7,4.2,6,9,6.1,14.6c0.1,11.2,0,22.5,0,33.7c0,1.1,0,2.1,0,3.4c1.3-0.2,2.4-0.2,3.3-0.6
	c1.2-0.5,1.3-1.8,1.3-3c0-15.4,0-30.9,0-46.3c0-0.2,0-0.5,0-0.7c-0.1-1.4-1.1-2.4-2.5-2.4C160.3,64.2,157.3,64.3,154,64.3z"/>
</svg>
