<?xml version="1.0" encoding="utf-8"?>
<!-- Generator: Adobe Illustrator 21.1.0, SVG Export Plug-In . SVG Version: 6.00 Build 0)  -->
<svg version="1.1" id="Layer_1" xmlns="http://www.w3.org/2000/svg" xmlns:xlink="http://www.w3.org/1999/xlink" x="0px" y="0px"
	 viewBox="0 0 170 170" style="enable-background:new 0 0 170 170;" xml:space="preserve">
<style type="text/css">
	.st0{display:none;fill:#FFFFFF;}
	.st1{fill:#B1B3B4;}
</style>
<g>
	<g>
		<polygon class="st0" points="9.8,10.8 161.1,10.8 161.1,162 9.8,162 		"/>
		<path class="st1" d="M132.7,128.5c0,0,0,0.2,0-18.3h-7.5c0,18.3,0,18.3,0,18.3H132.7L132.7,128.5z"/>
		<path class="st1" d="M92.6,120.9v-10.5h-7.3v8c0,2.3-0.2,3-0.2,3.6c-0.5,1.6-2.3,2.5-4.1,2.5c-2.5,0-3.7-0.9-4.1-2.5
			c-0.2-0.5-0.2-1.1-0.2-1.6c0-0.5,0-1.2,0-2v-7.8h-7.5v10.5c0,2.3,0.7,4.1,2.1,5.3c2.3,2.1,6,2.8,9.4,2.8c4.3,0,7.5-0.5,9.8-2.8
			C91.8,125,92.6,123.5,92.6,120.9L92.6,120.9z"/>
		<path class="st1" d="M56.7,119.6c-0.2,0-0.7-0.2-1.1-0.2h-8.4c-0.4,0-0.9,0-1.1,0.2c0.2-0.2,0.4-0.4,0.7-0.7l3.7-6.2
			c0.5-0.9,0.7-1.4,0.9-1.6c0.2,0.2,0.4,0.7,0.9,1.6l3.9,6.2C56.4,119.1,56.5,119.5,56.7,119.6L56.7,119.6z M70.8,128.5l-16.7-25.1
			h-9.4l2.5,2.8l0.2,0.2c-0.2,0-0.2,0.2-0.2,0.2l-14.6,21.9h8.4l2.3-3.7c0.2-0.2,0.2-0.4,0.2-0.5c0.2,0,0.4,0.2,0.5,0.2H59
			c0.2,0,0.4,0,0.5-0.2c0,0.2,0,0.2,0.2,0.4l2.3,3.9H70.8L70.8,128.5z"/>
		<path class="st1" d="M123.1,119.1c0-2-0.9-4.4-3.4-7.6l-6.2-8h-8.7l5,5.5c0.9,0.9,2,1.8,2,1.8c-1.2-0.7-2.7-0.9-3.9-0.9
			c-2.8,0-5.9,0.5-8.4,2c-2.8,1.6-4.6,4.1-4.6,7.5c0,2.7,1.2,4.6,2.7,6c3.4,3.4,9.4,3.7,11.6,3.7c3.4,0,8.4-0.7,11.4-3.4
			C122,124.1,123.1,121.9,123.1,119.1L123.1,119.1z M116,119.3c0,2-1.2,3.4-2.8,4.1c-1.2,0.7-2.8,0.9-4.1,0.9s-2.8-0.4-4.3-0.9
			c-1.6-0.7-2.8-2.3-2.8-3.9c0-2,1.6-3.6,3.4-4.3c1.1-0.5,2.5-0.7,3.6-0.7c1.1,0,2.5,0.2,3.7,0.5C114.5,115.7,116,117.5,116,119.3
			L116,119.3z"/>
		<path class="st1" d="M130.4,43.7c-5.7,0-10.9,2-14.9,5.2c-4.1-3.2-9.2-5.2-14.9-5.2s-10.9,2-14.9,5.2c-4.1-3.2-9.2-5.2-14.9-5.2
			c-5.7,0-10.9,2-14.9,5.2c-4.1-3.2-9.2-5.2-14.9-5.2c-13.3,0-24.2,10.9-24.2,24.2s10.9,24.2,24.2,24.2c5.7,0,10.9-2,14.9-5.2
			c4.1,3.2,9.2,5.2,14.9,5.2c5.7,0,10.9-2,14.9-5.2c4.1,3.2,9.2,5.2,14.9,5.2s10.9-2,14.9-5.2c4.1,3.2,9.2,5.2,14.9,5.2
			c13.3,0,24.2-10.9,24.2-24.2C154.4,54.5,143.5,43.7,130.4,43.7L130.4,43.7z M51.6,82.8c-3,2.3-6.9,3.6-11,3.6
			c-10.3,0-18.7-8.4-18.7-18.7S30.2,49,40.5,49c4.1,0,8,1.4,11,3.6c-3.2,4.1-5.2,9.2-5.2,14.9C46.4,73.6,48.4,78.7,51.6,82.8
			L51.6,82.8z M55.5,78.9c-2.3-3-3.6-6.9-3.6-11c0-4.1,1.4-8,3.6-11c2.3,3,3.6,6.9,3.6,11C59.2,72,57.8,75.9,55.5,78.9L55.5,78.9z
			 M81.4,82.8c-3,2.3-6.9,3.6-11,3.6c-4.1,0-7.8-1.4-11-3.6c3.2-4.1,5.2-9.2,5.2-14.9c0-5.7-2-10.9-5.2-14.9c3-2.3,6.9-3.6,11-3.6
			c4.1,0,8,1.2,11,3.6c-3.2,4.1-5.2,9.2-5.2,14.9S78.2,78.7,81.4,82.8L81.4,82.8z M85.4,78.9c-2.3-3-3.6-6.9-3.6-11
			c0-4.1,1.4-8,3.6-11c2.3,3,3.6,6.9,3.6,11C89.1,72,87.7,75.9,85.4,78.9L85.4,78.9z M111.3,82.8c-3,2.3-6.9,3.6-11,3.6
			c-4.1,0-7.8-1.4-11-3.6c3.2-4.1,5.2-9.2,5.2-14.9c0-5.7-2-10.9-5.2-14.9c3-2.3,6.9-3.6,11-3.6c4.1,0,8,1.2,11,3.6
			c-3.2,4.1-5.2,9.2-5.2,14.9C106.2,73.6,108.1,78.7,111.3,82.8L111.3,82.8z M115.4,78.9c-2.3-3-3.6-6.9-3.6-11c0-4.1,1.4-8,3.6-11
			c2.3,3,3.6,6.9,3.6,11S117.6,75.9,115.4,78.9L115.4,78.9z M130.4,86.4c-4.1,0-8-1.4-11-3.6c3.2-4.1,5.2-9.2,5.2-14.9
			c0-5.7-2-10.9-5.2-14.9c3-2.3,6.9-3.6,11-3.6c10.3,0,18.7,8.4,18.7,18.7C148.9,78.2,140.5,86.4,130.4,86.4L130.4,86.4z"/>
	</g>
</g>
</svg>
