<?xml version="1.0" encoding="utf-8"?>
<!-- Generator: Adobe Illustrator 19.1.0, SVG Export Plug-In . SVG Version: 6.00 Build 0)  -->
<!DOCTYPE svg PUBLIC "-//W3C//DTD SVG 1.1//EN" "http://www.w3.org/Graphics/SVG/1.1/DTD/svg11.dtd">
<svg version="1.1" id="Layer_1" xmlns="http://www.w3.org/2000/svg" xmlns:xlink="http://www.w3.org/1999/xlink" x="0px" y="0px"
	 viewBox="0 0 170 170" enable-background="new 0 0 170 170" xml:space="preserve">
<g>
	<rect x="25.6" y="144" fill="none" width="117.3" height="1.5"/>
	<path fill="#B1B3B4" d="M142.9,145.5V144H25.6v1.5H142.9z"/>
	<path fill="none" d="M21.4,116H10v1.8h1.4c0.4,0,0.9,0.6,0.9,1v4.3h7v-5.3h2V116z"/>
	<path fill="#B1B3B4" d="M21.4,116H10v1.8h1.4c0.4,0,0.9,0.6,0.9,1v4.3h7v-5.3h2V116z"/>
	<g>
		<path fill="none" d="M55.1,139.6H35.6v-1.8H37c0.4,0,0.9-0.5,0.9-0.8v-18.2c0-0.4-0.6-1-0.9-1h-1.4V116h18.8v6h-3.5v-3.3
			c0-0.5-0.5-1-1-1h-4c-0.4,0-0.9,0.4-0.9,0.8v6.8c0,0.4,0.3,0.8,0.7,0.8h1.2c0.4,0,1-0.7,1-1v-1.5h3.4v7.1h-3.5v-1.5
			c0-0.4-0.6-1-0.9-1h-1.2c-0.4,0-0.7,0.3-0.7,0.7v7.9c0,0.4,0.6,0.9,0.9,0.9H50c0.9,0,1.4-1.2,1.4-2.3v-3h3.8V139.6z"/>
		<path fill="#B1B3B4" d="M55.1,139.6v-7.1h-3.8v3c0,1-0.5,2.3-1.4,2.3h-4.1c-0.4,0-0.9-0.5-0.9-0.9V129c0-0.4,0.3-0.7,0.7-0.7h1.2
			c0.4,0,0.9,0.6,0.9,1v1.5h3.5v-7.1h-3.4v1.5c0,0.4-0.6,1-1,1h-1.2c-0.4,0-0.7-0.4-0.7-0.8v-6.8c0-0.4,0.6-0.8,0.9-0.8h4
			c0.5,0,1,0.5,1,1v3.3h3.5v-6H35.5v1.8H37c0.4,0,0.9,0.6,0.9,1V137c0,0.4-0.6,0.8-0.9,0.8h-1.4v1.8H55.1z"/>
		<path fill="none" d="M62.1,125v11.9c0,0.4,0.6,0.9,0.9,0.9h1.4v1.8h-7.7v-1.8h1.4c0.4,0,0.9-0.5,0.9-0.9v-18.2
			c0-0.4-0.6-0.9-0.9-0.9h-1.4V116h8.7l8.4,15v-12.3c0-0.4-0.6-0.9-0.9-0.9h-1.4V116h7.7v1.8h-1.4c-0.4,0-0.9,0.5-0.9,0.9v20.9h-6.9
			L62.1,125z"/>
		<path fill="#B1B3B4" d="M62.1,125l7.8,14.5h6.9v-20.9c0-0.4,0.6-0.9,0.9-0.9h1.4V116h-7.7v1.8h1.4c0.4,0,0.9,0.5,0.9,0.9V131
			l-8.4-15h-8.7v1.8h1.4c0.4,0,0.9,0.6,0.9,0.9v18.2c0,0.4-0.6,0.9-0.9,0.9h-1.4v1.8h7.7v-1.8h-1.4c-0.4,0-0.9-0.5-0.9-0.9V125z"/>
		<path fill="none" d="M84.6,124.5L80.8,137c-0.1,0.4-0.4,0.8-0.7,0.8h-1.5v1.8h7.2l0-1.8h-1.4c-0.4,0-0.8-0.4-0.7-0.8l1.5-5.6
			c0-0.1,0.1-0.3,0.3-0.3h2.9V129l-2.1,0c-0.1,0-0.3-0.1-0.3-0.3l1.2-4.2H84.6z"/>
		<path fill="#B1B3B4" d="M84.6,124.5L80.8,137c-0.1,0.4-0.4,0.8-0.7,0.8h-1.5v1.8h7.2l0-1.8h-1.4c-0.4,0-0.8-0.4-0.7-0.8l1.5-5.6
			c0-0.1,0.1-0.3,0.3-0.3h2.9V129l-2.1,0c-0.1,0-0.3-0.1-0.3-0.3l1.2-4.2H84.6z"/>
		<path fill="none" d="M88.4,131.2h2.7c0.1,0,0.3,0.1,0.3,0.3l1.5,5.6c0.1,0.4-0.3,0.8-0.7,0.8h-1.4l0,1.8h11.8v-1.8h-1.5
			c-0.4,0-0.6-0.4-0.7-0.8l-6.2-21H83.8v1.8H85c1.1,0,1.5,0.8,1.3,1.6l-1.6,5.2h2.5l1.1-4l2.3,8.1c0,0.1-0.2,0.3-0.3,0.3h-2V131.2z"
			/>
		<path fill="#B1B3B4" d="M88.4,131.2h2.7c0.1,0,0.3,0.1,0.3,0.3l1.5,5.6c0.1,0.4-0.3,0.8-0.7,0.8h-1.4l0,1.8h11.8v-1.8h-1.5
			c-0.4,0-0.6-0.4-0.7-0.8l-6.2-21H83.8v1.8H85c1.1,0,1.5,0.8,1.3,1.6l-1.6,5.2h2.5l1.1-4l2.3,8.1c0,0.1-0.2,0.3-0.3,0.3h-2V131.2z"
			/>
		<path fill="none" d="M120.3,134.1l0-15.3c0-0.4,0.6-1,0.9-1h1.4V116h-7.2v1.8h1.4c0.4,0,0.9,0.6,0.9,1l0,15.4
			c0,4.2-7.6,4.7-7.7-0.2v-15.3c0-0.4,0.6-0.9,0.9-0.9h1.4V116h-11.7v1.8h1.4c0.4,0,0.9,0.6,0.9,1v15.4
			C103.2,141.8,120.3,142.2,120.3,134.1z"/>
		<path fill="#B1B3B4" d="M120.3,134.1l0-15.3c0-0.4,0.6-1,0.9-1h1.4V116h-7.2v1.8h1.4c0.4,0,0.9,0.6,0.9,1l0,15.4
			c0,4.2-7.6,4.7-7.7-0.2v-15.3c0-0.4,0.6-0.9,0.9-0.9h1.4V116h-11.7v1.8h1.4c0.4,0,0.9,0.6,0.9,1v15.4
			C103.2,141.8,120.3,142.2,120.3,134.1z"/>
		<path fill="none" d="M133.7,118.7c0-0.4,0.6-0.9,0.9-0.9h1.4V116h-11.8v1.8h1.4c0.4,0,0.9,0.6,0.9,0.9v18.2c0,0.4-0.6,0.9-0.9,0.9
			h-1.2v1.8h18.3v-7.1h-3.8v3c0,1-0.5,2.3-1.4,2.3h-3.1c-0.4,0-0.9-0.5-0.9-0.9L133.7,118.7z"/>
		<path fill="#B1B3B4" d="M133.7,118.7c0-0.4,0.6-0.9,0.9-0.9h1.4V116h-11.8v1.8h1.4c0.4,0,0.9,0.6,0.9,0.9v18.2
			c0,0.4-0.6,0.9-0.9,0.9h-1.2v1.8h18.3v-7.1h-3.8v3c0,1-0.5,2.3-1.4,2.3h-3.1c-0.4,0-0.9-0.5-0.9-0.9L133.7,118.7z"/>
		<path fill="none" d="M150.2,139.6h5.9v-1.8h-1.4c-0.4,0-0.9-0.5-0.9-0.9l0-18.7c0-0.2,0.2-0.4,0.4-0.4c1.7,0.1,2.4,0.6,2.4,3v2.2
			h3.4V116h-9.8h-9.8v6.9h3.4v-2.2c0-2.3,0.7-2.9,2.4-3c0.2,0,0.4,0.2,0.4,0.4l0,18.7c0,0.4-0.6,0.9-0.9,0.9h-1.4v1.8H150.2z"/>
		<path fill="#B1B3B4" d="M150.2,139.6h5.9v-1.8h-1.4c-0.4,0-0.9-0.5-0.9-0.9l0-18.7c0-0.2,0.2-0.4,0.4-0.4c1.7,0.1,2.4,0.6,2.4,3
			v2.2h3.4V116h-9.8h-9.8v6.9h3.4v-2.2c0-2.3,0.7-2.9,2.4-3c0.2,0,0.4,0.2,0.4,0.4l0,18.7c0,0.4-0.6,0.9-0.9,0.9h-1.4v1.8H150.2z"/>
		<path fill="none" d="M20.1,128.1c0.3,0,0.7,0.3,0.8,0.6l0,0l4.8,10.8h8.2v-1.8h-0.6c-0.5,0-0.7-0.6-1-1.1l-5-8.7
			c3,0,4.5-2.4,4.6-5.6c0-3.2-1.5-6.4-5.2-6.4h-5.3v1.8H22c3.3,0,3.3,8.5,0,8.5h-2.7v-3.3h-7V137c0,0.4-0.6,0.8-0.9,0.8H10v1.8h11.7
			v-1.8h-1.4c-0.4,0-0.9-0.5-0.9-0.9l0-8.8L20.1,128.1L20.1,128.1z"/>
		<path fill="#B1B3B4" d="M20.1,128.1c0.3,0,0.7,0.3,0.8,0.6l0,0l4.8,10.8h8.2v-1.8h-0.6c-0.5,0-0.7-0.6-1-1.1l-5-8.7
			c3,0,4.5-2.4,4.6-5.6c0-3.2-1.5-6.4-5.2-6.4h-5.3v1.8H22c3.3,0,3.3,8.5,0,8.5h-2.7v-3.3h-7V137c0,0.4-0.6,0.8-0.9,0.8H10v1.8h11.7
			v-1.8h-1.4c-0.4,0-0.9-0.5-0.9-0.9l0-8.8L20.1,128.1L20.1,128.1z"/>
	</g>
	<path fill="none" d="M85.5,85.7l-7.2,12.4c-0.2,0.4-0.8,0.1-0.7-0.4l6-13.7L71.7,63.4l-16.3,0c0,0.2,0.2,0.5,0.2,0.6l20.9,36.3
		c0.1,0.2,0.4,0.5,0.7,0.5h15.5c0.3,0,0.6-0.2,0.6-0.3l21-36.4c0.1-0.1,0.2-0.4,0.4-0.9H98.5L85,86.5L85.5,85.7z"/>
	<path fill="#B1B3B4" d="M85.5,85.7l-7.2,12.4c-0.2,0.4-0.8,0.1-0.7-0.4l6-13.7L71.7,63.4l-16.3,0c0,0.2,0.2,0.5,0.2,0.6l20.9,36.3
		c0.1,0.2,0.4,0.5,0.7,0.5h15.5c0.3,0,0.6-0.2,0.6-0.3l21-36.4c0.1-0.1,0.2-0.4,0.4-0.9H98.5L85,86.5L85.5,85.7z"/>
	<path fill="none" d="M96.1,63.2h18.4c0.3,0,0.5-0.2,0.5-0.5c0-0.5-0.1-1-0.3-1.4L93.8,25c-0.2-0.4-0.7-0.6-1.1-0.5H77.3
		c-0.4,0-0.9,0.2-1.2,0.5l0,0L55.3,61.4c-0.3,0.4-0.4,1-0.4,1.6c0,0.3,0.2,0.5,0.5,0.6l0,0h18.6l10.6,18.3c0.1,0.3,0.5,0.3,0.7,0.2
		c0.1,0,0.1-0.1,0.2-0.2L96.1,63.2C96.1,63.3,96.1,63.3,96.1,63.2z M95.2,62.8L85,80.5L74.8,62.9L85,45.2L95.2,62.8z M73.9,62.4H56
		c0.1-0.2,0.1-0.4,0.2-0.5L77,25.6l0.1-0.1c0,0,0.1,0,0.1,0c0.1,0,15.5,0,15.5,0c0,0,0.1,0,0.1,0l21,36.3c0.1,0.1,0.1,0.2,0.1,0.3
		H96L85.5,43.9c-0.1-0.3-0.5-0.3-0.7-0.2c-0.1,0-0.1,0.1-0.2,0.2L73.9,62.4z"/>
	<path fill="#B1B3B4" d="M96.1,63.2h18.4c0.3,0,0.5-0.2,0.5-0.5c0-0.5-0.1-1-0.3-1.4L93.8,25c-0.2-0.4-0.7-0.6-1.1-0.5H77.3
		c-0.4,0-0.9,0.2-1.2,0.5l0,0L55.3,61.4c-0.3,0.4-0.4,1-0.4,1.6c0,0.3,0.2,0.5,0.5,0.6l0,0h18.6l10.6,18.3c0.1,0.3,0.5,0.3,0.7,0.2
		c0.1,0,0.1-0.1,0.2-0.2L96.1,63.2C96.1,63.3,96.1,63.3,96.1,63.2z M95.2,62.8L85,80.5L74.8,62.9L85,45.2L95.2,62.8z M73.9,62.4H56
		c0.1-0.2,0.1-0.4,0.2-0.5L77,25.6l0.1-0.1c0,0,0.1,0,0.1,0c0.1,0,15.5,0,15.5,0c0,0,0.1,0,0.1,0l21,36.3c0.1,0.1,0.1,0.2,0.1,0.3
		H96L85.5,43.9c-0.1-0.3-0.5-0.3-0.7-0.2c-0.1,0-0.1,0.1-0.2,0.2L73.9,62.4z"/>
	<path fill="none" d="M71.5,62.5h2.8L85,44.2l10.5,18.2l2.9,0l-12-20.7l6-13.7c0.2-0.4-0.5-0.7-0.7-0.3L71.5,62.5z"/>
	<path fill="#B1B3B4" d="M71.5,62.5h2.8L85,44.2l10.5,18.2l2.9,0l-12-20.7l6-13.7c0.2-0.4-0.5-0.7-0.7-0.3L71.5,62.5z"/>
	<path fill="none" d="M76.1,100.4c0.2,0.4,0.6,0.7,1.1,0.7l0,0c0,0,15.6,0,15.6,0c0.4,0,0.8-0.2,1.1-0.6l21-36.4
		c0.1-0.2,0.1-0.8,0.2-1.1l-1.1-0.1l-0.1,0.6l0,0.2L93,100c-0.1,0.1-0.1,0.1-0.2,0.1H77.3c-0.1,0-0.2-0.1-0.3-0.2L56.1,63.7
		c0-0.1-0.1-0.4-0.1-0.4c0-0.3-0.3-0.5-0.6-0.5c-0.3,0-0.5,0.3-0.5,0.6c0,0.1,0,0.3,0.1,0.4l0.2,0.4L76.1,100.4z"/>
	<path fill="#B1B3B4" d="M76.1,100.4c0.2,0.4,0.6,0.7,1.1,0.7l0,0c0,0,15.6,0,15.6,0c0.4,0,0.8-0.2,1.1-0.6l21-36.4
		c0.1-0.2,0.1-0.8,0.2-1.1l-1.1-0.1l-0.1,0.6l0,0.2L93,100c-0.1,0.1-0.1,0.1-0.2,0.1H77.3c-0.1,0-0.2-0.1-0.3-0.2L56.1,63.7
		c0-0.1-0.1-0.4-0.1-0.4c0-0.3-0.3-0.5-0.6-0.5c-0.3,0-0.5,0.3-0.5,0.6c0,0.1,0,0.3,0.1,0.4l0.2,0.4L76.1,100.4z"/>
</g>
</svg>
