<?xml version="1.0" encoding="utf-8"?>
<!-- Generator: Adobe Illustrator 19.1.0, SVG Export Plug-In . SVG Version: 6.00 Build 0)  -->
<!DOCTYPE svg PUBLIC "-//W3C//DTD SVG 1.1//EN" "http://www.w3.org/Graphics/SVG/1.1/DTD/svg11.dtd">
<svg version="1.1" id="Layer_1" xmlns="http://www.w3.org/2000/svg" xmlns:xlink="http://www.w3.org/1999/xlink" x="0px" y="0px"
	 viewBox="0 0 170 170" enable-background="new 0 0 170 170" xml:space="preserve">
<path fill="#B1B3B4" d="M73.5,92.2v3.2H103v-9.7h-3.4c-0.2,3-1.8,6.2-6.2,6.5h-5.2V77.5h5v-3.2H73.5v3.2h4.9v14.7H73.5L73.5,92.2z
	 M57.1,95.9c-8.1,0-14.9-4.1-14.9-10.8c0-7.4,6.8-11,14.9-11c9.1,0,14.9,4.1,14.9,11C72,91.7,65.4,95.9,57.1,95.9L57.1,95.9z
	 M57.1,92.3c2.8,0,4.9-3.3,4.9-7.2c0-4.4-1.9-7.6-4.9-7.6s-4.8,3.3-4.8,7.6C52.3,89.5,54.1,92.3,57.1,92.3L57.1,92.3z M2.8,74.3v3.2
	h5l9.8,17.9h11.7l10-17.9h4.9v-3.2H29.2v3.2h4.3l-7.2,13l-7.1-13h5.2v-3.2H2.8L2.8,74.3z M98.1,74.3h21.5v3.2h-5.2l7.1,13l7.2-13
	h-4.3v-3.2h14.9v3.2h-4.9l-10,17.9h-11.7L103,77.5h-4.9V74.3L98.1,74.3z M152.3,95.9c8.3,0,14.9-4.2,14.9-10.8c0-6.9-5.8-11-14.9-11
	c-8.1,0-14.9,3.7-14.9,11C137.4,91.8,144.2,95.9,152.3,95.9L152.3,95.9z M152.3,92.3c-3,0-4.8-2.8-4.8-7.2c0-4.4,1.8-7.6,4.8-7.6
	s4.9,3.3,4.9,7.6C157.2,89,155.1,92.3,152.3,92.3z"/>
</svg>
