<?xml version="1.0" encoding="utf-8"?>
<!-- Generator: Adobe Illustrator 21.1.0, SVG Export Plug-In . SVG Version: 6.00 Build 0)  -->
<svg version="1.1" id="Layer_1" xmlns="http://www.w3.org/2000/svg" xmlns:xlink="http://www.w3.org/1999/xlink" x="0px" y="0px"
	 viewBox="0 0 170 170" style="enable-background:new 0 0 170 170;" xml:space="preserve">
<style type="text/css">
	.st0{display:none;}
	.st1{display:inline;fill:#FFFFFF;}
	.st2{fill:none;stroke:#B2B3B4;stroke-width:2.1508;stroke-miterlimit:10;}
	.st3{fill:#B1B3B4;}
	.st4{display:none;fill:#B1B3B4;}
</style>
<g>
	<g>
		<g class="st0">
			<path class="st1" d="M92.1,12.8c35.8,0,65.2,28.8,65.2,64.3s-29.2,64.1-65.2,64.1s-65.2-28.8-65.2-64.1
				C26.9,41.6,56.1,12.8,92.1,12.8z"/>
		</g>
		<path class="st2" d="M84.6,25.4c34.3,0,62.1,27.5,62.1,61.4c0,33.7-27.9,61.4-62.1,61.4s-62.3-27.5-62.3-61.4
			C22.3,53.1,50.1,25.4,84.6,25.4z"/>
		<path class="st3" d="M100.5,95.3c0.6,3.7-1.7,3.7-2.3,2.7c2.5-18.8-0.2-32.9-11.6-41c-4.1-0.8-8.9-0.6-11.8,1.5
			c2.1,3.3,6,6.2,8.5,9.1c-0.2,0.8-1.2,1.2-1.9,0.6c-3.1-3.7-5.6-6.8-9.7-7.9c-4.8,1.5-9.9,5-11.2,10.3c3.5,1.2,6.6,1.7,9.3,3.7
			c0.6,0.4,0.4,1.2-0.4,1c-2.9-1.4-6.2-2.7-9.9-3.3c-3.3,2.5-4.3,7.2-4.1,11.6c13.6-0.8,19.4,5.4,20.3,15.7c-3.5,0.8-6-3.3-18.4-1.2
			c3.9,2.9,6,5.4,5.8,8.9c7.9,1.2,5.4-2.9,12.2-2.9c3.7-0.4,19.4-0.6,22.3-0.4c2.5,0,3.3,0.2,2.9,2.9c3.7-0.6,8.3-2.1,11-5.6
			C108.2,96.8,104.1,95.4,100.5,95.3z M90.8,96c-2.5,0-4.6-1.9-4.6-4.5s2.1-4.5,4.6-4.5c2.5,0,4.6,1.9,4.6,4.5S93.3,96,90.8,96z"/>
		<g>
			<polygon class="st3" points="57.7,127.8 59.6,128.9 60,129.1 61.4,124.5 59.6,126 			"/>
			<path class="st3" d="M84.6,29.8c-31.7,0-57.9,25.6-57.9,56.9s25.9,56.9,57.9,56.9c31.7,0,57.7-25.6,57.7-56.9
				S116.3,29.8,84.6,29.8z M107.1,36.8l1.5,1l4.3,2.7c2.3,1.4,3.7,3.1,4.1,4.8c0.6,1.9,0.2,3.9-1.2,6.2c-1.5,2.5-3.3,3.9-5.4,4.3
				c-0.6,0-1.2,0-1.7,0c-1.4-0.2-2.9-0.8-4.5-1.7l-5.8-3.7L107.1,36.8z M78.6,34.3c1.5-1.5,3.5-2.3,6-2.3l0,0c2.7,0,4.6,0.8,6.2,2.5
				c1.4,1.5,2.1,3.5,2.1,5.8c0,2.7-0.8,4.6-2.3,6.4c-1.5,1.5-3.5,2.3-6,2.3l0,0c-2.5,0-4.5-0.8-6-2.1c-1.5-1.5-2.3-3.7-2.3-6.2
				C76.3,37.8,77,35.6,78.6,34.3z M51.1,43.6l2.9-1.7l2.7,4.5l1.2-6.8l5.2-3.1l-1.7,8.1l10.6,5l-5.4,3.3L60,49.4l-0.4,1.7l2.7,4.3
				l-4.5,2.7l-6.8-11l-1.5-2.5L51.1,43.6z M43.4,73.2l2.3-4.5c0.6,0.2,1,0.2,1.5-0.2c0.4-0.2,0.8-0.6,1-1.2c0.4-0.6,0.4-1.2,0.4-1.5
				c0-0.4-0.2-0.8-0.6-1c-0.6-0.2-1.4,0.2-2.3,1.4c-1.5,1.7-2.5,2.9-3.3,3.3c-1.5,1-3.1,1.2-4.6,0.4s-2.3-1.9-2.5-3.5
				c0-1,0-1.9,0.4-3.1l-3.3,1.2l1.4-2.7l1.9-0.6l-0.8-1.9l1.2-2.5l1.2,3.3c0.8-1.4,1.7-2.1,2.9-2.5c1.4-0.6,2.7-0.6,4.1,0L41.8,62
				c-0.4-0.2-1-0.2-1.4,0.2c-0.4,0.2-0.6,0.6-1,1.2c-0.6,1-0.6,1.5,0,1.9c0.6,0.2,1.4-0.2,2.3-1.4c1.5-1.7,2.7-2.9,3.3-3.3
				c1.5-1,2.9-1.2,4.5-0.4c0.4,0.2,0.8,0.6,1.2,0.8c0.8,0.8,1.4,1.7,1.5,2.9c0.2,1.5-0.2,3.5-1.4,5.4c0,0.2-0.2,0.4-0.2,0.4
				c-1,1.5-2.1,2.7-3.5,3.3C46.3,74,44.7,74,43.4,73.2z M62.3,135.9l-2.7-1.7l-0.8-0.6l0.6-1.7l-3.7-2.3l-1.4,1.2l-3.5-2.3l8.9-7
				l2.1-1.7l3.7,2.3L62.3,135.9z M82.3,134.2c-0.4,2.1-1.4,3.5-2.5,4.1c-1.2,0.8-2.9,0.8-5,0.4s-3.5-1.2-4.3-2.3
				c-0.8-1.2-1-2.9-0.6-5l1.5-7.2l4.3,1l-1.7,7.7c-0.2,0.8-0.2,1.4,0,1.7c0.2,0.6,0.8,1,1.5,1c0.8,0.2,1.4,0,1.7-0.2
				c0.4-0.4,0.6-0.8,0.8-1.5l1.7-7.7l4.3,1L82.3,134.2z M97.6,137.8l-4.3,1l-2.3-9.5l-3.7,1l-0.8-3.3l11.6-2.7l0.8,3.3l-3.7,1
				L97.6,137.8z M116.7,128.4c-0.4,1.7-1.5,3.1-3.1,4.3c-1.2,0.8-2.5,1.2-3.7,1.4c-0.6,0-1,0-1.5-0.2c-1.7-0.4-3.1-1.5-4.5-3.3
				c-1.2-1.7-1.5-3.5-1-5.2c0.4-1.7,1.5-3.1,3.1-4.3c1.2-0.8,2.5-1.2,3.7-1.2c0.6,0,1.2,0,1.7,0.2c1.5,0.4,2.9,1.5,3.9,3.1
				C116.7,124.7,117.1,126.6,116.7,128.4z M84.6,123.3c-19.9,0-36.4-16.5-36.4-36.6s16.3-36.6,36.4-36.6c19.9,0,36.4,16.5,36.4,36.6
				C120.8,106.9,104.5,123.3,84.6,123.3z M124.9,73l-3.3,3.5l-2.3-4.6l1.5-1.5l-2.3-4.6l-2.1,0.4l-2.3-4.6l10.8-1.4l6-0.8l2.3,4.8
				L124.9,73z"/>
			<path class="st3" d="M108.6,51.1L108.6,51.1c1-0.2,1.9-1,2.7-2.3c1-1.4,1.2-2.5,1-3.3c-0.2-0.8-0.8-1.5-2.1-2.3l-0.8-0.6
				l-0.8,1.4l-3.9,6l1,0.6C106.7,51.1,107.6,51.3,108.6,51.1z"/>
			<path class="st3" d="M84.8,44.7L84.8,44.7c1.2,0,1.9-0.4,2.3-1.4c0.6-0.8,0.8-1.9,0.8-3.3c0-1.2-0.2-2.3-0.8-3.1
				c-0.6-1-1.4-1.4-2.3-1.4l0,0c-1.2,0-1.9,0.6-2.3,1.5c-0.4,0.8-0.6,1.7-0.6,3.1c0,1.2,0.2,2.3,0.6,3.1
				C82.9,44.3,83.6,44.7,84.8,44.7z"/>
			<path class="st3" d="M110.2,123.5c-0.2,0-0.2,0-0.4-0.2c-0.8-0.2-1.4-0.2-1.9,0.2c-0.8,0.4-1.2,1.2-1,2.1c0,0.8,0.4,1.5,0.8,2.3
				c0.6,0.8,1.2,1.5,1.7,1.9c0.2,0,0.2,0.2,0.4,0.2c0.8,0.2,1.4,0.2,1.9-0.2c0.8-0.6,1.2-1.2,1.2-1.9s-0.4-1.5-1-2.5
				C111.3,124.5,110.7,123.9,110.2,123.5z"/>
			<polygon class="st3" points="122,64.9 123.3,67.8 124.9,66.6 127.8,63.9 124.9,64.3 			"/>
		</g>
		<path class="st4" d="M92.1,15.7c-34.3,0-62.3,27.5-62.3,61.4c0,33.7,27.9,61.4,62.3,61.4c34.3,0,62.1-27.5,62.1-61.4
			C154.3,43.2,126.4,15.7,92.1,15.7z M92.1,116.4C70.7,116.4,53,98.5,53,76.9s17.6-39.5,39.1-39.5s39.1,17.8,39.1,39.5
			C131.3,98.7,113.6,116.4,92.1,116.4z"/>
		<path class="st4" d="M92.1,15.7c-34.3,0-62.3,27.5-62.3,61.4c0,33.7,27.9,61.4,62.3,61.4c34.3,0,62.1-27.5,62.1-61.4
			C154.3,43.2,126.4,15.7,92.1,15.7z M92.1,116.4C70.7,116.4,53,98.5,53,76.9s17.6-39.5,39.1-39.5s39.1,17.8,39.1,39.5
			C131.3,98.7,113.6,116.4,92.1,116.4z"/>
	</g>
</g>
</svg>
