<?xml version="1.0" encoding="utf-8"?>
<!-- Generator: Adobe Illustrator 21.1.0, SVG Export Plug-In . SVG Version: 6.00 Build 0)  -->
<svg version="1.1" xmlns="http://www.w3.org/2000/svg" xmlns:xlink="http://www.w3.org/1999/xlink" x="0px" y="0px"
	 viewBox="0 0 3114.5 1104" style="enable-background:new 0 0 3114.5 1104;" xml:space="preserve">
<style type="text/css">
	.st0{fill:#005689;}
	.st1{fill:#8FBF21;}
</style>
<g id="Laag_2">
	<polygon class="st0" points="3114.5,1104 2286,1104 1457.5,1104 1457.5,644 1793.3,0 3114.5,0 3114.5,552 	"/>
</g>
<g id="Laag_4">
	<polygon class="st1" points="0,1104 207.1,1104 414.2,1104 621.4,1104 828.5,1104 1035.6,1104 1242.8,1104 1449.9,1104 1657,1104 
		1657,966 1657,828 1657,644 1321.2,0 1035.6,0 828.5,0 621.4,0 414.2,0 207.1,0 0,0 0,138 0,276 0,414 0,552 0,690 0,828 0,966 	
		"/>
</g>
</svg>
