<?xml version="1.0" encoding="utf-8"?>
<!-- Generator: Adobe Illustrator 21.1.0, SVG Export Plug-In . SVG Version: 6.00 Build 0)  -->
<svg version="1.1" id="Laag_2" xmlns="http://www.w3.org/2000/svg" xmlns:xlink="http://www.w3.org/1999/xlink" x="0px" y="0px"
	 viewBox="0 0 4739.1 2884" style="enable-background:new 0 0 4739.1 2884;" xml:space="preserve">
<style type="text/css">
	.st0{fill:#0F0F0F;}
</style>
<path class="st0" d="M4739.1,0H0v2884h4739.1V0z M4058.2,202.1c0-9.6,7.8-17.4,17.5-17.4h203.1c9.6,0,17.5,7.8,17.5,17.4v223.6
	c0,9.6-7.8,17.4-17.5,17.4h-203.1c-9.6,0-17.5-7.8-17.5-17.4V202.1z M4058.2,758.9c0-9.6,7.8-17.4,17.5-17.4h203.1
	c9.6,0,17.5,7.8,17.5,17.4v223.7c0,9.6-7.8,17.4-17.5,17.4h-203.1c-9.6,0-17.5-7.8-17.5-17.4V758.9z M4058.2,1035.6
	c0-9.6,7.8-17.4,17.5-17.4h203.1c9.6,0,17.5,7.8,17.5,17.4v223.6c0,9.6-7.8,17.4-17.5,17.4h-203.1c-9.6,0-17.5-7.8-17.5-17.4V1035.6
	z M4058.2,1592.5c0-9.6,7.8-17.4,17.5-17.4h203.1c9.6,0,17.5,7.8,17.5,17.4v223.6c0,9.6-7.8,17.4-17.5,17.4h-203.1
	c-9.6,0-17.5-7.8-17.5-17.4V1592.5z M4058.2,1871.2c0-9.6,7.8-17.4,17.5-17.4h203.1c9.6,0,17.5,7.8,17.5,17.4v223.6
	c0,9.6-7.8,17.4-17.5,17.4h-203.1c-9.6,0-17.5-7.8-17.5-17.4V1871.2z M3800,202.1c0-9.6,7.8-17.4,17.5-17.4h203.1
	c9.6,0,17.5,7.8,17.5,17.4v223.6c0,9.6-7.8,17.4-17.5,17.4h-203.1c-9.6,0-17.5-7.8-17.5-17.4V202.1z M3800,758.9
	c0-9.6,7.8-17.4,17.5-17.4h203.1c9.6,0,17.5,7.8,17.5,17.4v223.7c0,9.6-7.8,17.4-17.5,17.4h-203.1c-9.6,0-17.5-7.8-17.5-17.4V758.9z
	 M3800,1035.6c0-9.6,7.8-17.4,17.5-17.4h203.1c9.6,0,17.5,7.8,17.5,17.4v223.6c0,9.6-7.8,17.4-17.5,17.4h-203.1
	c-9.6,0-17.5-7.8-17.5-17.4V1035.6z M3800,1592.5c0-9.6,7.8-17.4,17.5-17.4h203.1c9.6,0,17.5,7.8,17.5,17.4v223.6
	c0,9.6-7.8,17.4-17.5,17.4h-203.1c-9.6,0-17.5-7.8-17.5-17.4V1592.5z M3800,1871.2c0-9.6,7.8-17.4,17.5-17.4h203.1
	c9.6,0,17.5,7.8,17.5,17.4v223.6c0,9.6-7.8,17.4-17.5,17.4h-203.1c-9.6,0-17.5-7.8-17.5-17.4V1871.2z M3543.9,202.1
	c0-9.6,7.8-17.4,17.5-17.4h203.1c9.6,0,17.5,7.8,17.5,17.4v223.6c0,9.6-7.8,17.4-17.5,17.4h-203.1c-9.6,0-17.5-7.8-17.5-17.4V202.1z
	 M3543.9,758.9c0-9.6,7.8-17.4,17.5-17.4h203.1c9.6,0,17.5,7.8,17.5,17.4v223.7c0,9.6-7.8,17.4-17.5,17.4h-203.1
	c-9.6,0-17.5-7.8-17.5-17.4V758.9z M3543.9,1035.6c0-9.6,7.8-17.4,17.5-17.4h203.1c9.6,0,17.5,7.8,17.5,17.4v223.6
	c0,9.6-7.8,17.4-17.5,17.4h-203.1c-9.6,0-17.5-7.8-17.5-17.4V1035.6z M3543.9,1592.5c0-9.6,7.8-17.4,17.5-17.4h203.1
	c9.6,0,17.5,7.8,17.5,17.4v223.6c0,9.6-7.8,17.4-17.5,17.4h-203.1c-9.6,0-17.5-7.8-17.5-17.4V1592.5z M3543.9,1871.2
	c0-9.6,7.8-17.4,17.5-17.4h203.1c9.6,0,17.5,7.8,17.5,17.4v223.6c0,9.6-7.8,17.4-17.5,17.4h-203.1c-9.6,0-17.5-7.8-17.5-17.4V1871.2
	z M3285.7,202.1c0-9.6,7.8-17.4,17.5-17.4h203.1c9.6,0,17.5,7.8,17.5,17.4v223.6c0,9.6-7.8,17.4-17.5,17.4h-203.1
	c-9.6,0-17.5-7.8-17.5-17.4V202.1z M3285.7,758.9c0-9.6,7.8-17.4,17.5-17.4h203.1c9.6,0,17.5,7.8,17.5,17.4v223.7
	c0,9.6-7.8,17.4-17.5,17.4h-203.1c-9.6,0-17.5-7.8-17.5-17.4V758.9z M3285.7,1035.6c0-9.6,7.8-17.4,17.5-17.4h203.1
	c9.6,0,17.5,7.8,17.5,17.4v223.6c0,9.6-7.8,17.4-17.5,17.4h-203.1c-9.6,0-17.5-7.8-17.5-17.4V1035.6z M3285.7,1592.5
	c0-9.6,7.8-17.4,17.5-17.4h203.1c9.6,0,17.5,7.8,17.5,17.4v223.6c0,9.6-7.8,17.4-17.5,17.4h-203.1c-9.6,0-17.5-7.8-17.5-17.4V1592.5
	z M3285.7,1871.2c0-9.6,7.8-17.4,17.5-17.4h203.1c9.6,0,17.5,7.8,17.5,17.4v223.6c0,9.6-7.8,17.4-17.5,17.4h-203.1
	c-9.6,0-17.5-7.8-17.5-17.4V1871.2z M3026.6,202.1c0-9.6,7.8-17.4,17.5-17.4h203.1c9.6,0,17.5,7.8,17.5,17.4v223.6
	c0,9.6-7.8,17.4-17.5,17.4h-203.1c-9.6,0-17.5-7.8-17.5-17.4V202.1z M3026.6,758.9c0-9.6,7.8-17.4,17.5-17.4h203.1
	c9.6,0,17.5,7.8,17.5,17.4v223.7c0,9.6-7.8,17.4-17.5,17.4h-203.1c-9.6,0-17.5-7.8-17.5-17.4V758.9z M3026.6,1035.6
	c0-9.6,7.8-17.4,17.5-17.4h203.1c9.6,0,17.5,7.8,17.5,17.4v223.6c0,9.6-7.8,17.4-17.5,17.4h-203.1c-9.6,0-17.5-7.8-17.5-17.4V1035.6
	z M3026.6,1592.5c0-9.6,7.8-17.4,17.5-17.4h203.1c9.6,0,17.5,7.8,17.5,17.4v223.6c0,9.6-7.8,17.4-17.5,17.4h-203.1
	c-9.6,0-17.5-7.8-17.5-17.4V1592.5z M3026.6,1871.2c0-9.6,7.8-17.4,17.5-17.4h203.1c9.6,0,17.5,7.8,17.5,17.4v223.6
	c0,9.6-7.8,17.4-17.5,17.4h-203.1c-9.6,0-17.5-7.8-17.5-17.4V1871.2z M2509.2,202.1c0-9.6,7.8-17.4,17.5-17.4h203.1
	c9.6,0,17.5,7.8,17.5,17.4v223.6c0,9.6-7.8,17.4-17.5,17.4h-203.1c-9.6,0-17.5-7.8-17.5-17.4V202.1z M2509.2,758.9
	c0-9.6,7.8-17.4,17.5-17.4h203.1c9.6,0,17.5,7.8,17.5,17.4v223.7c0,9.6-7.8,17.4-17.5,17.4h-203.1c-9.6,0-17.5-7.8-17.5-17.4V758.9z
	 M2509.3,1320.3c0-14.7,8.7-23.6,23.4-23.6c63.6-0.1,127.2-0.1,190.8,0c14.6,0,23.6,8.9,23.6,23.5c0.1,70.6,0.1,141.2,0,211.8
	c0,13.9-9,23-23,23c-64,0.1-127.9,0.1-191.9,0c-14.2,0-22.9-9.1-22.9-23.5c0-35.2,0-70.4,0-105.6
	C2509.3,1390.7,2509.3,1355.5,2509.3,1320.3z M2532.4,1575.1c63.8,0,127.6,0,191.4,0c14.2,0,23.2,9,23.2,23.3
	c0.1,70.6,0,141.3,0,211.9c0,12.4-6.7,19.5-17.9,23.2c-67.6,0-135.2,0-202.7,0c-7.9-3.3-14.6-7.7-16.5-16.9
	c-0.4-2.1-0.6-4.3-0.6-6.4c0-70.6,0-141.3,0-211.9C2509.3,1584,2518.1,1575.1,2532.4,1575.1z M2526.7,1853.8h203.1
	c9.6,0,17.5,7.8,17.5,17.4v223.6c0,9.6-7.8,17.4-17.5,17.4h-203.1c-9.6,0-17.5-7.8-17.5-17.4v-223.6
	C2509.2,1861.6,2517,1853.8,2526.7,1853.8z M2251.1,202.1c0-9.6,7.8-17.4,17.5-17.4h203.1c9.6,0,17.5,7.8,17.5,17.4v223.6
	c0,9.6-7.8,17.4-17.5,17.4h-203.1c-9.6,0-17.5-7.8-17.5-17.4V202.1z M2251.1,758.9c0-9.6,7.8-17.4,17.5-17.4h203.1
	c9.6,0,17.5,7.8,17.5,17.4v223.7c0,9.6-7.8,17.4-17.5,17.4h-203.1c-9.6,0-17.5-7.8-17.5-17.4V758.9z M2488.2,1532.3
	c0,13.6-9.1,22.8-22.7,22.8c-64.1,0.1-128.3,0.1-192.4,0c-13.9,0-22.6-9.2-22.6-23.2c0-35.5,0-70.9,0-106.3c0-35.2,0-70.4,0-105.6
	c0-14.3,8.7-23.3,23.1-23.3c63.8-0.1,127.5-0.1,191.3,0c14.2,0,23.3,9,23.3,23.3C2488.3,1390.8,2488.3,1461.6,2488.2,1532.3z
	 M1991.9,202.1c0-9.6,7.8-17.4,17.5-17.4h203.1c9.6,0,17.5,7.8,17.5,17.4v223.6c0,9.6-7.8,17.4-17.5,17.4h-203.1
	c-9.6,0-17.5-7.8-17.5-17.4V202.1z M1991.9,758.9c0-9.6,7.8-17.4,17.5-17.4h203.1c9.6,0,17.5,7.8,17.5,17.4v223.7
	c0,9.6-7.8,17.4-17.5,17.4h-203.1c-9.6,0-17.5-7.8-17.5-17.4V758.9z M1733.7,202.1c0-9.6,7.8-17.4,17.5-17.4h203.1
	c9.6,0,17.5,7.8,17.5,17.4v223.6c0,9.6-7.8,17.4-17.5,17.4h-203.1c-9.6,0-17.5-7.8-17.5-17.4V202.1z M1733.7,758.9
	c0-9.6,7.8-17.4,17.5-17.4h203.1c9.6,0,17.5,7.8,17.5,17.4v223.7c0,9.6-7.8,17.4-17.5,17.4h-203.1c-9.6,0-17.5-7.8-17.5-17.4V758.9z
	 M1733.7,1035.6c0-9.6,7.8-17.4,17.5-17.4h203.1c9.6,0,17.5,7.8,17.5,17.4v223.6c0,9.6-7.8,17.4-17.5,17.4h-203.1
	c-9.6,0-17.5-7.8-17.5-17.4V1035.6z M1733.7,1592.5c0-9.6,7.8-17.4,17.5-17.4h203.1c9.6,0,17.5,7.8,17.5,17.4v223.6
	c0,9.6-7.8,17.4-17.5,17.4h-203.1c-9.6,0-17.5-7.8-17.5-17.4V1592.5z M1733.7,1871.2c0-9.6,7.8-17.4,17.5-17.4h203.1
	c9.6,0,17.5,7.8,17.5,17.4v223.6c0,9.6-7.8,17.4-17.5,17.4h-203.1c-9.6,0-17.5-7.8-17.5-17.4V1871.2z M1475.6,202.1
	c0-9.6,7.8-17.4,17.5-17.4h203.1c9.6,0,17.5,7.8,17.5,17.4v223.6c0,9.6-7.8,17.4-17.5,17.4h-203.1c-9.6,0-17.5-7.8-17.5-17.4V202.1z
	 M1475.6,758.9c0-9.6,7.8-17.4,17.5-17.4h203.1c9.6,0,17.5,7.8,17.5,17.4v223.7c0,9.6-7.8,17.4-17.5,17.4h-203.1
	c-9.6,0-17.5-7.8-17.5-17.4V758.9z M1475.6,1035.6c0-9.6,7.8-17.4,17.5-17.4h203.1c9.6,0,17.5,7.8,17.5,17.4v223.6
	c0,9.6-7.8,17.4-17.5,17.4h-203.1c-9.6,0-17.5-7.8-17.5-17.4V1035.6z M1475.6,1592.5c0-9.6,7.8-17.4,17.5-17.4h203.1
	c9.6,0,17.5,7.8,17.5,17.4v223.6c0,9.6-7.8,17.4-17.5,17.4h-203.1c-9.6,0-17.5-7.8-17.5-17.4V1592.5z M1475.6,1871.2
	c0-9.6,7.8-17.4,17.5-17.4h203.1c9.6,0,17.5,7.8,17.5,17.4v223.6c0,9.6-7.8,17.4-17.5,17.4h-203.1c-9.6,0-17.5-7.8-17.5-17.4V1871.2
	z M958.3,202.1c0-9.6,7.8-17.4,17.5-17.4h203.1c9.6,0,17.5,7.8,17.5,17.4v223.6c0,9.6-7.8,17.4-17.5,17.4H975.8
	c-9.6,0-17.5-7.8-17.5-17.4V202.1z M958.3,758.9c0-9.6,7.8-17.4,17.5-17.4h203.1c9.6,0,17.5,7.8,17.5,17.4v223.7
	c0,9.6-7.8,17.4-17.5,17.4H975.8c-9.6,0-17.5-7.8-17.5-17.4V758.9z M958.3,1035.6c0-9.6,7.8-17.4,17.5-17.4h203.1
	c9.6,0,17.5,7.8,17.5,17.4v223.6c0,9.6-7.8,17.4-17.5,17.4H975.8c-9.6,0-17.5-7.8-17.5-17.4V1035.6z M958.3,1592.5
	c0-9.6,7.8-17.4,17.5-17.4h203.1c9.6,0,17.5,7.8,17.5,17.4v223.6c0,9.6-7.8,17.4-17.5,17.4H975.8c-9.6,0-17.5-7.8-17.5-17.4V1592.5z
	 M958.3,1871.2c0-9.6,7.8-17.4,17.5-17.4h203.1c9.6,0,17.5,7.8,17.5,17.4v223.6c0,9.6-7.8,17.4-17.5,17.4H975.8
	c-9.6,0-17.5-7.8-17.5-17.4V1871.2z M183.8,202.1c0-9.6,7.8-17.4,17.5-17.4h203.1c9.6,0,17.5,7.8,17.5,17.4v223.6
	c0,9.6-7.8,17.4-17.5,17.4H201.3c-9.6,0-17.5-7.8-17.5-17.4V202.1z M183.8,758.9c0-9.6,7.8-17.4,17.5-17.4h203.1
	c9.6,0,17.5,7.8,17.5,17.4v223.7c0,9.6-7.8,17.4-17.5,17.4H201.3c-9.6,0-17.5-7.8-17.5-17.4V758.9z M183.8,1035.6
	c0-9.6,7.8-17.4,17.5-17.4h203.1c9.6,0,17.5,7.8,17.5,17.4v223.6c0,9.6-7.8,17.4-17.5,17.4H201.3c-9.6,0-17.5-7.8-17.5-17.4V1035.6z
	 M183.8,1592.5c0-9.6,7.8-17.4,17.5-17.4h203.1c9.6,0,17.5,7.8,17.5,17.4v223.6c0,9.6-7.8,17.4-17.5,17.4H201.3
	c-9.6,0-17.5-7.8-17.5-17.4V1592.5z M183.8,1871.2c0-9.6,7.8-17.4,17.5-17.4h203.1c9.6,0,17.5,7.8,17.5,17.4v223.6
	c0,9.6-7.8,17.4-17.5,17.4H201.3c-9.6,0-17.5-7.8-17.5-17.4V1871.2z M421.9,2651.6c0,9.6-7.8,17.4-17.5,17.4H201.3
	c-9.6,0-17.5-7.8-17.5-17.4V2428c0-9.6,7.8-17.4,17.5-17.4h203.1c9.6,0,17.5,7.8,17.5,17.4V2651.6z M422,2373.3
	c0,9.6-7.8,17.4-17.5,17.4H201.3c-9.6,0-17.5-7.8-17.5-17.4v-223.7h0.1c0-9.6,7.8-17.4,17.5-17.4h203.1c9.6,0,17.5,7.8,17.5,17.4
	V2373.3z M422,1537.7c0,9.6-7.8,17.4-17.5,17.4H201.3c-9.6,0-17.5-7.8-17.5-17.4V1314h0.1c0-9.6,7.8-17.4,17.5-17.4h203.1
	c9.6,0,17.5,7.8,17.5,17.4V1537.7z M422,704.2c0,9.6-7.8,17.4-17.5,17.4H201.3c-9.6,0-17.5-7.8-17.5-17.4V480.5h0.1
	c0-9.6,7.8-17.4,17.5-17.4h203.1c9.6,0,17.5,7.8,17.5,17.4V704.2z M681.1,2651.6L681.1,2651.6c-0.1,9.6-7.9,17.4-17.6,17.4h-203
	c-9.6,0-17.5-7.8-17.5-17.4V2428c0-9.6,7.8-17.4,17.5-17.4h203.1c9.6,0,17.5,7.8,17.5,17.4V2651.6z M681.1,2373.3
	c0,9.6-7.8,17.4-17.5,17.4H460.5c-9.6,0-17.5-7.8-17.5-17.4v-223.7c0-9.6,7.8-17.4,17.5-17.4h203.1c9.6,0,17.5,7.8,17.5,17.4V2373.3
	z M681.1,2094.8L681.1,2094.8c-0.1,9.6-7.9,17.4-17.6,17.4h-203c-9.6,0-17.5-7.8-17.5-17.4v-223.6c0-9.6,7.8-17.4,17.5-17.4h203.1
	c9.6,0,17.5,7.8,17.5,17.4V2094.8z M681.1,1816.1L681.1,1816.1c-0.1,9.6-7.9,17.4-17.6,17.4h-203c-9.6,0-17.5-7.8-17.5-17.4v-223.6
	c0-9.6,7.8-17.4,17.5-17.4h203.1c9.6,0,17.5,7.8,17.5,17.4V1816.1z M681.1,1537.7c0,9.6-7.8,17.4-17.5,17.4H460.5
	c-9.6,0-17.5-7.8-17.5-17.4V1314c0-9.6,7.8-17.4,17.5-17.4h203.1c9.6,0,17.5,7.8,17.5,17.4V1537.7z M681.1,1259.2L681.1,1259.2
	c-0.1,9.6-7.9,17.4-17.6,17.4h-203c-9.6,0-17.5-7.8-17.5-17.4v-223.6c0-9.6,7.8-17.4,17.5-17.4h203.1c9.6,0,17.5,7.8,17.5,17.4
	V1259.2z M681.1,982.6L681.1,982.6c-0.1,9.6-7.9,17.4-17.6,17.4h-203c-9.6,0-17.5-7.8-17.5-17.4V758.9c0-9.6,7.8-17.4,17.5-17.4
	h203.1c9.6,0,17.5,7.8,17.5,17.4V982.6z M681.1,704.2c0,9.6-7.8,17.4-17.5,17.4H460.5c-9.6,0-17.5-7.8-17.5-17.4V480.5
	c0-9.6,7.8-17.4,17.5-17.4h203.1c9.6,0,17.5,7.8,17.5,17.4V704.2z M681.1,425.7L681.1,425.7c-0.1,9.6-7.9,17.4-17.6,17.4h-203
	c-9.6,0-17.5-7.8-17.5-17.4V202.1c0-9.6,7.8-17.4,17.5-17.4h203.1c9.6,0,17.5,7.8,17.5,17.4V425.7z M939.3,2651.6h-0.1
	c0,9.6-7.8,17.4-17.5,17.4h-203c-9.6,0-17.5-7.8-17.5-17.4V2428c0-9.6,7.8-17.4,17.5-17.4h203.1c9.6,0,17.5,7.8,17.5,17.4V2651.6z
	 M939.3,2373.3c0,9.6-7.8,17.4-17.5,17.4H718.7c-9.6,0-17.5-7.8-17.5-17.4v-223.7c0-9.6,7.8-17.4,17.5-17.4h203.1
	c9.6,0,17.5,7.8,17.5,17.4V2373.3z M939.3,2094.8h-0.1c0,9.6-7.8,17.4-17.5,17.4h-203c-9.6,0-17.5-7.8-17.5-17.4v-223.6
	c0-9.6,7.8-17.4,17.5-17.4h203.1c9.6,0,17.5,7.8,17.5,17.4V2094.8z M939.3,1816.1h-0.1c0,9.6-7.8,17.4-17.5,17.4h-203
	c-9.6,0-17.5-7.8-17.5-17.4v-223.6c0-9.6,7.8-17.4,17.5-17.4h203.1c9.6,0,17.5,7.8,17.5,17.4V1816.1z M939.3,1537.7
	c0,9.6-7.8,17.4-17.5,17.4H718.7c-9.6,0-17.5-7.8-17.5-17.4V1314c0-9.6,7.8-17.4,17.5-17.4h203.1c9.6,0,17.5,7.8,17.5,17.4V1537.7z
	 M939.3,1259.2h-0.1c0,9.6-7.8,17.4-17.5,17.4h-203c-9.6,0-17.5-7.8-17.5-17.4v-223.6c0-9.6,7.8-17.4,17.5-17.4h203.1
	c9.6,0,17.5,7.8,17.5,17.4V1259.2z M939.3,982.6h-0.1c0,9.6-7.8,17.4-17.5,17.4h-203c-9.6,0-17.5-7.8-17.5-17.4V758.9
	c0-9.6,7.8-17.4,17.5-17.4h203.1c9.6,0,17.5,7.8,17.5,17.4V982.6z M939.3,704.2c0,9.6-7.8,17.4-17.5,17.4H718.7
	c-9.6,0-17.5-7.8-17.5-17.4V480.5c0-9.6,7.8-17.4,17.5-17.4h203.1c9.6,0,17.5,7.8,17.5,17.4V704.2z M939.3,425.7h-0.1
	c0,9.6-7.8,17.4-17.5,17.4h-203c-9.6,0-17.5-7.8-17.5-17.4V202.1c0-9.6,7.8-17.4,17.5-17.4h203.1c9.6,0,17.5,7.8,17.5,17.4V425.7z
	 M1196.4,2651.6c0,9.6-7.8,17.4-17.5,17.4H975.8c-9.6,0-17.5-7.8-17.5-17.4V2428c0-9.6,7.8-17.4,17.5-17.4h203.1
	c9.6,0,17.5,7.8,17.5,17.4V2651.6z M1196.5,2373.3c0,9.6-7.8,17.4-17.5,17.4H975.8c-9.6,0-17.5-7.8-17.5-17.4v-223.7h0.1
	c0-9.6,7.8-17.4,17.5-17.4H1179c9.6,0,17.5,7.8,17.5,17.4V2373.3z M1196.5,1537.7c0,9.6-7.8,17.4-17.5,17.4H975.8
	c-9.6,0-17.5-7.8-17.5-17.4V1314h0.1c0-9.6,7.8-17.4,17.5-17.4H1179c9.6,0,17.5,7.8,17.5,17.4V1537.7z M1196.5,704.2
	c0,9.6-7.8,17.4-17.5,17.4H975.8c-9.6,0-17.5-7.8-17.5-17.4V480.5h0.1c0-9.6,7.8-17.4,17.5-17.4H1179c9.6,0,17.5,7.8,17.5,17.4
	V704.2z M1454.5,2651.6c0,9.6-7.8,17.4-17.5,17.4h-203c-9.6,0-17.5-7.8-17.5-17.4V2428c0-9.6,7.8-17.4,17.5-17.4h203
	c9.6,0,17.5,7.8,17.5,17.4V2651.6z M1454.5,2373.3c0,9.6-7.8,17.4-17.5,17.4h-203c-9.6,0-17.5-7.8-17.5-17.4v-223.7
	c0-9.6,7.8-17.4,17.5-17.4h203c9.6,0,17.5,7.8,17.5,17.4V2373.3z M1454.5,2094.8c0,9.6-7.8,17.4-17.5,17.4h-203
	c-9.6,0-17.5-7.8-17.5-17.4v-223.6c0-9.6,7.8-17.4,17.5-17.4h203c9.6,0,17.5,7.8,17.5,17.4V2094.8z M1454.5,1816.1
	c0,9.6-7.8,17.4-17.5,17.4h-203c-9.6,0-17.5-7.8-17.5-17.4v-223.6c0-9.6,7.8-17.4,17.5-17.4h203c9.6,0,17.5,7.8,17.5,17.4V1816.1z
	 M1454.5,1537.7c0,9.6-7.8,17.4-17.5,17.4h-203c-9.6,0-17.5-7.8-17.5-17.4V1314c0-9.6,7.8-17.4,17.5-17.4h203
	c9.6,0,17.5,7.8,17.5,17.4V1537.7z M1454.5,1259.2c0,9.6-7.8,17.4-17.5,17.4h-203c-9.6,0-17.5-7.8-17.5-17.4v-223.6
	c0-9.6,7.8-17.4,17.5-17.4h203c9.6,0,17.5,7.8,17.5,17.4V1259.2z M1454.5,982.6c0,9.6-7.8,17.4-17.5,17.4h-203
	c-9.6,0-17.5-7.8-17.5-17.4V758.9c0-9.6,7.8-17.4,17.5-17.4h203c9.6,0,17.5,7.8,17.5,17.4V982.6z M1454.5,704.2
	c0,9.6-7.8,17.4-17.5,17.4h-203c-9.6,0-17.5-7.8-17.5-17.4V480.5c0-9.6,7.8-17.4,17.5-17.4h203c9.6,0,17.5,7.8,17.5,17.4V704.2z
	 M1454.5,425.7c0,9.6-7.8,17.4-17.5,17.4h-203c-9.6,0-17.5-7.8-17.5-17.4V202.1c0-9.6,7.8-17.4,17.5-17.4h203
	c9.6,0,17.5,7.8,17.5,17.4V425.7z M1713.7,2651.6c0,9.6-7.8,17.4-17.5,17.4h-203.1c-9.6,0-17.5-7.8-17.5-17.4V2428
	c0-9.6,7.8-17.4,17.5-17.4h203.1c9.6,0,17.5,7.8,17.5,17.4V2651.6z M1713.8,2373.3c0,9.6-7.8,17.4-17.5,17.4h-203.1
	c-9.6,0-17.5-7.8-17.5-17.4v-223.7c0-9.6,7.8-17.4,17.5-17.4h203.1c9.6,0,17.5,7.8,17.5,17.4V2373.3z M1713.8,1537.7
	c0,9.6-7.8,17.4-17.5,17.4h-203.1c-9.6,0-17.5-7.8-17.5-17.4V1314c0-9.6,7.8-17.4,17.5-17.4h203.1c9.6,0,17.5,7.8,17.5,17.4V1537.7z
	 M1713.8,704.2c0,9.6-7.8,17.4-17.5,17.4h-203.1c-9.6,0-17.5-7.8-17.5-17.4V480.5c0-9.6,7.8-17.4,17.5-17.4h203.1
	c9.6,0,17.5,7.8,17.5,17.4V704.2z M1971.8,2651.6c0,9.6-7.8,17.4-17.5,17.4h-203.1c-9.6,0-17.5-7.8-17.5-17.4V2428
	c0-9.6,7.8-17.4,17.5-17.4h203.1c9.6,0,17.5,7.8,17.5,17.4V2651.6z M1971.9,2373.3c0,9.6-7.8,17.4-17.5,17.4h-203.1
	c-9.6,0-17.5-7.8-17.5-17.4v-223.7c0-9.6,7.8-17.4,17.5-17.4h203.1c9.6,0,17.5,7.8,17.5,17.4V2373.3z M1971.9,1537.7
	c0,9.6-7.8,17.4-17.5,17.4h-203.1c-9.6,0-17.5-7.8-17.5-17.4V1314c0-9.6,7.8-17.4,17.5-17.4h203.1c9.6,0,17.5,7.8,17.5,17.4V1537.7z
	 M1971.9,704.2c0,9.6-7.8,17.4-17.5,17.4h-203.1c-9.6,0-17.5-7.8-17.5-17.4V480.5c0-9.6,7.8-17.4,17.5-17.4h203.1
	c9.6,0,17.5,7.8,17.5,17.4V704.2z M1991.3,1046.4c0.1-13.9,4.2-23.4,17.4-28.2c67.9,0,135.9,0,203.8,0c2.2,1.1,4.4,2.2,6.5,3.5
	c7.2,4.5,10.3,11.3,10.3,19.6c0.1,70.8,0.1,141.6,0,212.3c0,14.3-9.2,23.1-23.5,23.1c-63.6,0-127.2,0-190.8,0
	c-14.7,0-23.5-8.8-23.5-23.4C1991.5,1184.3,1991.7,1115.3,1991.3,1046.4z M2229.5,1319.9c0,70.6,0,141.3-0.1,211.9
	c0,14.3-9.1,23.2-23.4,23.2c-63.8,0.1-127.6,0.1-191.4,0c-14.2,0-22.9-9.1-22.9-23.5c0-35.4,0-70.8,0-106.2c0-35,0-70.1,0-105.1
	c0-14.6,8.7-23.5,23.5-23.5c63.6-0.1,127.3-0.1,190.9,0C2220.4,1296.7,2229.4,1305.6,2229.5,1319.9z M1991.7,1597.3
	c0-12.9,9-22.2,22-22.2c64.3-0.1,128.7-0.1,193,0c14,0,22.7,9.3,22.7,23.8c0.1,32,0,64,0,96c0,37-0.3,74,0.1,111.1
	c0.1,13.7-4.5,23.3-18.1,27.6c-67.6,0-135.2,0-202.7,0c-4.5-3.3-9.9-6-13.4-10.1c-2.5-3-3.5-7.9-3.6-12
	C1991.6,1740,1991.6,1668.7,1991.7,1597.3z M2230,1871.2v223.6c0,9.6-7.8,17.4-17.5,17.4h-203.1c-9.6,0-17.5-7.8-17.5-17.4v-223.6
	c0-9.6,7.8-17.4,17.5-17.4h203.1C2222.1,1853.8,2230,1861.6,2230,1871.2z M2230,2651.6c0,9.6-7.8,17.4-17.5,17.4h-203.1
	c-9.6,0-17.5-7.8-17.5-17.4V2428c0-9.6,7.8-17.4,17.5-17.4h203.1c9.6,0,17.5,7.8,17.5,17.4V2651.6z M2230.1,2373.3
	c0,9.6-7.8,17.4-17.5,17.4h-203.1c-9.6,0-17.5-7.8-17.5-17.4v-223.7h0c0-9.6,7.8-17.4,17.5-17.4h203.1c9.6,0,17.5,7.8,17.5,17.4
	V2373.3z M2230.1,704.2c0,9.6-7.8,17.4-17.5,17.4h-203.1c-9.6,0-17.5-7.8-17.5-17.4V480.5h0c0-9.6,7.8-17.4,17.5-17.4h203.1
	c9.6,0,17.5,7.8,17.5,17.4V704.2z M2250.1,1046.8c0.1-13.9,3.9-23.7,17.4-28.6c67.9,0,135.9,0,203.8,0c0.6,0.4,1.1,0.9,1.7,1.2
	c10.2,3.7,15.1,11.3,15.1,21.8c0.1,70.8,0.1,141.6,0,212.3c0,14.3-9.2,23.1-23.5,23.1c-63.6,0-127.2,0-190.8,0
	c-14.7,0-23.5-8.8-23.5-23.4C2250.3,1184.4,2250.5,1115.6,2250.1,1046.8z M2250.5,1597.8c0-13.6,8.9-22.7,22.5-22.7
	c64-0.1,128,0,191.9,0c14.4,0,23.2,9,23.3,23.8c0.1,41.9,0,83.8,0,125.6c0,27-0.3,53.9,0.1,80.9c0.3,13.9-4.2,23.8-18.1,28.1
	c-67.6,0-135.2,0-202.7,0c-7.6-3.2-14.4-7.4-16.3-16.3c-0.4-2.1-0.7-4.2-0.7-6.4C2250.5,1739.8,2250.5,1668.8,2250.5,1597.8z
	 M2489.2,1871.2v223.6c0,9.6-7.8,17.4-17.5,17.4h-203.1c-9.6,0-17.5-7.8-17.5-17.4v-223.6c0-9.6,7.8-17.4,17.5-17.4h203.1
	C2481.3,1853.8,2489.2,1861.6,2489.2,1871.2z M2489.2,2651.6c0,9.6-7.8,17.4-17.5,17.4h-203.1c-9.6,0-17.5-7.8-17.5-17.4V2428
	c0-9.6,7.8-17.4,17.5-17.4h203.1c9.6,0,17.5,7.8,17.5,17.4V2651.6z M2489.3,2373.3c0,9.6-7.8,17.4-17.5,17.4h-203.1
	c-9.6,0-17.5-7.8-17.5-17.4v-223.7c0-9.6,7.8-17.4,17.5-17.4h203.1c9.6,0,17.5,7.8,17.5,17.4V2373.3z M2489.3,704.2
	c0,9.6-7.8,17.4-17.5,17.4h-203.1c-9.6,0-17.5-7.8-17.5-17.4V480.5c0-9.6,7.8-17.4,17.5-17.4h203.1c9.6,0,17.5,7.8,17.5,17.4V704.2z
	 M2526.4,1018.2c67.9,0,135.9,0,203.8,0c0.6,0.4,1.1,0.9,1.7,1.2c10.2,3.7,15.1,11.3,15.1,21.8c0.1,71,0.1,141.9,0,212.9
	c0,13.5-9.4,22.5-22.9,22.5c-64,0-127.9,0-191.9,0c-14.2,0-22.9-9-23-23.4c0-68.8,0.2-137.6-0.2-206.4
	C2509,1033,2512.8,1023.1,2526.4,1018.2z M2747.3,2651.6c0,9.6-7.8,17.4-17.5,17.4h-203.1c-9.6,0-17.5-7.8-17.5-17.4V2428
	c0-9.6,7.8-17.4,17.5-17.4h203.1c9.6,0,17.5,7.8,17.5,17.4V2651.6z M2747.4,2373.3c0,9.6-7.8,17.4-17.5,17.4h-203.1
	c-9.6,0-17.5-7.8-17.5-17.4v-223.7c0-9.6,7.8-17.4,17.5-17.4h203.1c9.6,0,17.5,7.8,17.5,17.4V2373.3z M2747.4,704.2
	c0,9.6-7.8,17.4-17.5,17.4h-203.1c-9.6,0-17.5-7.8-17.5-17.4V480.5c0-9.6,7.8-17.4,17.5-17.4h203.1c9.6,0,17.5,7.8,17.5,17.4V704.2z
	 M3006.5,2651.6c0,9.6-7.8,17.4-17.5,17.4h-203c-9.6,0-17.5-7.8-17.5-17.4V2428c0-9.6,7.8-17.4,17.5-17.4h203
	c9.6,0,17.5,7.8,17.5,17.4V2651.6z M3006.5,2373.3c0,9.6-7.8,17.4-17.5,17.4h-203c-9.6,0-17.5-7.8-17.5-17.4v-223.7
	c0-9.6,7.8-17.4,17.5-17.4h203c9.6,0,17.5,7.8,17.5,17.4V2373.3z M3006.5,2094.8c0,9.6-7.8,17.4-17.5,17.4h-203
	c-9.6,0-17.5-7.8-17.5-17.4v-223.6c0-9.6,7.8-17.4,17.5-17.4h203c9.6,0,17.5,7.8,17.5,17.4V2094.8z M3006.5,1816.1
	c0,9.6-7.8,17.4-17.5,17.4h-203c-9.6,0-17.5-7.8-17.5-17.4v-223.6c0-9.6,7.8-17.4,17.5-17.4h203c9.6,0,17.5,7.8,17.5,17.4V1816.1z
	 M3006.5,1537.7c0,9.6-7.8,17.4-17.5,17.4h-203c-9.6,0-17.5-7.8-17.5-17.4V1314c0-9.6,7.8-17.4,17.5-17.4h203
	c9.6,0,17.5,7.8,17.5,17.4V1537.7z M3006.5,1259.2c0,9.6-7.8,17.4-17.5,17.4h-203c-9.6,0-17.5-7.8-17.5-17.4v-223.6
	c0-9.6,7.8-17.4,17.5-17.4h203c9.6,0,17.5,7.8,17.5,17.4V1259.2z M3006.5,982.6c0,9.6-7.8,17.4-17.5,17.4h-203
	c-9.6,0-17.5-7.8-17.5-17.4V758.9c0-9.6,7.8-17.4,17.5-17.4h203c9.6,0,17.5,7.8,17.5,17.4V982.6z M3006.5,704.2
	c0,9.6-7.8,17.4-17.5,17.4h-203c-9.6,0-17.5-7.8-17.5-17.4V480.5c0-9.6,7.8-17.4,17.5-17.4h203c9.6,0,17.5,7.8,17.5,17.4V704.2z
	 M3006.5,425.7c0,9.6-7.8,17.4-17.5,17.4h-203c-9.6,0-17.5-7.8-17.5-17.4V202.1c0-9.6,7.8-17.4,17.5-17.4h203
	c9.6,0,17.5,7.8,17.5,17.4V425.7z M3264.7,2651.6c0,9.6-7.8,17.4-17.5,17.4h-203.1c-9.6,0-17.5-7.8-17.5-17.4V2428
	c0-9.6,7.8-17.4,17.5-17.4h203.1c9.6,0,17.5,7.8,17.5,17.4V2651.6z M3264.7,2373.3c0,9.6-7.8,17.4-17.5,17.4h-203.1
	c-9.6,0-17.5-7.8-17.5-17.4v-223.7c0-9.6,7.8-17.4,17.5-17.4h203.1c9.6,0,17.5,7.8,17.5,17.4V2373.3z M3264.7,1537.7
	c0,9.6-7.8,17.4-17.5,17.4h-203.1c-9.6,0-17.5-7.8-17.5-17.4V1314c0-9.6,7.8-17.4,17.5-17.4h203.1c9.6,0,17.5,7.8,17.5,17.4V1537.7z
	 M3264.7,704.2c0,9.6-7.8,17.4-17.5,17.4h-203.1c-9.6,0-17.5-7.8-17.5-17.4V480.5c0-9.6,7.8-17.4,17.5-17.4h203.1
	c9.6,0,17.5,7.8,17.5,17.4V704.2z M3523.8,2651.6c0,9.6-7.8,17.4-17.5,17.4h-203.1c-9.6,0-17.5-7.8-17.5-17.4V2428
	c0-9.6,7.8-17.4,17.5-17.4h203.1c9.6,0,17.5,7.8,17.5,17.4V2651.6z M3523.9,2373.3c0,9.6-7.8,17.4-17.5,17.4h-203.1
	c-9.6,0-17.5-7.8-17.5-17.4v-223.7c0-9.6,7.8-17.4,17.5-17.4h203.1c9.6,0,17.5,7.8,17.5,17.4V2373.3z M3523.9,1537.7
	c0,9.6-7.8,17.4-17.5,17.4h-203.1c-9.6,0-17.5-7.8-17.5-17.4V1314c0-9.6,7.8-17.4,17.5-17.4h203.1c9.6,0,17.5,7.8,17.5,17.4V1537.7z
	 M3523.9,704.2c0,9.6-7.8,17.4-17.5,17.4h-203.1c-9.6,0-17.5-7.8-17.5-17.4V480.5c0-9.6,7.8-17.4,17.5-17.4h203.1
	c9.6,0,17.5,7.8,17.5,17.4V704.2z M3782,2651.6c0,9.6-7.8,17.4-17.5,17.4h-203.1c-9.6,0-17.5-7.8-17.5-17.4V2428
	c0-9.6,7.8-17.4,17.5-17.4h203.1c9.6,0,17.5,7.8,17.5,17.4V2651.6z M3782.1,2373.3c0,9.6-7.8,17.4-17.5,17.4h-203.1
	c-9.6,0-17.5-7.8-17.5-17.4v-223.7c0-9.6,7.8-17.4,17.5-17.4h203.1c9.6,0,17.5,7.8,17.5,17.4V2373.3z M3782.1,1537.7
	c0,9.6-7.8,17.4-17.5,17.4h-203.1c-9.6,0-17.5-7.8-17.5-17.4V1314c0-9.6,7.8-17.4,17.5-17.4h203.1c9.6,0,17.5,7.8,17.5,17.4V1537.7z
	 M3782.1,704.2c0,9.6-7.8,17.4-17.5,17.4h-203.1c-9.6,0-17.5-7.8-17.5-17.4V480.5c0-9.6,7.8-17.4,17.5-17.4h203.1
	c9.6,0,17.5,7.8,17.5,17.4V704.2z M4038.1,2651.6c0,9.6-7.8,17.4-17.5,17.4h-203.1c-9.6,0-17.5-7.8-17.5-17.4V2428
	c0-9.6,7.8-17.4,17.5-17.4h203.1c9.6,0,17.5,7.8,17.5,17.4V2651.6z M4038.2,2373.3c0,9.6-7.8,17.4-17.5,17.4h-203.1
	c-9.6,0-17.5-7.8-17.5-17.4v-223.7c0-9.6,7.8-17.4,17.5-17.4h203.1c9.6,0,17.5,7.8,17.5,17.4V2373.3z M4038.2,1537.7
	c0,9.6-7.8,17.4-17.5,17.4h-203.1c-9.6,0-17.5-7.8-17.5-17.4V1314c0-9.6,7.8-17.4,17.5-17.4h203.1c9.6,0,17.5,7.8,17.5,17.4V1537.7z
	 M4038.2,704.2c0,9.6-7.8,17.4-17.5,17.4h-203.1c-9.6,0-17.5-7.8-17.5-17.4V480.5c0-9.6,7.8-17.4,17.5-17.4h203.1
	c9.6,0,17.5,7.8,17.5,17.4V704.2z M4296.3,2651.6c0,9.6-7.8,17.4-17.5,17.4h-203.1c-9.6,0-17.5-7.8-17.5-17.4V2428
	c0-9.6,7.8-17.4,17.5-17.4h203.1c9.6,0,17.5,7.8,17.5,17.4V2651.6z M4296.4,2373.3c0,9.6-7.8,17.4-17.5,17.4h-203.1
	c-9.6,0-17.5-7.8-17.5-17.4v-223.7h0c0-9.6,7.8-17.4,17.5-17.4h203.1c9.6,0,17.5,7.8,17.5,17.4V2373.3z M4296.4,1537.7
	c0,9.6-7.8,17.4-17.5,17.4h-203.1c-9.6,0-17.5-7.8-17.5-17.4V1314h0c0-9.6,7.8-17.4,17.5-17.4h203.1c9.6,0,17.5,7.8,17.5,17.4
	V1537.7z M4296.4,704.2c0,9.6-7.8,17.4-17.5,17.4h-203.1c-9.6,0-17.5-7.8-17.5-17.4V480.5h0c0-9.6,7.8-17.4,17.5-17.4h203.1
	c9.6,0,17.5,7.8,17.5,17.4V704.2z M4555.5,2651.6c0,9.6-7.8,17.4-17.5,17.4h-203.1c-9.6,0-17.5-7.8-17.5-17.4V2428
	c0-9.6,7.8-17.4,17.5-17.4H4538c9.6,0,17.5,7.8,17.5,17.4V2651.6z M4555.5,2373.3c0,9.6-7.8,17.4-17.5,17.4h-203.1
	c-9.6,0-17.5-7.8-17.5-17.4v-223.7h0.1c0-9.6,7.8-17.4,17.5-17.4h203c9.6,0,17.5,7.8,17.5,17.4V2373.3z M4555.5,2094.8
	c0,9.6-7.8,17.4-17.5,17.4h-203.1c-9.6,0-17.5-7.8-17.5-17.4v-223.6c0-9.6,7.8-17.4,17.5-17.4H4538c9.6,0,17.5,7.8,17.5,17.4V2094.8
	z M4555.5,1816.1c0,9.6-7.8,17.4-17.5,17.4h-203.1c-9.6,0-17.5-7.8-17.5-17.4v-223.6c0-9.6,7.8-17.4,17.5-17.4H4538
	c9.6,0,17.5,7.8,17.5,17.4V1816.1z M4555.5,1537.7c0,9.6-7.8,17.4-17.5,17.4h-203.1c-9.6,0-17.5-7.8-17.5-17.4V1314h0.1
	c0-9.6,7.8-17.4,17.5-17.4h203c9.6,0,17.5,7.8,17.5,17.4V1537.7z M4555.5,1259.2c0,9.6-7.8,17.4-17.5,17.4h-203.1
	c-9.6,0-17.5-7.8-17.5-17.4v-223.6c0-9.6,7.8-17.4,17.5-17.4H4538c9.6,0,17.5,7.8,17.5,17.4V1259.2z M4555.5,982.6
	c0,9.6-7.8,17.4-17.5,17.4h-203.1c-9.6,0-17.5-7.8-17.5-17.4V758.9c0-9.6,7.8-17.4,17.5-17.4H4538c9.6,0,17.5,7.8,17.5,17.4V982.6z
	 M4555.5,704.2c0,9.6-7.8,17.4-17.5,17.4h-203.1c-9.6,0-17.5-7.8-17.5-17.4V480.5h0.1c0-9.6,7.8-17.4,17.5-17.4h203
	c9.6,0,17.5,7.8,17.5,17.4V704.2z M4538,443.1h-203.1c-9.6,0-17.5-7.8-17.5-17.4V202.1c0-9.6,7.8-17.4,17.5-17.4H4538
	c9.6,0,17.5,7.8,17.5,17.4v223.6C4555.5,435.3,4547.6,443.1,4538,443.1z"/>
</svg>
