<?xml version="1.0" encoding="utf-8"?>
<!-- Generator: Adobe Illustrator 19.1.0, SVG Export Plug-In . SVG Version: 6.00 Build 0)  -->
<!DOCTYPE svg PUBLIC "-//W3C//DTD SVG 1.1//EN" "http://www.w3.org/Graphics/SVG/1.1/DTD/svg11.dtd">
<svg version="1.1" id="Layer_1" xmlns="http://www.w3.org/2000/svg" xmlns:xlink="http://www.w3.org/1999/xlink" x="0px" y="0px"
	 viewBox="0 0 14.2 14.2" style="enable-background:new 0 0 14.2 14.2;" xml:space="preserve">
<style type="text/css">
	.st0{display:none;}
	.st1{display:inline;}
	.st2{fill:#FFFFFF;}
</style>
<g class="st0">
	<g class="st1">
		<path class="st2" d="M0.6,13.8v-3.5c0-0.1-0.1-0.3-0.3-0.3C0.2,10,0,10.1,0,10.3v3.5c0,0.1,0.1,0.3,0.3,0.3S0.6,14,0.6,13.8z"/>
		<path class="st2" d="M0.4,14.1h3.5c0.1,0,0.3-0.1,0.3-0.3c0-0.1-0.1-0.3-0.3-0.3H0.4c-0.1,0-0.3,0.1-0.3,0.3
			C0.1,14,0.2,14.1,0.4,14.1z"/>
		<path class="st2" d="M0.6,14l5.2-5.2c0.1-0.1,0.1-0.3,0-0.4c-0.1-0.1-0.3-0.1-0.4,0l-5.2,5.2L0.6,14z"/>
	</g>
	<g class="st1">
		<path class="st2" d="M13.6,0.4v3.5c0,0.1,0.1,0.3,0.3,0.3c0.1,0,0.3-0.1,0.3-0.3V0.4c0-0.1-0.1-0.3-0.3-0.3
			C13.7,0.1,13.6,0.3,13.6,0.4z"/>
		<path class="st2" d="M13.8,0.1h-3.5c-0.1,0-0.3,0.1-0.3,0.3c0,0.1,0.1,0.3,0.3,0.3h3.5c0.1,0,0.3-0.1,0.3-0.3
			C14,0.2,13.9,0.1,13.8,0.1z"/>
		<path class="st2" d="M13.6,0.2L8.4,5.4c-0.1,0.1-0.1,0.3,0,0.4s0.3,0.1,0.4,0L14,0.6L13.6,0.2z"/>
	</g>
</g>
<g>
	<g>
		<path d="M5.3,8.7v3.6c0,0.1,0.1,0.3,0.3,0.3c0.1,0,0.3-0.1,0.3-0.3V8.7c0-0.1-0.1-0.3-0.3-0.3C5.4,8.4,5.3,8.5,5.3,8.7z"/>
		<path d="M5.5,8.3H1.9c-0.1,0-0.3,0.1-0.3,0.3c0,0.1,0.1,0.3,0.3,0.3h3.6c0.1,0,0.3-0.1,0.3-0.3C5.8,8.4,5.6,8.3,5.5,8.3z"/>
		<path d="M5.3,8.5l-5.2,5.2C0,13.8,0,14,0.1,14.1s0.3,0.1,0.4,0l5.2-5.2L5.3,8.5z"/>
	</g>
	<g>
		<path d="M8.9,5.5V1.9c0-0.1-0.1-0.3-0.3-0.3c-0.1,0-0.3,0.1-0.3,0.3v3.6c0,0.1,0.1,0.3,0.3,0.3C8.8,5.7,8.9,5.6,8.9,5.5z"/>
		<path d="M8.7,5.8h3.6c0.1,0,0.3-0.1,0.3-0.3c0-0.1-0.1-0.3-0.3-0.3H8.7c-0.1,0-0.3,0.1-0.3,0.3C8.4,5.7,8.6,5.8,8.7,5.8z"/>
		<path d="M8.9,5.6l5.2-5.2c0.1-0.1,0.1-0.3,0-0.4s-0.3-0.1-0.4,0L8.5,5.3L8.9,5.6z"/>
	</g>
</g>
</svg>
