<?xml version="1.0" encoding="utf-8"?>
<!-- Generator: Adobe Illustrator 19.1.0, SVG Export Plug-In . SVG Version: 6.00 Build 0)  -->
<!DOCTYPE svg PUBLIC "-//W3C//DTD SVG 1.1//EN" "http://www.w3.org/Graphics/SVG/1.1/DTD/svg11.dtd">
<svg version="1.1" id="Layer_1" xmlns="http://www.w3.org/2000/svg" xmlns:xlink="http://www.w3.org/1999/xlink" x="0px" y="0px"
	 viewBox="0 0 12.6 12.5" style="enable-background:new 0 0 12.6 12.5;" xml:space="preserve">
<style type="text/css">
	.st0{fill:#000000;}
</style>
<g>
	<path class="st0" d="M6.5,9.1L0.4,3C0.3,3,0.2,3,0.1,3C0,3.1,0,3.3,0.1,3.4l6.1,6.1c0.1,0.1,0.2,0.1,0.3,0C6.5,9.3,6.5,9.2,6.5,9.1
		z"/>
	<path class="st0" d="M6.5,9.4l6.1-6.1c0.1-0.1,0.1-0.2,0-0.3C12.4,3,12.3,3,12.2,3L6.1,9.1c-0.1,0.1-0.1,0.2,0,0.3
		C6.2,9.5,6.4,9.5,6.5,9.4z"/>
</g>
</svg>
