<?xml version="1.0" encoding="utf-8"?>
<!-- Generator: Adobe Illustrator 21.1.0, SVG Export Plug-In . SVG Version: 6.00 Build 0)  -->
<svg version="1.1" id="mensen" xmlns="http://www.w3.org/2000/svg" xmlns:xlink="http://www.w3.org/1999/xlink" x="0px" y="0px"
	 viewBox="0 0 300 300" style="enable-background:new 0 0 300 300;" xml:space="preserve">
<style type="text/css">
	.st0{fill:#4C515D;}
	.st1{fill:#8D9099;}
</style>
<g>
	<rect class="st0" width="300" height="300"/>
	<g>
		<path class="st1" d="M183.3,142.1c-8.9,8.1-20.5,13.1-33.3,13.1s-24.4-5-33.3-13.1c-33.5,15.3-57.3,52.9-57.7,97.1h182
			C240.5,195.1,216.7,157.4,183.3,142.1z"/>
		<g>
			<path class="st1" d="M150,160.4c-28.7,0-52.1-23.4-52.1-52.1c0-28.7,23.4-52.1,52.1-52.1c28.7,0,52.1,23.4,52.1,52.1
				C202.1,137,178.7,160.4,150,160.4z"/>
			<path class="st0" d="M150,60.7c26.3,0,47.6,21.3,47.6,47.6s-21.3,47.6-47.6,47.6s-47.6-21.3-47.6-47.6S123.7,60.7,150,60.7
				 M150,51.7c-31.2,0-56.6,25.4-56.6,56.6s25.4,56.6,56.6,56.6s56.6-25.4,56.6-56.6S181.2,51.7,150,51.7L150,51.7z"/>
		</g>
	</g>
</g>
</svg>
