<?xml version="1.0" encoding="utf-8"?>
<!-- Generator: Adobe Illustrator 20.0.0, SVG Export Plug-In . SVG Version: 6.00 Build 0)  -->
<svg version="1.1" xmlns="http://www.w3.org/2000/svg" xmlns:xlink="http://www.w3.org/1999/xlink" x="0px" y="0px"
	 viewBox="0 0 240.9 240.9" style="enable-background:new 0 0 240.9 240.9;" xml:space="preserve">
<style type="text/css">
	.st0{display:none;}
	.st1{display:inline;}
	.st2{fill:#333333;}
	.st3{fill:none;stroke:#F4CB00;stroke-width:8.337;stroke-linecap:square;stroke-miterlimit:10;}
	.st4{fill:none;stroke:#00AFA2;stroke-width:8.337;stroke-linecap:square;stroke-miterlimit:10;}
	.st5{fill:none;stroke:#FFFFFF;stroke-width:8.337;stroke-miterlimit:10;}
	.st6{fill:none;stroke:#F4CB00;stroke-width:1.3215;stroke-linecap:square;stroke-miterlimit:10;}
	.st7{fill:none;stroke:#00AFA2;stroke-width:1.3215;stroke-linecap:square;stroke-miterlimit:10;}
	.st8{fill:#FFFFFF;}
	.st9{fill:none;stroke:#FFFFFF;stroke-width:0.75;stroke-linecap:square;stroke-miterlimit:10;}
	.st10{fill:none;stroke:#333333;stroke-width:8.337;stroke-miterlimit:10;}
	.st11{fill:none;stroke:#333333;stroke-width:0.75;stroke-linecap:square;stroke-miterlimit:10;}
</style>
<g id="PLUSS_LOGO_WIT" class="st0">
	<g id="logo_small" class="st1">
		<rect id="achtergrond" y="0" class="st2" width="240.9" height="240.9"/>
		<g id="pluss">
			<path class="st3" d="M11.4,127c0,16.5,0,32,0,48.5c0-0.7,0-0.2,0-0.9"/>
			<ellipse class="st4" cx="34.9" cy="122.6" rx="23.5" ry="23.5"/>
			<path class="st5" d="M94.6,130c0,10.1-6.3,16.1-14,16.1c-7.7,0-14-6.1-14-16.1c0,0,0-63,0-63"/>
			<path class="st5" d="M130.2,94.8c0,0,0,35.1,0,35.1c0,10.1-8,16.1-17.8,16.1c-9.8,0-17.8-6.1-17.8-16.1c0,0,0-35.1,0-35.1"/>
			<path class="st5" d="M154.1,122.6c0,0,11.6,0,11.6,0c6.6,0,10.6,5.3,10.6,11.8c0,6.5-4,11.8-10.6,11.8c0,0-53,0-53,0"/>
			<path class="st5" d="M213.9,99h-60.6c-6.6,0-10.6,5.3-10.6,11.8c0,6.5,4,11.8,10.6,11.8c0,0,11.6,0,11.6,0"/>
			<path class="st5" d="M191.7,122.6c0,0,11.6,0,11.6,0c6.6,0,10.6,5.3,10.6,11.8c0,6.5-4,11.8-10.6,11.8c0,0-90.6,0-90.6,0"/>
			<path class="st5" d="M214.2,99c0,0-23.4,0-23.4,0c-6.6,0-10.6,5.3-10.6,11.8c0,6.5,4,11.8,10.6,11.8c0,0,11.6,0,11.6,0"/>
		</g>
		<g id="design">
			<path class="st6" d="M140.3,168.9c0-4.4,0-9.2,0-13.7c0,0.2,0,0.1,0,0.2"/>
			<ellipse class="st7" cx="134.1" cy="169.3" rx="6.2" ry="6.2"/>
			<g>
				<path class="st8" d="M144.3,169.2c0-3.6,2.8-6.7,6.8-6.7c3,0,5.9,1.8,6.2,5.9c0,0.3-0.1,0.4-0.4,0.4h-11.2
					c-0.3,3.3,2.2,5.8,5.7,5.8c1.4,0,2.9-0.4,4.2-1.5c0.2-0.2,0.4-0.2,0.6,0.1l0.2,0.2c0.2,0.2,0.2,0.4-0.1,0.7
					c-1.5,1.3-3.3,1.7-4.9,1.7C147,175.8,144.3,172.9,144.3,169.2z M155.9,167.9c-0.5-3-2.7-4.1-4.9-4.1c-2.6,0-4.7,1.6-5.3,4.1
					H155.9z"/>
				<path class="st8" d="M159.5,173.6c-0.1-0.3,0-0.5,0.3-0.5l0.4-0.1c0.2-0.1,0.4,0,0.5,0.2c0.6,0.9,1.7,1.6,3.1,1.6
					c1.6,0,2.9-1,2.9-2.4c0-1.1-0.7-1.8-2-2.3l-1.9-0.6c-1.6-0.5-2.9-1.4-2.9-3.2c0-1.8,1.4-3.5,3.9-3.5c1.4,0,2.7,0.6,3.5,2
					c0.1,0.3,0,0.5-0.3,0.5l-0.3,0.1c-0.3,0.1-0.4,0-0.5-0.2c-0.5-0.8-1.4-1.3-2.3-1.3c-1.7,0-2.7,1.2-2.7,2.4c0,1.3,1,1.9,2,2.2
					l1.9,0.6c2.1,0.6,2.8,1.9,2.8,3.3c0,2.2-2,3.6-4.2,3.6C161.9,175.8,160.3,175,159.5,173.6z"/>
				<path class="st8" d="M171.1,158.4c0-0.6,0.4-1.1,1-1.1c0.6,0,1,0.4,1,1.1c0,0.7-0.4,1.1-1,1.1
					C171.5,159.5,171.1,159.1,171.1,158.4z M171.5,175.1v-11.8c0-0.3,0.2-0.4,0.4-0.4h0.5c0.3,0,0.4,0.2,0.4,0.4v11.8
					c0,0.3-0.2,0.4-0.4,0.4h-0.5C171.7,175.5,171.5,175.4,171.5,175.1z"/>
				<path class="st8" d="M178,180.1c-0.2-0.1-0.3-0.3-0.1-0.6l0.2-0.3c0.1-0.3,0.3-0.3,0.6-0.2c1.4,1,2.9,1.3,4.5,1.3
					c3.1,0,5.2-2,5.2-5.1v-2.8c-1,2.2-3,3.4-5.4,3.4c-3.9,0-6.4-2.9-6.4-6.6c0-3.6,2.4-6.6,6.4-6.6c2.5,0,4.4,1.2,5.5,3.4v-2.7
					c0-0.3,0.2-0.4,0.4-0.4h0.5c0.3,0,0.4,0.2,0.4,0.4v12c0,3.9-2.8,6.2-6.5,6.2C181.1,181.5,179.5,181.1,178,180.1z M188.3,169.2
					c0-3.1-2.1-5.4-5.4-5.4c-3.3,0-5.2,2.5-5.2,5.4c0,3,2,5.5,5.2,5.5C186,174.7,188.3,172.4,188.3,169.2z"/>
				<path class="st8" d="M194.1,175.1v-11.8c0-0.3,0.2-0.4,0.4-0.4h0.4c0.3,0,0.4,0.2,0.4,0.4v2.4c0.9-2.3,3-3.2,4.6-3.2
					c2.6,0,5.2,1.4,5.2,5.7v6.8c0,0.3-0.2,0.4-0.4,0.4h-0.5c-0.3,0-0.4-0.2-0.4-0.4v-6.8c0-3.5-2.1-4.5-4-4.5
					c-1.5,0-4.5,1.1-4.5,5.3v6c0,0.3-0.2,0.4-0.4,0.4h-0.4C194.2,175.5,194.1,175.4,194.1,175.1z"/>
			</g>
		</g>
		<g id="pluss_icon">
			<circle class="st9" cx="226.7" cy="80.7" r="6.1"/>
			<line class="st9" x1="216.4" y1="80.7" x2="237" y2="80.7"/>
			<line class="st9" x1="226.7" y1="91" x2="226.7" y2="70.4"/>
		</g>
	</g>
</g>
<g id="PLUSS_LOGO_DONKER">
	<g id="logo_small_1_">
		<g id="pluss_1_">
			<path class="st3" d="M11.4,127c0,16.5,0,32,0,48.5c0-0.7,0-0.2,0-0.9"/>
			<ellipse class="st4" cx="34.9" cy="122.6" rx="23.5" ry="23.5"/>
			<path class="st10" d="M94.6,130c0,10.1-6.3,16.1-14,16.1c-7.7,0-14-6.1-14-16.1c0,0,0-63,0-63"/>
			<path class="st10" d="M130.2,94.8c0,0,0,35.1,0,35.1c0,10.1-8,16.1-17.8,16.1c-9.8,0-17.8-6.1-17.8-16.1c0,0,0-35.1,0-35.1"/>
			<path class="st10" d="M154.1,122.6c0,0,11.6,0,11.6,0c6.6,0,10.6,5.3,10.6,11.8c0,6.5-4,11.8-10.6,11.8c0,0-53,0-53,0"/>
			<path class="st10" d="M213.9,99h-60.6c-6.6,0-10.6,5.3-10.6,11.8c0,6.5,4,11.8,10.6,11.8c0,0,11.6,0,11.6,0"/>
			<path class="st10" d="M191.7,122.6c0,0,11.6,0,11.6,0c6.6,0,10.6,5.3,10.6,11.8c0,6.5-4,11.8-10.6,11.8c0,0-90.6,0-90.6,0"/>
			<path class="st10" d="M214.2,99c0,0-23.4,0-23.4,0c-6.6,0-10.6,5.3-10.6,11.8c0,6.5,4,11.8,10.6,11.8c0,0,11.6,0,11.6,0"/>
		</g>
		<g id="design_1_">
			<path class="st6" d="M140.3,168.9c0-4.4,0-9.2,0-13.7c0,0.2,0,0.1,0,0.2"/>
			<ellipse class="st7" cx="134.1" cy="169.3" rx="6.2" ry="6.2"/>
			<g>
				<path class="st2" d="M144.3,169.2c0-3.6,2.8-6.7,6.8-6.7c3,0,5.9,1.8,6.2,5.9c0,0.3-0.1,0.4-0.4,0.4h-11.2
					c-0.3,3.3,2.2,5.8,5.7,5.8c1.4,0,2.9-0.4,4.2-1.5c0.2-0.2,0.4-0.2,0.6,0.1l0.2,0.2c0.2,0.2,0.2,0.4-0.1,0.7
					c-1.5,1.3-3.3,1.7-4.9,1.7C147,175.8,144.3,172.9,144.3,169.2z M155.9,167.9c-0.5-3-2.7-4.1-4.9-4.1c-2.6,0-4.7,1.6-5.3,4.1
					H155.9z"/>
				<path class="st2" d="M159.5,173.6c-0.1-0.3,0-0.5,0.3-0.5l0.4-0.1c0.2-0.1,0.4,0,0.5,0.2c0.6,0.9,1.7,1.6,3.1,1.6
					c1.6,0,2.9-1,2.9-2.4c0-1.1-0.7-1.8-2-2.3l-1.9-0.6c-1.6-0.5-2.9-1.4-2.9-3.2c0-1.8,1.4-3.5,3.9-3.5c1.4,0,2.7,0.6,3.5,2
					c0.1,0.3,0,0.5-0.3,0.5l-0.3,0.1c-0.3,0.1-0.4,0-0.5-0.2c-0.5-0.8-1.4-1.3-2.3-1.3c-1.7,0-2.7,1.2-2.7,2.4c0,1.3,1,1.9,2,2.2
					l1.9,0.6c2.1,0.6,2.8,1.9,2.8,3.3c0,2.2-2,3.6-4.2,3.6C161.9,175.8,160.3,175,159.5,173.6z"/>
				<path class="st2" d="M171.1,158.4c0-0.6,0.4-1.1,1-1.1c0.6,0,1,0.4,1,1.1c0,0.7-0.4,1.1-1,1.1
					C171.5,159.5,171.1,159.1,171.1,158.4z M171.5,175.1v-11.8c0-0.3,0.2-0.4,0.4-0.4h0.5c0.3,0,0.4,0.2,0.4,0.4v11.8
					c0,0.3-0.2,0.4-0.4,0.4h-0.5C171.7,175.5,171.5,175.4,171.5,175.1z"/>
				<path class="st2" d="M178,180.1c-0.2-0.1-0.3-0.3-0.1-0.6l0.2-0.3c0.1-0.3,0.3-0.3,0.6-0.2c1.4,1,2.9,1.3,4.5,1.3
					c3.1,0,5.2-2,5.2-5.1v-2.8c-1,2.2-3,3.4-5.4,3.4c-3.9,0-6.4-2.9-6.4-6.6c0-3.6,2.4-6.6,6.4-6.6c2.5,0,4.4,1.2,5.5,3.4v-2.7
					c0-0.3,0.2-0.4,0.4-0.4h0.5c0.3,0,0.4,0.2,0.4,0.4v12c0,3.9-2.8,6.2-6.5,6.2C181.1,181.5,179.5,181.1,178,180.1z M188.3,169.2
					c0-3.1-2.1-5.4-5.4-5.4c-3.3,0-5.2,2.5-5.2,5.4c0,3,2,5.5,5.2,5.5C186,174.7,188.3,172.4,188.3,169.2z"/>
				<path class="st2" d="M194.1,175.1v-11.8c0-0.3,0.2-0.4,0.4-0.4h0.4c0.3,0,0.4,0.2,0.4,0.4v2.4c0.9-2.3,3-3.2,4.6-3.2
					c2.6,0,5.2,1.4,5.2,5.7v6.8c0,0.3-0.2,0.4-0.4,0.4h-0.5c-0.3,0-0.4-0.2-0.4-0.4v-6.8c0-3.5-2.1-4.5-4-4.5
					c-1.5,0-4.5,1.1-4.5,5.3v6c0,0.3-0.2,0.4-0.4,0.4h-0.4C194.2,175.5,194.1,175.4,194.1,175.1z"/>
			</g>
		</g>
		<g id="pluss_icon_1_">
			<circle class="st11" cx="226.7" cy="80.7" r="6.1"/>
			<line class="st11" x1="216.4" y1="80.7" x2="237" y2="80.7"/>
			<line class="st11" x1="226.7" y1="91" x2="226.7" y2="70.4"/>
		</g>
	</g>
</g>
</svg>
