<?xml version="1.0" encoding="utf-8"?>
<!-- Generator: Adobe Illustrator 21.1.0, SVG Export Plug-In . SVG Version: 6.00 Build 0)  -->
<svg version="1.1" id="Laag_1" xmlns="http://www.w3.org/2000/svg" xmlns:xlink="http://www.w3.org/1999/xlink" x="0px" y="0px"
	 viewBox="0 0 100 100" style="enable-background:new 0 0 100 100;" xml:space="preserve">
<style type="text/css">
	.st0{fill:none;stroke:#000000;stroke-width:3.7;stroke-linecap:round;stroke-linejoin:round;stroke-miterlimit:10;}
</style>
<path class="st0" d="M89,43.2c0,1.9-0.3,3.8-0.8,5.6s-1.3,3.5-2.3,5.2c-1,1.6-2.2,3.2-3.6,4.7s-3,2.8-4.8,4.1s-3.7,2.4-5.8,3.4
	c-2.1,1-4.3,1.8-6.6,2.5c-2.3,0.7-4.8,1.2-7.3,1.6s-5.2,0.6-7.9,0.6C40.1,77,37,79,28.7,84.3c-0.2-7.6-0.3-10.6-0.5-18.2
	c-2.1-1-4-2.1-5.8-3.4c-1.8-1.2-3.4-2.6-4.8-4.1s-2.6-3-3.6-4.7c-1-1.6-1.8-3.4-2.3-5.2S11,45.1,11,43.2c0-1.9,0.3-3.8,0.8-5.6
	s1.3-3.5,2.3-5.2s2.2-3.2,3.6-4.7s3-2.8,4.8-4.1c1.8-1.2,3.7-2.4,5.8-3.4s4.3-1.8,6.6-2.5s4.8-1.2,7.3-1.6s5.2-0.6,7.9-0.6
	s5.3,0.2,7.9,0.6c2.5,0.4,5,0.9,7.3,1.6s4.5,1.6,6.6,2.5c2.1,1,4,2.1,5.8,3.4c1.8,1.2,3.4,2.6,4.8,4.1s2.6,3,3.6,4.7
	s1.8,3.4,2.3,5.2S89,41.3,89,43.2z"/>
</svg>
