<?xml version="1.0" encoding="utf-8"?>
<!-- Generator: Adobe Illustrator 21.1.0, SVG Export Plug-In . SVG Version: 6.00 Build 0)  -->
<svg version="1.1" id="Laag_1" xmlns="http://www.w3.org/2000/svg" xmlns:xlink="http://www.w3.org/1999/xlink" x="0px" y="0px"
	 viewBox="0 0 100 100" style="enable-background:new 0 0 100 100;" xml:space="preserve">
<style type="text/css">
	.st0{display:none;}
	.st1{display:inline;}
	.st2{fill:url(#SVGID_1_);}
	.st3{fill:url(#SVGID_2_);}
	.st4{display:inline;fill:none;stroke:#FFFFFF;stroke-width:3.7;stroke-linecap:round;stroke-linejoin:round;stroke-miterlimit:10;}
</style>
<g id="HOME">
</g>
<g id="ORGANITATIE">
</g>
<g id="DOCUMENTEN">
</g>
<g id="OBJECTEN" class="st0">
	<g>
		<g class="st1">
			
				<linearGradient id="SVGID_1_" gradientUnits="userSpaceOnUse" x1="34.8" y1="131.9567" x2="34.8" y2="-33.0999" gradientTransform="matrix(1 0 0 -1 0 99.51)">
				<stop  offset="0" style="stop-color:#FFFFFF"/>
				<stop  offset="1" style="stop-color:#FFFFFF"/>
			</linearGradient>
			<path class="st2" d="M11.8,90c-1,0-1.8-0.8-1.8-1.8v-46c0-1,0.8-1.8,1.8-1.8h46c1,0,1.8,0.8,1.8,1.8v46c0,1-0.8,1.8-1.8,1.8H11.8
				z M13.7,86.3H56V44H13.7V86.3z"/>
		</g>
		<g class="st1">
			
				<linearGradient id="SVGID_2_" gradientUnits="userSpaceOnUse" x1="65.2" y1="131.9567" x2="65.2" y2="-33.0998" gradientTransform="matrix(1 0 0 -1 0 99.51)">
				<stop  offset="0" style="stop-color:#FFFFFF"/>
				<stop  offset="1" style="stop-color:#FFFFFF"/>
			</linearGradient>
			<path class="st3" d="M68.6,59.7c-1,0-1.8-0.8-1.8-1.8s0.8-1.8,1.8-1.8h17.7V13.7H44v17.7c0,1-0.8,1.8-1.8,1.8s-1.8-0.8-1.8-1.8
				V11.8c0-1,0.8-1.8,1.8-1.8h46c1,0,1.8,0.8,1.8,1.8v46c0,1-0.8,1.8-1.8,1.8H68.6V59.7z"/>
		</g>
	</g>
	<rect x="12" y="42" class="st4" width="46" height="46"/>
	<polyline class="st4" points="42,32 42,12 88,12 88,58 68,58 	"/>
</g>
<g id="EISEN">
</g>
<g id="ACTIVITEITEN">
</g>
<g id="VERIFICATIES">
</g>
<g id="PROJECTCONTROLE">
</g>
<g id="RISICOS">
</g>
<g id="INTERACTIEF">
</g>
<g id="ZOEKEN">
</g>
<g stroke="#FFFFFF" stroke-width="4" fill="#FFFFFF">
	<path d="M65.6,90.1H32c-0.8,0-1.4-0.5-1.7-1.3l-16.6-60c-0.1-0.5,0-1.1,0.3-1.5c0.3-0.4,0.8-0.7,1.4-0.7h66.8c0.5,0,1,0.3,1.4,0.7
		c0.3,0.4,0.4,1,0.3,1.5l-16.7,60C67,89.5,66.4,90.1,65.6,90.1z M33.4,86.6h30.9L80,30.1H17.8L33.4,86.6z"/>
</g>
<g stroke="#FFFFFF" stroke-width="4" fill="#FFFFFF">
	<path d="M82.1,18.7H15.3c-1,0-1.7-0.8-1.7-1.7c0-1,0.8-1.7,1.7-1.7h66.8c1,0,1.7,0.8,1.7,1.7C83.8,18,83.1,18.7,82.1,18.7z"/>
</g>
<g stroke="#FFFFFF" stroke-width="4" fill="#FFFFFF">
	<path d="M48.9,18.7c-1,0-1.7-0.8-1.7-1.7v-6.4c0-1,0.8-1.7,1.7-1.7c1,0,1.7,0.8,1.7,1.7V17C50.6,18,49.8,18.7,48.9,18.7z"/>
</g>
</svg>
