<?xml version="1.0" encoding="utf-8"?>
<!-- Generator: Adobe Illustrator 18.1.1, SVG Export Plug-In . SVG Version: 6.00 Build 0)  -->
<!DOCTYPE svg PUBLIC "-//W3C//DTD SVG 1.1//EN" "http://www.w3.org/Graphics/SVG/1.1/DTD/svg11.dtd">
<svg version="1.1" id="Layer_1" xmlns="http://www.w3.org/2000/svg" xmlns:xlink="http://www.w3.org/1999/xlink" x="0px" y="0px"
	 viewBox="0 0 85 85" enable-background="new 0 0 85 85" xml:space="preserve">
<g display="none">
	<path display="inline" fill="#B2B3B5" d="M71.8,41.8h-3.2c-0.4-13.8-11.5-25-25.3-25.3v-3.2h-1.5v3.2C28,16.8,16.8,28,16.4,41.8
		h-3.2v1.5h3.2c0.4,13.8,11.5,25,25.3,25.3v3.2h1.5v-3.2c13.8-0.4,25-11.5,25.3-25.3h3.2V41.8z M66.6,41.8h-7.2
		C59,33.1,52,26.1,43.3,25.7v-7.2C56,18.8,66.2,29.1,66.6,41.8z M41.8,43.3v5.1c-2.7-0.3-4.8-2.4-5.1-5.1H41.8z M36.7,41.8
		c0.3-2.7,2.4-4.8,5.1-5.1v5.1H36.7z M43.3,43.3h5.1c-0.3,2.7-2.4,4.8-5.1,5.1V43.3z M43.3,41.8v-5.1c2.7,0.3,4.8,2.4,5.1,5.1H43.3z
		 M41.8,34.7C38,35,35,38,34.7,41.8h-7c0.4-7.6,6.5-13.7,14.1-14.1V34.7z M34.7,43.3C35,47,38,50,41.8,50.4v7
		c-7.6-0.4-13.7-6.5-14.1-14.1H34.7z M43.3,50.4C47,50,50,47,50.4,43.3h7C57,50.9,50.9,57,43.3,57.4V50.4z M50.4,41.8
		C50,38,47,35,43.3,34.7v-7c7.6,0.4,13.7,6.5,14.1,14.1H50.4z M41.8,18.4v7.2c-8.7,0.4-15.7,7.4-16.1,16.1h-7.2
		C18.8,29.1,29.1,18.8,41.8,18.4z M18.4,43.3h7.2C26.1,52,33.1,59,41.8,59.4v7.2C29.1,66.2,18.8,56,18.4,43.3z M43.3,66.6v-7.2
		C52,59,59,52,59.4,43.3h7.2C66.2,56,56,66.2,43.3,66.6z"/>
	<circle display="inline" fill="#B2B3B5" cx="42.7" cy="42.4" r="6.9"/>
</g>
<g display="none">
	<rect x="39.9" y="14.8" display="inline" fill="#B1B3B4" width="2.7" height="16.3"/>
	<rect x="39.9" y="53.9" display="inline" fill="#B1B3B4" width="2.7" height="16.3"/>
	<rect x="52.6" y="41.2" display="inline" fill="#B1B3B4" width="16.3" height="2.7"/>
	
		<rect x="56.8" y="24.6" transform="matrix(0.5 0.866 -0.866 0.5 57.4516 -33.9996)" display="inline" fill="#B1B3B4" width="2.7" height="16.3"/>
	
		<rect x="57.2" y="44.2" transform="matrix(-0.5 0.866 -0.866 -0.5 133.1888 27.8673)" display="inline" fill="#B1B3B4" width="2.7" height="16.3"/>
	
		<rect x="50" y="17.1" transform="matrix(0.866 0.5 -0.5 0.866 19.5125 -22.2922)" display="inline" fill="#B1B3B4" width="2.7" height="16.3"/>
	
		<rect x="50" y="51.3" transform="matrix(0.866 -0.5 0.5 0.866 -22.8599 33.6458)" display="inline" fill="#B1B3B4" width="2.7" height="16.3"/>
	
		<circle display="inline" fill="none" stroke="#B1B3B4" stroke-width="1.8963" stroke-miterlimit="10" cx="41.2" cy="42.5" r="11.4"/>
	
		<rect x="21.9" y="23.8" transform="matrix(0.5736 -0.8192 0.8192 0.5736 -15.9593 33.334)" display="inline" fill="#B1B3B4" width="4.3" height="16.3"/>
	
		<rect x="21.9" y="44.2" transform="matrix(0.5736 0.8192 -0.8192 0.5736 53.1589 2.6467)" display="inline" fill="#B1B3B4" width="4.3" height="16.3"/>
	
		<rect x="36.7" y="16.6" transform="matrix(0.5736 -0.8192 0.8192 0.5736 -1.2209 40.27)" display="inline" fill="#B1B3B4" width="2.7" height="9.3"/>
	
		<rect x="36.7" y="59.3" transform="matrix(-0.7071 -0.7071 0.7071 -0.7071 19.7364 136.1635)" display="inline" fill="#B1B3B4" width="2.7" height="9.3"/>
	
		<rect x="19.9" y="44.3" transform="matrix(0.342 -0.9397 0.9397 0.342 -32.0499 52.2001)" display="inline" fill="#B1B3B4" width="2.7" height="9.3"/>
	
		<rect x="24.4" y="51.8" transform="matrix(-0.9816 -0.1908 0.1908 -0.9816 40.1701 116.8693)" display="inline" fill="#B1B3B4" width="2.7" height="9.3"/>
	
		<rect x="24.2" y="22.6" transform="matrix(0.9931 -0.1174 0.1174 0.9931 -3.0243 3.1902)" display="inline" fill="#B1B3B4" width="2.7" height="9.3"/>
	
		<rect x="19.8" y="30.3" transform="matrix(-0.2713 -0.9625 0.9625 -0.2713 -6.8038 64.8456)" display="inline" fill="#B1B3B4" width="2.7" height="9.3"/>
</g>
<g display="none">
	<path display="inline" fill="#B2B3B5" d="M56.7,41.6c0,0.9-0.7,1.6-1.6,1.6h-5.3c-0.9,0-1.6-0.7-1.6-1.6v-5.4
		c0-0.9,0.7-1.6,1.6-1.6h5.3c0.9,0,1.6,0.7,1.6,1.6V41.6z M66.1,38.6c0-11.6-11.8-21-26.3-21c-14.5,0-26.3,9.4-26.3,21
		c0,5.6,2.7,10.7,7.2,14.4l-0.1,0c4.5,3.9,4.3,5.8,3.9,7.5c-0.3,1.3-2.8,4.4-2.8,4.4s9.3-4.9,18.3-5.3c0.4,0,1.6,0,1.8-0.1
		C55.4,58.6,66.1,49.6,66.1,38.6z M22.5,36.2c0-0.9,0.7-1.6,1.6-1.6h5.3c0.9,0,1.6,0.7,1.6,1.6v5.4c0,0.9-0.7,1.6-1.6,1.6h-5.3
		c-0.9,0-1.6-0.7-1.6-1.6V36.2z M43.9,41.6c0,0.9-0.7,1.6-1.6,1.6H37c-0.9,0-1.6-0.7-1.6-1.6v-5.4c0-0.9,0.7-1.6,1.6-1.6h5.3
		c0.9,0,1.6,0.7,1.6,1.6V41.6z"/>
	<g display="inline">
		<path fill="#B2B3B5" d="M68.5,43.1c1,1.7,1.6,3.5,1.6,5.4c0,2.8-1.2,5.6-3.6,7.9c-0.2,0.2-0.5,0.4-0.8,0.7l0,0l0,0
			c-2.8,2.9-2.1,5.6-1.8,6.9c0,0.1,0,0.1,0,0.1c-3.1-1.1-7.3-2.3-11.5-2.3c-0.3,0-0.5,0-0.5,0l-0.2-0.1l-0.2,0
			c-1.4,0-2.9-0.2-4.2-0.4C57.8,58.9,66.1,51.9,68.5,43.1 M67.6,39.6c-1,11.4-12.5,20.4-26.8,21.2c3.1,1.6,6.8,2.5,10.7,2.5
			c0.2,0.1,0.5,0.1,1,0.1c7.4,0,15.2,4,15.2,4s-2-2.3-2.2-3.3c-0.3-1.2-1.2-3.3,1.3-5.9c0.3-0.3,0.6-0.5,0.8-0.8l0,0
			c2.5-2.5,4-5.6,4-8.9C71.6,45.2,70.1,42.1,67.6,39.6L67.6,39.6z"/>
	</g>
</g>
<g display="none">
	<rect x="11.7" y="30.8" display="inline" fill="#B2B3B5" width="20.1" height="17.3"/>
	<path display="inline" fill="#B2B3B5" d="M34.3,39.5v8.7l33.4,14.4v-23v-23L34.3,30.8V39.5z M37.9,39.5v-6.3l26.3-11.3v17.7v17.7
		L37.9,45.8V39.5z"/>
	<rect x="69.8" y="35" display="inline" fill="#B2B3B5" width="3.5" height="9"/>
	<polygon display="inline" fill="#B2B3B5" points="28.2,50.2 17.9,50.2 20.9,68.6 21.6,68.6 31.2,68.6 33.8,68.6 33.8,65.1 
		30.6,65.1 	"/>
	<polygon display="inline" fill="#B2B3B5" points="65.9,39.5 65.9,19.6 36.2,32.3 36.2,39.5 36.2,46.6 65.9,59.4 	"/>
</g>
<path display="none" fill-rule="evenodd" clip-rule="evenodd" fill="#B2B3B5" d="M72.7,56.5V61c0,3.9-7.3,7-16.3,7
	c-9,0-16.3-3.1-16.3-7v-4.6l0,0c0-0.1,0-0.1,0-0.2c1,1.1,2.4,2.1,4.2,2.8c6.8,2.9,17.4,2.9,24.2,0c1.8-0.8,3.2-1.7,4.2-2.8
	C72.7,56.4,72.7,56.4,72.7,56.5L72.7,56.5L72.7,56.5z M72.7,40.2v4.6c0,3.9-7.3,7-16.3,7c-9,0-16.3-3.1-16.3-7v-4.6l0,0
	c0-3.9,7.3-7,16.3-7C65.4,33.1,72.7,36.3,72.7,40.2L72.7,40.2L72.7,40.2z M57.5,24L57.5,24c0-3.9-7.3-7-16.3-7s-16.3,3.1-16.3,7v0
	v4.6c0,3.9,7.3,7,16.3,7l0.1,0c0.8-0.6,1.8-1.2,3-1.7c3.3-1.4,7.4-2.1,11.6-2.2c1.1-0.9,1.7-2,1.7-3.1V24L57.5,24z M35.3,39.6
	L35.3,39.6c-2.9-2.6-10.1,0.8-16.1,7.5c-6,6.7-8.5,14.3-5.7,16.8l0,0l3.4,3c2.9,2.6,10.1-0.8,16.1-7.5c6-6.7,8.5-14.3,5.7-16.8
	L35.3,39.6L35.3,39.6z M72.7,48.3L72.7,48.3c0-0.1,0-0.1,0-0.2c-1,1.1-2.4,2.1-4.2,2.8c-6.8,2.9-17.4,2.9-24.2,0
	c-1.3-0.6-2.5-1.2-3.4-2c-0.1,0.3-0.2,0.6-0.3,1c-0.2,0.5-0.4,1-0.6,1.5v1.4c0,3.9,7.3,7,16.3,7c9,0,16.3-3.1,16.3-7V48.3L72.7,48.3
	z M20.4,48.1c5.1-5.7,11-8.9,13-7.1c2,1.8-0.5,7.9-5.7,13.7c-5.1,5.7-11,8.9-13,7.1C12.7,60,15.2,53.8,20.4,48.1L20.4,48.1z
	 M38.6,60c-1.3-0.1-2.5-0.2-3.7-0.4c1.5-1.7,2.8-3.6,3.8-5.5c0.1,0.2,0.1,0.4,0.2,0.6c-0.2,0.6-0.4,1.2-0.4,1.8
	C38.6,57.6,38.6,58.8,38.6,60L38.6,60z M26.2,39.4c-0.8-0.8-1.3-1.8-1.3-2.7v-4.6v0c0-0.1,0-0.1,0-0.2c1,1.1,2.4,2.1,4.2,2.8
	c3,1.3,6.8,2,10.7,2.2c-0.8,1-1.2,2-1.2,3.1c0,0.2,0,0.3,0,0.5l-2.3-2.1c-1.9-1.7-5-1.6-8.4,0C27.3,38.8,26.7,39.1,26.2,39.4
	L26.2,39.4z M41.2,18.5c7.7,0,14,2.2,14,4.9c0,2.7-6.3,4.9-14,4.9c-7.7,0-14-2.2-14-4.9C27.2,20.7,33.5,18.5,41.2,18.5L41.2,18.5z
	 M56.4,34.7c-7.7,0-14,2.2-14,4.9c0,2.7,6.3,4.9,14,4.9c7.7,0,14-2.2,14-4.9C70.3,36.9,64.1,34.7,56.4,34.7z"/>
<g display="none">
	<path display="inline" fill="#B2B3B5" d="M50,69.7c0,0.9-0.7,1.6-1.6,1.6H36.8c-0.9,0-1.6-0.7-1.6-1.6l0,0c0-0.9,0.7-1.6,1.6-1.6
		h11.5C49.2,68,50,68.8,50,69.7L50,69.7z"/>
	<path display="inline" fill="#B2B3B5" d="M47.6,73.3c0,0.9-0.5,1.6-1.1,1.6h-7.8c-0.6,0-1.1-0.7-1.1-1.6l0,0c0-0.9,0.5-1.6,1.1-1.6
		h7.8C47.1,71.7,47.6,72.4,47.6,73.3L47.6,73.3z"/>
	<path display="inline" fill="#B2B3B5" d="M50,65.8c0,0.9-0.7,1.6-1.6,1.6H36.8c-0.9,0-1.6-0.7-1.6-1.6l0,0c0-0.9,0.7-1.6,1.6-1.6
		h11.5C49.2,64.2,50,64.9,50,65.8L50,65.8z"/>
	<g display="inline">
		<path fill="#B2B3B5" d="M42.8,26c-8.7,0-15.8,7.1-15.8,15.8c0,5.6,4.8,10.6,4.8,10.6c1.5,1.5,2.7,4.5,2.7,6.6v0.7
			c0,2.1,1.7,3.8,3.8,3.8h8.5c2.1,0,3.8-1.7,3.8-3.8v-0.4c0-2.1,1.2-5.1,2.7-6.5c0,0,5.2-5.1,5.2-11C58.6,33.1,51.5,26,42.8,26z
			 M52.5,51.5c-1.5,1.5-2.7,4.3-2.7,6.3s-1.7,3.6-3.8,3.6h-6.6c-2.1,0-3.8-1.7-3.8-3.7c0-2-1.2-5-2.7-6.5c0,0-3.9-4.1-3.9-9.1
			c0-7.7,6.2-13.9,13.9-13.9c7.7,0,13.9,6.2,13.9,13.9C56.8,47.3,52.5,51.5,52.5,51.5z"/>
	</g>
	<path display="inline" fill="#B2B3B5" d="M43.6,20.8c0,0.6-0.5,1.1-1.1,1.1l0,0c-0.6,0-1.1-0.5-1.1-1.1v-9.6c0-0.6,0.5-1.1,1.1-1.1
		l0,0c0.6,0,1.1,0.5,1.1,1.1V20.8z"/>
	<path display="inline" fill="#B2B3B5" d="M73.1,42.5c0.6,0,1.1,0.5,1.1,1.1l0,0c0,0.6-0.5,1.1-1.1,1.1h-9.7c-0.6,0-1.1-0.5-1.1-1.1
		l0,0c0-0.6,0.5-1.1,1.1-1.1H73.1z"/>
	<path display="inline" fill="#B2B3B5" d="M65,20.6c0.4-0.4,1.1-0.4,1.5,0l0,0c0.4,0.4,0.4,1.1,0,1.5L59.7,29
		c-0.4,0.4-1.1,0.4-1.5,0l0,0c-0.4-0.4-0.4-1.1,0-1.5L65,20.6z"/>
	<path display="inline" fill="#B2B3B5" d="M11.9,42.5c-0.6,0-1.1,0.5-1.1,1.1l0,0c0,0.6,0.5,1.1,1.1,1.1h9.7c0.6,0,1.1-0.5,1.1-1.1
		l0,0c0-0.6-0.5-1.1-1.1-1.1H11.9z"/>
	<path display="inline" fill="#B2B3B5" d="M20,20.7c-0.4-0.4-1.1-0.4-1.5,0l0,0c-0.4,0.4-0.4,1.1,0,1.5l6.8,6.8
		c0.4,0.4,1.1,0.4,1.5,0l0,0c0.4-0.4,0.4-1.1,0-1.5L20,20.7z"/>
</g>
<g display="none">
	
		<rect x="14.2" y="25.8" display="inline" fill="none" stroke="#B1B3B4" stroke-width="1.9193" stroke-miterlimit="10" width="56.6" height="38.4"/>
	<rect x="19.5" y="20.9" display="inline" fill="#B1B3B4" width="7.2" height="4.5"/>
	<rect x="58.3" y="20.9" display="inline" fill="#B1B3B4" width="7.2" height="4.5"/>
	<polygon display="inline" fill="#B1B3B4" points="60.9,29.7 47,29.7 27.1,60.7 40.9,60.7 	"/>
	<polyline display="inline" fill="#B1B3B4" points="67.4,29.7 63.6,29.7 58.6,37.5 53.6,45.2 48.6,52.9 43.6,60.7 47,60.7 
		50.5,60.7 53.9,60.7 57.4,60.7 62.4,52.9 67.4,45.2 	"/>
	<polygon display="inline" fill="#B1B3B4" points="60.5,60.7 67.9,48.2 67.8,60.7 	"/>
</g>
<g>
	<rect x="36.2" y="39.1" fill="#B1B3B4" width="12.5" height="9.7"/>
	<path fill="#B1B3B4" d="M54.2,48.2l-3.2,0.6c-0.6,0-1.2-0.5-1.2-1.2v-7.3c0-0.6,0.5-1.2,1.2-1.2l3.3,0.8c0.6,0.3,1.1,0.4,1.1,1.1
		v5.9C55.5,47.6,54.9,47.9,54.2,48.2z"/>
	<path fill="#B1B3B4" d="M30.8,48.2l3.2,0.6c0.6,0,1.2-0.5,1.2-1.2v-7.3c0-0.6-0.5-1.2-1.2-1.2L30.7,40c-0.6,0.3-1.1,0.4-1.1,1.1
		v5.9C29.5,47.6,30.1,47.9,30.8,48.2z"/>
	<path fill="#B1B3B4" d="M51.6,54.4H33.3c-0.9,0-1.6-0.7-1.6-1.6v-1c0-0.9,0.7-1.6,1.6-1.6h18.3c0.9,0,1.6,0.7,1.6,1.6v1
		C53.3,53.6,52.5,54.4,51.6,54.4z"/>
	<path fill="#B1B3B4" d="M48.9,63.6H36c-1.6,0-2.8-1.3-2.8-2.8v-6c0-1.6,1.3-2.8,2.8-2.8h12.9c1.6,0,2.8,1.3,2.8,2.8v6
		C51.7,62.3,50.4,63.6,48.9,63.6z"/>
	<polygon fill="#B1B3B4" points="49.4,76.2 49,76.2 48.5,76.2 48.1,76.2 47.7,76.2 47.2,76.2 46.8,76.2 46.4,76.2 45.9,76.2 
		45.5,76.2 45.1,76.2 44.6,76.2 44.2,76.2 43.8,76.2 43.3,76.2 42.9,76.2 42.4,76.2 42,76.2 41.6,76.2 41.1,76.2 40.7,76.2 
		40.3,76.2 39.8,76.2 39.4,76.2 39,76.2 38.5,76.2 38.1,76.2 37.7,76.2 37.2,76.2 36.8,76.2 36.4,76.2 35.9,76.2 35.5,76.2 
		35.5,75.8 35.5,75.4 35.5,75 35.5,74.5 36.5,74.1 37.4,73.7 37.4,73.3 37.4,72.9 36.5,72.5 35.5,72.1 35.5,71.7 35.5,71.3 
		35.5,70.8 35.5,70.4 37.4,70 37.4,69.6 37.4,69.2 35.5,68.8 35.5,68.4 35.5,68 35.5,67.5 35.5,67.1 36.5,66.7 37.4,66.3 37.4,65.9 
		37.4,65.5 36.5,65.1 35.5,64.7 35.5,64.2 35.5,63.8 35.5,63.4 35.5,63 35.9,63 36.4,63 36.8,63 37.2,63 37.7,63 38.1,63 38.5,63 
		39,63 39.4,63 39.8,63 40.3,63 40.7,63 41.1,63 41.6,63 42,63 42.4,63 42.9,63 43.3,63 43.8,63 44.2,63 44.6,63 45.1,63 45.5,63 
		45.9,63 46.4,63 46.8,63 47.2,63 47.7,63 48.1,63 48.5,63 49,63 49.4,63 49.4,63.4 49.4,63.8 49.4,64.2 49.4,64.7 48.4,65.1 
		47.5,65.5 47.5,65.9 47.5,66.3 48.4,66.7 49.4,67.1 49.4,67.5 49.4,68 49.4,68.4 49.4,68.8 47.5,69.2 47.5,69.6 47.5,70 49.4,70.4 
		49.4,70.8 49.4,71.3 49.4,71.7 49.4,72.1 48.4,72.5 47.5,72.9 47.5,73.3 47.5,73.7 48.4,74.1 49.4,74.5 49.4,75 49.4,75.4 
		49.4,75.8 	"/>
	<path fill="#B1B3B4" d="M44.2,79.9h-2.7c-0.5,0-0.9-0.4-0.9-0.9v-2.9c0-0.5,0.4-0.9,0.9-0.9h2.7c0.5,0,0.9,0.4,0.9,0.9V79
		C45.1,79.5,44.7,79.9,44.2,79.9z"/>
	<rect x="37.2" y="75.9" fill="#B1B3B4" width="2.2" height="5.7"/>
	<g>
		<g>
			<line fill="none" stroke="#B1B3B4" stroke-width="0.1367" stroke-miterlimit="10" x1="39.3" y1="82.1" x2="43.9" y2="82.1"/>
			<g>
				<polygon fill="#B1B3B4" points="43.8,81.3 43.8,83 44.6,82.1 				"/>
			</g>
		</g>
	</g>
	<rect x="38.2" y="81.2" fill="#B1B3B4" width="5.4" height="2"/>
	<path fill="#B1B3B4" d="M39.6,82.5c-0.3,0.5-1.1,0.8-1.7,0.5s-0.9-1.2-0.6-1.7c0.3-0.5,0.9-0.3,1.5,0S39.9,82,39.6,82.5z"/>
	<path fill="#B1B3B4" d="M38.8,24.9h7.2c1.6,0,2.8,1.3,2.8,2.8v7.2c0,1.6-1.3,2.8-2.8,2.8h-7.2c-1.6,0-2.8-1.3-2.8-2.8v-7.2
		C36,26.2,37.3,24.9,38.8,24.9z"/>
	<polygon fill="#B1B3B4" points="48.9,26.6 48.5,26.6 48.1,26.6 47.7,26.6 47.3,26.6 46.9,26.6 46.5,26.6 46.1,26.6 45.7,26.6 
		45.3,26.6 44.9,26.6 44.5,26.6 44.1,26.6 43.7,26.6 43.3,26.6 42.8,26.6 42.4,26.6 42,26.6 41.6,26.6 41.2,26.6 40.8,26.6 
		40.4,26.6 40,26.6 39.6,26.6 39.2,26.6 38.8,26.6 38.4,26.6 38,26.6 37.6,26.6 37.2,26.6 36.8,26.6 36.4,26.6 36,26.6 36,26.2 
		36,25.7 36,25.3 36,24.9 36.9,24.5 37.8,24.1 37.8,23.7 37.8,23.3 36.9,22.8 36,22.4 36,22 36,21.6 36,21.2 36,20.8 37.8,20.4 
		37.8,19.9 37.8,19.5 36,19.1 36,18.7 36,18.3 36,17.9 36,17.5 36.9,17 37.8,16.6 37.8,16.2 37.8,15.8 36.9,15.4 36,15 36,14.5 
		36,14.1 37.3,11.2 37.3,10.8 37.7,10.8 37.5,10.8 37.9,10.8 37.6,10.8 38,10.8 38.4,10.8 38.8,10.8 39.2,10.8 39.6,10.8 40,10.8 
		40.4,10.8 40.8,10.8 41.2,10.8 41.6,10.8 42,10.8 42.4,10.8 42.8,10.8 43.3,10.8 43.7,10.8 44.1,10.8 44.5,10.8 44.9,10.8 
		45.3,10.8 45.7,10.8 46.1,10.8 46.5,10.8 46.9,10.8 47.3,10.8 47,10.8 46.8,10.8 47.2,10.8 47.6,10.8 47.6,11.2 48.9,14.1 
		48.9,14.5 48.9,15 48,15.4 47.1,15.8 47.1,16.2 47.1,16.6 48,17 48.9,17.5 48.9,17.9 48.9,18.3 48.9,18.7 48.9,19.1 47.1,19.5 
		47.1,19.9 47.1,20.4 48.9,20.8 48.9,21.2 48.9,21.6 48.9,22 48.9,22.4 48,22.8 47.1,23.3 47.1,23.7 47.1,24.1 48,24.5 48.9,24.9 
		48.9,25.3 48.9,25.7 48.9,26.2 	"/>
	<path fill="#B1B3B4" d="M45,11.1h-0.6h-0.6h-0.6h-0.6h-0.6h-0.6h-0.6h-0.6V10l1-1.2V8.3c0-0.4-0.1-0.8-0.4-1.1l-0.3-0.3
		c-0.2-0.2-0.3-0.5-0.4-0.7l-0.1-0.2c-0.1-0.3-0.2-0.7-0.2-1.1v0c0-0.4,0.1-0.8,0.2-1.1l0.1-0.2C39.8,3.2,40,3,40.2,2.7l0.3-0.3
		c0.3-0.3,0.6-0.5,1-0.5l0,0h0.6h0.6h-0.3h0.6h-0.3h0.6l0,0c0.4,0,0.8,0.2,1,0.5l0.3,0.3C44.9,3,45,3.2,45.1,3.5l0.1,0.2
		c0.1,0.3,0.2,0.7,0.2,1.1v0c0,0.4-0.1,0.8-0.2,1.1l-0.1,0.2c-0.1,0.3-0.3,0.5-0.4,0.7l-0.3,0.3C44.1,7.5,44,7.9,44,8.3v0.5l1,1.2
		V11.1z"/>
</g>
</svg>
