<?xml version="1.0" encoding="utf-8"?>
<!-- Generator: Adobe Illustrator 21.1.0, SVG Export Plug-In . SVG Version: 6.00 Build 0)  -->
<svg version="1.1" id="Laag_1" xmlns="http://www.w3.org/2000/svg" xmlns:xlink="http://www.w3.org/1999/xlink" x="0px" y="0px"
	 viewBox="0 0 297.5 58.4" style="enable-background:new 0 0 297.5 58.4;" xml:space="preserve">
<style type="text/css">
	.st0{fill:#005688;}
	.st1{fill:#8EBE21;}
	.st2{fill:#522B27;}
	.st3{fill:#E53212;}
	.st4{fill:#1D1D1B;}
</style>
<g>
	<g>
		<polygon class="st0" points="69.5,33.4 88.6,0 76.8,0 64.3,23.6 69.5,33.4 		"/>
		<polygon class="st1" points="59.1,33.4 40,0 51.8,0 64.3,23.6 59.1,33.4 		"/>
		<polygon class="st2" points="59.1,33.4 69.5,33.4 69.5,33.4 64.3,23.6 59.1,33.4 		"/>
		<rect x="59.1" y="33.4" class="st3" width="10.4" height="24"/>
	</g>
	<g>
		<path d="M22.7,15.2c-8.7,0-12.4,6-12.4,6h-0.2c0,0,0.2-1.5,0.2-3.5V0H0v57.5h9.7v-2.3c0-1.6-0.2-2.8-0.2-2.8h0.2
			c0,0,3.7,6.2,12.3,6.2c10.9,0,18.9-8.5,18.9-21.6C41,24,33.8,15.2,22.7,15.2z M20.2,49.8c-6.9,0-10.3-6.3-10.3-12.7
			c0-9.1,5-13,10.4-13c6.1,0,10.3,5.1,10.3,12.9C30.6,45.2,25.9,49.8,20.2,49.8z"/>
	</g>
	<path class="st4" d="M109.5,15.2c12.6,0,22.7,9,22.7,21.6c0,12.7-10.1,21.6-22.7,21.6c-12.6,0-22.7-8.9-22.7-21.6
		C86.9,24.2,97,15.2,109.5,15.2z M109.6,49.7c6.6,0,12.2-5.2,12.2-12.9c0-7.6-5.6-12.9-12.2-12.9c-6.7,0-12.3,5.3-12.3,12.9
		C97.3,44.5,102.9,49.7,109.6,49.7z"/>
	<path class="st4" d="M160.1,15.2c12.6,0,22.7,9,22.7,21.6c0,12.7-10.1,21.6-22.7,21.6c-12.6,0-22.7-8.9-22.7-21.6
		C137.4,24.2,147.6,15.2,160.1,15.2z M160.2,49.7c6.6,0,12.2-5.2,12.2-12.9c0-7.6-5.6-12.9-12.2-12.9c-6.7,0-12.3,5.3-12.3,12.9
		C147.9,44.5,153.5,49.7,160.2,49.7z"/>
	<path class="st4" d="M191.1,16.2h9.9V21c0,1.5-0.2,2.8-0.2,2.8h0.2c2-4,7-8.6,13.4-8.6c6.3,0,10.4,2.9,12.1,8.5h0.2
		c2.3-4.5,7.6-8.5,14.1-8.5c8.6,0,13.5,4.9,13.5,15.7v26.5H244V32.9c0-4.7-0.9-8.3-5.7-8.3c-5.3,0-8.7,4.2-10,9.4
		c-0.4,1.6-0.5,3.4-0.5,5.3v18.1h-10.3V32.9c0-4.5-0.7-8.3-5.6-8.3c-5.3,0-8.8,4.2-10.1,9.5c-0.4,1.5-0.5,3.4-0.5,5.3v18.1h-10.3
		V16.2z"/>
	<path class="st4" d="M286,31.6h1.4V31c0-5.4-3.4-7.3-7.9-7.3c-5.9,0-11.3,4-11.3,4l-3.9-7.4c0,0,6.4-5.1,16.2-5.1
		c10.8,0,17.2,6,17.2,16.4v25.8h-9.5v-3.4c0-1.6,0.2-2.9,0.2-2.9h-0.2c0.1,0-3.2,7.3-12.5,7.3c-7.4,0-14-4.6-14-12.9
		C261.5,32.5,279.2,31.6,286,31.6z M278.1,50.4c5.4,0,9.3-5.8,9.3-10.8v-1h-1.8c-5.3,0-13.8,0.7-13.8,6.5
		C271.9,47.8,273.9,50.4,278.1,50.4z"/>
</g>
</svg>
