<?xml version="1.0" encoding="utf-8"?>
<!-- Generator: Adobe Illustrator 21.1.0, SVG Export Plug-In . SVG Version: 6.00 Build 0)  -->
<svg version="1.1" id="Laag_1" xmlns="http://www.w3.org/2000/svg" xmlns:xlink="http://www.w3.org/1999/xlink" x="0px" y="0px"
	 viewBox="0 0 456.1 337" style="enable-background:new 0 0 456.1 337;" xml:space="preserve">
<g>
	<path d="M131.4,247H351c12,0,21.7-9.7,21.7-21.7V21.7C372.7,9.7,363,0,351,0H21.7C9.7,0,0,9.7,0,21.7v203.7
		c0,12,9.7,21.7,21.7,21.7h40L0,337L131.4,247z M316.2,104.1c10,0,18,8.1,18,18s-8.1,18-18,18c-10,0-18-8.1-18-18
		S306.2,104.1,316.2,104.1z M231.6,104.1c10,0,18,8.1,18,18s-8.1,18-18,18c-10,0-18-8.1-18-18S221.6,104.1,231.6,104.1z M147,104.1
		c10,0,18,8.1,18,18s-8.1,18-18,18c-10,0-18-8.1-18-18S137.1,104.1,147,104.1z M44.4,122.1c0-10,8.1-18,18-18c10,0,18,8.1,18,18
		s-8.1,18-18,18C52.5,140.2,44.4,132.1,44.4,122.1z"/>
	<path d="M456.1,248.7V117.4c0-7.7-6.3-14-14-14h-64v121.9c0,14.9-12.1,27.1-27.1,27.1H216.3c1.6,5.9,7,10.3,13.5,10.3h141.6
		l84.7,58l-39.8-58h25.8C449.8,262.7,456.1,256.4,456.1,248.7z"/>
</g>
</svg>
