<?xml version="1.0" encoding="utf-8"?>
<!-- Generator: Adobe Illustrator 21.1.0, SVG Export Plug-In . SVG Version: 6.00 Build 0)  -->
<svg version="1.1" xmlns="http://www.w3.org/2000/svg" xmlns:xlink="http://www.w3.org/1999/xlink" x="0px" y="0px"
	 viewBox="0 0 456.1 337" style="enable-background:new 0 0 456.1 337;" xml:space="preserve">
<style type="text/css">
	.st0{fill:#FFFFFF;}
</style>
<g id="Laag_1">
	<path class="st0" d="M401.2,271.8V170.9h-23.4v100.8H78.4l0-211.8c0-1.6,1.4-3,3-3.1l113.9,0V33.5H81.4C66.8,33.5,55,45.3,54.9,60
		v211.8H22.7c0,17.5,14.2,31.8,31.8,31.8h347.3c17.5,0,31.8-14.2,31.8-31.8H401.2z"/>
	<g>
		<path class="st0" d="M278,164.2h126.5c6.9,0,12.5-5.6,12.5-12.5V34.5c0-6.9-5.6-12.5-12.5-12.5H214.8c-6.9,0-12.5,5.6-12.5,12.5
			v117.3c0,6.9,5.6,12.5,12.5,12.5h23l-35.5,51.8L278,164.2z M384.4,82c5.8,0,10.4,4.7,10.4,10.4s-4.7,10.4-10.4,10.4
			c-5.8,0-10.4-4.7-10.4-10.4S378.6,82,384.4,82z M335.7,82c5.8,0,10.4,4.7,10.4,10.4s-4.7,10.4-10.4,10.4
			c-5.8,0-10.4-4.7-10.4-10.4S329.9,82,335.7,82z M287,82c5.8,0,10.4,4.7,10.4,10.4s-4.7,10.4-10.4,10.4c-5.8,0-10.4-4.7-10.4-10.4
			S281.3,82,287,82z M227.9,92.3c0-5.8,4.7-10.4,10.4-10.4c5.8,0,10.4,4.7,10.4,10.4s-4.7,10.4-10.4,10.4
			C232.6,102.8,227.9,98.1,227.9,92.3z"/>
	</g>
</g>
<g id="Laag_2">
</g>
</svg>
