<?xml version="1.0" encoding="utf-8"?>
<!-- Generator: Adobe Illustrator 21.1.0, SVG Export Plug-In . SVG Version: 6.00 Build 0)  -->
<svg version="1.1" id="Layer_1" xmlns="http://www.w3.org/2000/svg" xmlns:xlink="http://www.w3.org/1999/xlink" x="0px" y="0px"
	 viewBox="0 0 170 170" style="enable-background:new 0 0 170 170;" xml:space="preserve">
<style type="text/css">
	.st0{display:none;}
	.st1{display:inline;}
	.st2{fill:#B1B3B4;}
	.st3{display:inline;fill:#B1B3B4;}
	.st4{fill:#999999;}
</style>
<g class="st0">
	<g class="st1">
		<rect x="49.7" y="134.7" class="st2" width="3.9" height="16.9"/>
		<polygon class="st2" points="108.6,132.9 108.8,133.2 109.1,133.4 109.4,133.5 109.6,133.7 109.9,133.7 110.2,133.5 110.5,133.5 
			110.8,133.2 110.9,133.1 111.2,132.8 111.2,132.5 111.2,132.2 111.2,131.8 111.2,131.5 110.9,131.4 110.8,131.1 110.5,130.9 
			110.2,130.8 109.9,130.8 109.6,130.8 109.4,130.8 109.1,130.9 108.8,131.2 108.6,131.4 108.5,131.8 108.3,132.1 108.3,132.4 
			108.5,132.7 		"/>
		<polygon class="st2" points="55,138.3 60.4,138.3 60.4,151.6 64.4,151.6 64.4,138.3 69.6,138.3 69.6,134.7 55,134.7 		"/>
		<polygon class="st2" points="114.6,132.8 114.7,133.1 114.8,133.2 115.1,133.5 115.4,133.5 115.7,133.7 116,133.5 116.4,133.5 
			116.7,133.2 116.9,133.1 117,132.8 117.2,132.5 117.2,132.2 117.2,131.9 117,131.5 116.9,131.4 116.7,131.1 116.4,130.9 
			116,130.8 115.7,130.8 115.4,130.8 115.1,130.9 114.8,131.1 114.7,131.4 114.6,131.5 114.4,131.9 114.4,132.2 114.4,132.5 		"/>
		<polygon class="st2" points="44.3,146.5 43.9,147 43.5,147.4 42.9,147.7 42.5,148 41.9,148.1 41.3,148.3 40.7,148.4 40.2,148.4 
			39.6,148.4 39,148.3 38.4,148.1 37.8,147.8 37.4,147.5 36.8,147.1 36.4,146.7 36.1,146.2 35.7,145.8 35.5,145.2 35.2,144.6 
			35.1,144.1 35.1,143.5 35.1,142.9 35.1,142.3 35.2,141.8 35.5,141.2 35.8,140.6 36.1,140.2 36.4,139.7 36.8,139.3 37.4,138.9 
			37.8,138.6 38.4,138.4 39,138.1 39.6,138 40.2,138 40.7,138 41.3,138.1 41.9,138.3 42.5,138.6 43,138.9 43.5,139.2 43.9,139.6 
			44.3,140 44.6,140.5 47.7,138.4 47.4,138 46.9,137.6 46.7,137.1 46.2,136.7 45.8,136.3 45.4,136 44.8,135.7 44.3,135.4 
			43.8,135.1 43.2,134.8 42.6,134.7 42,134.5 41.5,134.4 40.9,134.4 40.3,134.4 39.7,134.4 39.1,134.4 38.6,134.5 38,134.7 
			37.4,134.8 37,135 36.4,135.3 35.8,135.5 35.4,135.8 35,136.1 34.4,136.6 34.1,137 33.7,137.4 33.2,137.9 32.9,138.3 32.6,138.9 
			32.4,139.3 32.1,139.9 31.8,140.3 31.6,140.9 31.6,141.5 31.5,142 31.5,142.6 31.3,143.2 31.5,143.8 31.5,144.4 31.6,144.9 
			31.8,145.5 31.9,146.1 32.1,146.7 32.4,147.2 32.6,147.7 32.9,148.3 33.2,148.7 33.7,149.1 34.1,149.6 34.5,150 35,150.3 
			35.4,150.6 36,150.9 36.4,151.2 37,151.4 37.6,151.6 38.1,151.9 38.7,151.9 39.3,152 39.9,152 40.4,152 41,152 41.6,152 
			42.2,151.9 42.8,151.7 43.3,151.6 43.8,151.3 44.3,151 44.8,150.7 45.4,150.4 45.8,150.1 46.2,149.7 46.7,149.3 47.1,148.8 
			47.4,148.4 47.7,147.8 44.6,145.9 		"/>
		<polygon class="st2" points="106.8,151.6 119.2,151.6 119.2,148.3 110.5,148.3 110.5,145.1 119.2,145.1 119.2,141.8 110.5,141.8 
			110.5,138.3 119.2,138.3 119.2,134.7 106.8,134.7 		"/>
		<polygon class="st2" points="133.3,134.7 133.3,145.7 126.5,134.7 122.1,134.7 122.1,151.6 125.7,151.6 125.7,140.7 132.6,151.4 
			137.1,151.4 137.1,134.7 		"/>
		<path class="st2" d="M82.6,145.1l0.6-0.3l0.4-0.4l0.4-0.4l0.4-0.4l0.3-0.4l0.3-0.6l0.3-0.6l0.1-0.6l0.1-0.6v-0.6v-0.6l-0.1-0.6
			l-0.1-0.6l-0.1-0.6l-0.3-0.6l-0.3-0.6l-0.4-0.4l-0.4-0.4l-0.4-0.4l-0.4-0.3l-0.6-0.3l-0.6-0.3l-0.6-0.1l-0.6-0.1H80h-0.6h-1h-7.1
			v16.9h3.8v-6.1h2.6l0.7,1.6l3.3,4.9h4.3l-4-6.2L82.6,145.1z M81.8,140.5l-0.1,0.4l-0.1,0.4l-0.3,0.3l-0.3,0.3l-0.3,0.1l-0.4,0.1
			h-0.4h-1.4H75v-3.9h3.5h1.4h0.4l0.4,0.1l0.3,0.1l0.3,0.3l0.3,0.3l0.1,0.4l0.1,0.4v0.4H81.8z"/>
		<path class="st2" d="M104.9,141.2l-0.1-0.6l-0.1-0.6l-0.3-0.6l-0.3-0.6l-0.3-0.6l-0.3-0.6l-0.3-0.4l-0.4-0.4l-0.4-0.4l-0.4-0.4
			l-0.4-0.4l-0.4-0.3l-0.4-0.3l-0.6-0.3l-0.6-0.3l-0.6-0.1l-0.6-0.1l-0.6-0.1l-0.6-0.1h-0.6h-0.3h-0.3h-0.6l-0.6,0.1l-0.6,0.1
			l-0.6,0.1l-0.6,0.1l-0.6,0.3l-0.6,0.3l-0.6,0.3l-0.4,0.3l-0.4,0.4l-0.4,0.4l-0.4,0.4l-0.4,0.4l-0.3,0.4l-0.3,0.6l-0.3,0.6
			l-0.3,0.6l-0.1,0.6l-0.1,0.6l-0.1,0.6l-0.1,0.6v0.6v0.6v0.6v0.6l0.1,0.6l0.1,0.6l0.1,0.6l0.1,0.6l0.3,0.6l0.3,0.6l0.3,0.4l0.3,0.4
			l0.4,0.4l0.4,0.4l0.4,0.4l0.4,0.4l0.4,0.3l0.6,0.3l0.6,0.3l0.6,0.3l0.6,0.3l0.6,0.1l0.6,0.1l0.6,0.1h0.6h0.3h0.3h0.6l0.6-0.1
			l0.6-0.1l0.6-0.1l0.6-0.3l0.6-0.3l0.6-0.3l0.4-0.3l0.4-0.3l0.4-0.4l0.4-0.4l0.4-0.4l0.4-0.4l0.3-0.4l0.3-0.4l0.3-0.6l0.3-0.6
			l0.3-0.6l0.1-0.6l0.1-0.6l0.1-0.6l0.1-0.6v-0.6v-0.6l-0.1-0.6L104.9,141.2z M101.3,143.5l-0.1,0.6l-0.1,0.6l-0.3,0.6l-0.3,0.6
			l-0.3,0.4l-0.4,0.4l-0.4,0.4l-0.4,0.3l-0.6,0.3l-0.6,0.1l-0.6,0.1l-0.6,0.1h-0.6h-0.6l-0.6-0.1l-0.6-0.1l-0.6-0.1l-0.6-0.3
			l-0.4-0.3l-0.4-0.4l-0.4-0.4l-0.3-0.4l0-0.6l-0.3-0.6l-0.1-0.6l-0.1-0.6v-0.6v-0.6l0.1-0.6l0.1-0.6l0.3-0.6l0.3-0.6l0.3-0.4
			l0.4-0.4l0.4-0.4l0.4-0.3l0.6-0.3l0.6-0.3l0.6-0.1l0.6-0.1h0.6h0.6l0.6,0.1l0.6,0.1l0.6,0.3l0.6,0.3l0.4,0.3l0.4,0.4l0.4,0.4
			l0.3,0.4l0.3,0.6l0.3,0.6l0.1,0.6l0.1,0.6v0.6L101.3,143.5z"/>
	</g>
	<path class="st3" d="M84.7,24.3H31.3v105.7h53.2h52.6V24.3H84.7z M84.7,87.2L84.7,87.2L38,125.4L84.5,64l0,0l46.7,61.4L84.7,87.2z
		 M84.7,51L84.7,51L38,89.3l46.5-61.4l0,0l46.7,61.4L84.7,51z"/>
</g>
<g>
	<path class="st2" d="M112.1,73.6l-5.8-16c0.3,2.3-2.4,12.9-5.8,17.3l5.2,7.4c0.9,1.4,3,2.1,5,0.9C112.9,81.7,114,79,112.1,73.6z"/>
	<path class="st2" d="M107.3,96.2c-0.3-2.7,0-7.1-3.4-11.5l-6.8-9.5c8.9-12.5,8.5-28.2,2.6-41.5l-3-1.6l-8.5,2.4
		c-1.3,0.4-2,0.6-2.3,2.1l-7.1,2.8v3.1l1.6,1c0.7,0.3,1.1,0.3,1.4-0.3c0.3-0.4,1.4-1.6,3.5-1.6c2.1,0,5.1,2,5.1,6.7
		s-3.3,6.9-5.1,6.9c-1.4,0-2.8-1.1-3.4-2.1l-4.5,6.9L62.6,42.9c-0.9-1-1.7-2-3.3-2h-2.4c-1,0-2,0.3-2,1.8v5.8c2,0,4,1.1,4.4,4
		c1.6,0.3,5.5,0.7,7.1-0.9l12,17.3L57,71.2c-1.3,0.3-2,0.3-2,2.1v4c2-0.1,6.1-0.4,8.2,1.4c0.6-0.7,1.1-3.4,0.1-5.5h17.7l3.8,5.5
		l-8.1,16.4c1.4,1.6,2.7,9.6-5.5,10.5l-3.5-5.1c-0.6-0.7-0.7-1.3-2.8-1.3c-2,0-2.1,1.1-2.1,2v6.8c2.4,0.1,6.8,0.1,8.5,2.3
		c0.9-1.3,4.1-2.6,6.4-2.3l13.9-19.8l9.8,14.3c2-1.3,10.8,3.7,5.4,10.3c-1.6-0.4-8.2-2.3-8.2,1.1v2.1c1.1,0,3.1,0.9,4.5,3
		c0.3-1.1,1.4-2.4,4-2.4h4.7v-17C110.6,99.7,107.6,98.8,107.3,96.2z"/>
	<path class="st2" d="M31.8,24.3v103.9h103.9V24.3H31.8z M109.7,92.9c0.4,5.4,4.3,4,5.1,3.5V115c0,2.8,0.6,3,1,3.7
		c-0.9,1.4-3.7,1-5.2,0.9c-5.8-0.4-6,2.7-6.1,3.5c-2-0.1-2.7-0.7-4.3-2.8s-2.8-1.8-4.5-1.7V112c0-4,7.7-2.6,9.4-2.1
		c2.4-3.4-3.4-5.8-5-4.5l-8.5-12.2l-12.6,18c-1.4-0.4-3.7-0.3-5.1,1c-1.4,1.3-2.6,2-4.5,1.8c-0.9-3.4-6.2-2.8-8.1-3
		c-1.8-0.1-2.4-1.6-2.4-2.8c0.7-0.3,1.1-0.7,1.1-1.7v-4c0-1.3-0.3-1.7-1.3-2.1c0.3-2.1,2.1-4,4.4-4h2.6c2.8,0,3.7,1.4,4.4,2.4
		l2.7,3.7c3.8-2.3,1.8-6,0.6-6.9l8.2-16.3l-2-2.8H66.2c-0.3,5.1-2.1,6.4-3.3,6.4c-1.3-2.3-3.1-2.1-4.7-2.3c-1.6-0.1-4.7,0.4-5.4,0.4
		s-1.6-0.4-2.1-1.3c0.9-0.4,1.1-1.6,1.1-2.3v-1.8c0-0.9-0.3-1.7-1.1-2.3c0.9-3.5,2.1-4.1,4.5-4.4L73,67.1l-7.9-11.5
		c-1.7,1-5.5,0.7-6.5,0.3c-0.6-0.3-1.6-0.3-2.4,0.1c0.1-4.1-0.9-4.4-3.3-4.7c-2.4-0.3-2.4-2.3-1.8-2.6c0.4-0.3,0.9-0.9,0.9-1.6v-2.7
		c0-0.7,0-1.6-1-1.7c0.3-2.8,2-4.3,4.7-4.3H59c2,0,4,0.9,5.7,2.8l12.5,14.3l3-4.5h3.1c0.3,0.9,0.7,2,2,2c1.3,0,2.1-2.4,2.1-3.4h-9.8
		l-1.4-1.7h11.2c0-1.6-0.9-3.5-2.1-3.5c-1.3,0-1.8,1.3-2.1,2.1h-2.7L76,44v-2.8c0-0.9-0.3-1.3-0.9-1.6c0-1.4,0.1-1.8,1-2.3l8.1-3.3
		c0.3-1.4,1-1.7,1.8-2l9.9-2.8l5.4,1.8c1.6,1.6,4.5,11.3,4.7,13.5c0.7-4.8,4-5.1,5.8-5c1.8,0.3,3.1,2.6,3,4.1v7.4
		c0,0.9,0.3,2,0.4,2.7c-6.9-1.7-4.5-9.1-4.1-9.9c0.3-0.9,0.1-2.1-1.3-0.9c-1.4,1.3-1.7,5.2-1.7,6.8s0.1,6.2,3.5,15.2
		c3.7,9.6,4.8,13.6,3.4,17.4c-1.3,3.4-5.1,4.5-6.8,4.3C109.2,87.2,109.6,91.1,109.7,92.9z"/>
</g>
<polygon class="st4" points="123.2,136.7 123.2,133.4 136.7,133.4 136.7,136.7 133,136.7 133,149.3 126.9,149.3 126.9,136.7 "/>
<polygon class="st4" points="49.5,133.4 62.3,133.4 62.3,136.7 55.6,136.7 55.6,139.7 62.3,139.7 62.3,142.9 55.6,142.9 55.6,146 
	62.3,146 62.3,149.3 49.5,149.3 "/>
<path class="st4" d="M115.3,132.6c-4.7,0-8.5,3-8.5,8.6c0,5.5,3.8,8.6,8.5,8.6s8.5-3.1,8.5-8.6C123.8,135.4,119.9,132.6,115.3,132.6
	z M116.5,146.7c-2.3,0-4-2.4-4-5.4s1.7-5.8,4-5.8c2.3,0,4.1,2.8,4.1,5.8C120.5,144.3,118.8,146.7,116.5,146.7z"/>
<path class="st4" d="M43.1,133.3H31.7v15.9h6.1v-3.5H43c2.6,0,4.7-2.8,4.7-6.2C47.8,136.1,45.7,133.3,43.1,133.3z M42.7,142.1h-4.8
	v-5h4.8c1,0,1.8,1.1,1.8,2.6C44.6,140.9,43.7,142.1,42.7,142.1z"/>
<path class="st4" d="M74.2,142.6c0,1.7-1,3.1-2.3,3.1s-2.3-1.4-2.3-3.1v-9.2h-6.1v9.8c0,5.2,4.3,6.8,7.1,6.8c3,0,6.4-2,6.5-6.9v-9.5
	h-3V142.6z"/>
<polygon class="st4" points="93,133.4 105.8,133.4 105.8,136.7 99.1,136.7 99.1,139.7 105.8,139.7 105.8,142.9 99.1,142.9 99.1,146 
	105.8,146 105.8,149.3 93,149.3 "/>
<path class="st4" d="M86.8,145.9c-1.8,0-3.3-2.3-3.3-4.7c0-2.4,1.4-4.3,3.3-4.3h5v-3.7h-7.8c-3.3,0-6,3.5-6,7.9s2.7,7.9,6,7.9h7.8
	v-7.7h-3.8v4.3L86.8,145.9z"/>
</svg>
