<?xml version="1.0" encoding="utf-8"?>
<!-- Generator: Adobe Illustrator 21.1.0, SVG Export Plug-In . SVG Version: 6.00 Build 0)  -->
<svg version="1.1" id="Layer_1" xmlns="http://www.w3.org/2000/svg" xmlns:xlink="http://www.w3.org/1999/xlink" x="0px" y="0px"
	 viewBox="0 0 170 170" style="enable-background:new 0 0 170 170;" xml:space="preserve">
<style type="text/css">
	.st0{fill:#B1B3B4;}
</style>
<g>
	<g>
		<rect x="49.7" y="134.7" class="st0" width="3.9" height="16.9"/>
		<polygon class="st0" points="108.6,132.9 108.8,133.2 109.1,133.4 109.4,133.5 109.6,133.7 109.9,133.7 110.2,133.5 110.5,133.5 
			110.8,133.2 110.9,133.1 111.2,132.8 111.2,132.5 111.2,132.2 111.2,131.8 111.2,131.5 110.9,131.4 110.8,131.1 110.5,130.9 
			110.2,130.8 109.9,130.8 109.6,130.8 109.4,130.8 109.1,130.9 108.8,131.2 108.6,131.4 108.5,131.8 108.3,132.1 108.3,132.4 
			108.5,132.7 		"/>
		<polygon class="st0" points="55,138.3 60.4,138.3 60.4,151.6 64.4,151.6 64.4,138.3 69.6,138.3 69.6,134.7 55,134.7 		"/>
		<polygon class="st0" points="114.6,132.8 114.7,133.1 114.8,133.2 115.1,133.5 115.4,133.5 115.7,133.7 116,133.5 116.4,133.5 
			116.7,133.2 116.9,133.1 117,132.8 117.2,132.5 117.2,132.2 117.2,131.9 117,131.5 116.9,131.4 116.7,131.1 116.4,130.9 
			116,130.8 115.7,130.8 115.4,130.8 115.1,130.9 114.8,131.1 114.7,131.4 114.6,131.5 114.4,131.9 114.4,132.2 114.4,132.5 		"/>
		<polygon class="st0" points="44.3,146.5 43.9,147 43.5,147.4 42.9,147.7 42.5,148 41.9,148.1 41.3,148.3 40.7,148.4 40.2,148.4 
			39.6,148.4 39,148.3 38.4,148.1 37.8,147.8 37.4,147.5 36.8,147.1 36.4,146.7 36.1,146.2 35.7,145.8 35.5,145.2 35.2,144.6 
			35.1,144.1 35.1,143.5 35.1,142.9 35.1,142.3 35.2,141.8 35.5,141.2 35.8,140.6 36.1,140.2 36.4,139.7 36.8,139.3 37.4,138.9 
			37.8,138.6 38.4,138.4 39,138.1 39.6,138 40.2,138 40.7,138 41.3,138.1 41.9,138.3 42.5,138.6 43,138.9 43.5,139.2 43.9,139.6 
			44.3,140 44.6,140.5 47.7,138.4 47.4,138 46.9,137.6 46.7,137.1 46.2,136.7 45.8,136.3 45.4,136 44.8,135.7 44.3,135.4 
			43.8,135.1 43.2,134.8 42.6,134.7 42,134.5 41.5,134.4 40.9,134.4 40.3,134.4 39.7,134.4 39.1,134.4 38.6,134.5 38,134.7 
			37.4,134.8 37,135 36.4,135.3 35.8,135.5 35.4,135.8 35,136.1 34.4,136.6 34.1,137 33.7,137.4 33.2,137.9 32.9,138.3 32.6,138.9 
			32.4,139.3 32.1,139.9 31.8,140.3 31.6,140.9 31.6,141.5 31.5,142 31.5,142.6 31.3,143.2 31.5,143.8 31.5,144.4 31.6,144.9 
			31.8,145.5 31.9,146.1 32.1,146.7 32.4,147.2 32.6,147.7 32.9,148.3 33.2,148.7 33.7,149.1 34.1,149.6 34.5,150 35,150.3 
			35.4,150.6 36,150.9 36.4,151.2 37,151.4 37.6,151.6 38.1,151.9 38.7,151.9 39.3,152 39.9,152 40.4,152 41,152 41.6,152 
			42.2,151.9 42.8,151.7 43.3,151.6 43.8,151.3 44.3,151 44.8,150.7 45.4,150.4 45.8,150.1 46.2,149.7 46.7,149.3 47.1,148.8 
			47.4,148.4 47.7,147.8 44.6,145.9 		"/>
		<polygon class="st0" points="106.8,151.6 119.2,151.6 119.2,148.3 110.5,148.3 110.5,145.1 119.2,145.1 119.2,141.8 110.5,141.8 
			110.5,138.3 119.2,138.3 119.2,134.7 106.8,134.7 		"/>
		<polygon class="st0" points="133.3,134.7 133.3,145.7 126.5,134.7 122.1,134.7 122.1,151.6 125.7,151.6 125.7,140.7 132.6,151.4 
			137.1,151.4 137.1,134.7 		"/>
		<path class="st0" d="M82.6,145.1l0.6-0.3l0.4-0.4l0.4-0.4l0.4-0.4l0.3-0.4l0.3-0.6l0.3-0.6l0.1-0.6l0.1-0.6v-0.6v-0.6l-0.1-0.6
			l-0.1-0.6l-0.1-0.6l-0.3-0.6l-0.3-0.6l-0.4-0.4l-0.4-0.4l-0.4-0.4l-0.4-0.3l-0.6-0.3l-0.6-0.3l-0.6-0.1l-0.6-0.1H80h-0.6h-1h-7.1
			v16.9h3.8v-6.1h2.6l0.7,1.6l3.3,4.9h4.3l-4-6.2L82.6,145.1z M81.8,140.5l-0.1,0.4l-0.1,0.4l-0.3,0.3l-0.3,0.3l-0.3,0.1l-0.4,0.1
			h-0.4h-1.4H75v-3.9h3.5h1.4h0.4l0.4,0.1l0.3,0.1l0.3,0.3l0.3,0.3l0.1,0.4l0.1,0.4v0.4H81.8z"/>
		<path class="st0" d="M104.9,141.2l-0.1-0.6l-0.1-0.6l-0.3-0.6l-0.3-0.6l-0.3-0.6l-0.3-0.6l-0.3-0.4l-0.4-0.4l-0.4-0.4l-0.4-0.4
			l-0.4-0.4l-0.4-0.3l-0.4-0.3l-0.6-0.3l-0.6-0.3l-0.6-0.1l-0.6-0.1l-0.6-0.1l-0.6-0.1h-0.6h-0.3h-0.3h-0.6l-0.6,0.1l-0.6,0.1
			l-0.6,0.1l-0.6,0.1l-0.6,0.3l-0.6,0.3l-0.6,0.3l-0.4,0.3l-0.4,0.4l-0.4,0.4l-0.4,0.4l-0.4,0.4l-0.3,0.4l-0.3,0.6l-0.3,0.6
			l-0.3,0.6l-0.1,0.6l-0.1,0.6l-0.1,0.6l-0.1,0.6v0.6v0.6v0.6v0.6l0.1,0.6l0.1,0.6l0.1,0.6l0.1,0.6l0.3,0.6l0.3,0.6l0.3,0.4l0.3,0.4
			l0.4,0.4l0.4,0.4l0.4,0.4l0.4,0.4l0.4,0.3l0.6,0.3l0.6,0.3l0.6,0.3l0.6,0.3l0.6,0.1l0.6,0.1l0.6,0.1h0.6h0.3h0.3h0.6l0.6-0.1
			l0.6-0.1l0.6-0.1l0.6-0.3l0.6-0.3l0.6-0.3l0.4-0.3l0.4-0.3l0.4-0.4l0.4-0.4l0.4-0.4l0.4-0.4l0.3-0.4l0.3-0.4l0.3-0.6l0.3-0.6
			l0.3-0.6l0.1-0.6l0.1-0.6l0.1-0.6l0.1-0.6v-0.6v-0.6l-0.1-0.6L104.9,141.2z M101.3,143.5l-0.1,0.6l-0.1,0.6l-0.3,0.6l-0.3,0.6
			l-0.3,0.4l-0.4,0.4l-0.4,0.4l-0.4,0.3l-0.6,0.3l-0.6,0.1l-0.6,0.1l-0.6,0.1h-0.6h-0.6l-0.6-0.1l-0.6-0.1l-0.6-0.1l-0.6-0.3
			l-0.4-0.3l-0.4-0.4l-0.4-0.4l-0.3-0.4l0-0.6l-0.3-0.6l-0.1-0.6l-0.1-0.6v-0.6v-0.6l0.1-0.6l0.1-0.6l0.3-0.6l0.3-0.6l0.3-0.4
			l0.4-0.4l0.4-0.4l0.4-0.3l0.6-0.3l0.6-0.3l0.6-0.1l0.6-0.1h0.6h0.6l0.6,0.1l0.6,0.1l0.6,0.3l0.6,0.3l0.4,0.3l0.4,0.4l0.4,0.4
			l0.3,0.4l0.3,0.6l0.3,0.6l0.1,0.6l0.1,0.6v0.6L101.3,143.5z"/>
	</g>
	<path class="st0" d="M84.7,24.3H31.3v105.7h53.2h52.6V24.3H84.7z M84.7,87.2L84.7,87.2L38,125.4L84.5,64l0,0l46.7,61.4L84.7,87.2z
		 M84.7,51L84.7,51L38,89.3l46.5-61.4l0,0l46.7,61.4L84.7,51z"/>
</g>
</svg>
