<?xml version="1.0" encoding="utf-8"?>
<!-- Generator: Adobe Illustrator 21.1.0, SVG Export Plug-In . SVG Version: 6.00 Build 0)  -->
<svg version="1.1" id="Layer_1" xmlns="http://www.w3.org/2000/svg" xmlns:xlink="http://www.w3.org/1999/xlink" x="0px" y="0px"
	 viewBox="0 0 170 170" style="enable-background:new 0 0 170 170;" xml:space="preserve">
<style type="text/css">
	.st0{fill:#999999;}
</style>
<g>
	<g>
		<path class="st0" d="M51.2,85H85V51.2C66.3,51.2,51.2,66.3,51.2,85z"/>
		<path class="st0" d="M85,85v33.8c18.7,0,33.8-15.1,33.8-33.8H85z"/>
	</g>
	<path class="st0" d="M125.6,44.4C114.8,33.6,100.3,27.6,85,27.6c-31.6,0-57.4,25.8-57.4,57.4c0,15.3,5.9,29.8,16.8,40.6
		c10.9,10.9,25.2,16.8,40.6,16.8s29.8-5.9,40.6-16.8c10.9-10.9,16.8-25.2,16.8-40.6S136.4,55.2,125.6,44.4z M76.8,31.6h4.5l4.1,10.6
		l4.1-10.6h4.5v14.9h-3V36l-3.9,10.4h-3.2L79.8,36v10.4h-3V31.6z M39.2,56l7.2-8.6c1.5-1.8,3.6-3.2,5.6-1.5c0.6,0.5,0.8,0.7,1.6,2.1
		c0.2,0.5,0.3,1.4,0,2.2c1.8-1.1,3.6-0.7,4.8,0.5c1.9,1.8,1.5,3.9-0.2,5.9l-7.6,9.1L39.2,56z M85,121.2c-20,0-36.2-16.2-36.2-36.2
		S65,48.8,85,48.8S121.2,65,121.2,85S105,121.2,85,121.2z M118.7,65.9l-2.7-3.4l5.4-7.9v-0.1l-8.8,3.6l-2.7-3.3l9.3-12l2.3,2.9
		l-5.9,7.6l8.9-3.9l2.5,3.1l-5.6,7.9l8.7-4.2l2.3,2.9L118.7,65.9z"/>
	<path class="st0" d="M48.1,49.5c0.5-0.6,1.6-0.5,2.4,0c0.8,0.7,0.8,1.6,0.2,2.3L46.4,57l-2.7-2.2L48.1,49.5z"/>
	<path class="st0" d="M55.7,55.5l-4.5,5.4l-2.9-2.4l4.5-5.5c0.5-0.6,1.7-0.8,2.5-0.2C56.2,53.7,56.3,54.9,55.7,55.5z"/>
	<path class="st0" d="M128.2,41.8C116.6,30.3,101.3,23.9,85,23.9c-33.7,0-61.1,27.4-61.1,61.1c0,16.3,6.3,31.7,17.9,43.2
		c11.6,11.6,26.9,17.9,43.2,17.9s31.7-6.3,43.2-17.9c11.6-11.6,17.9-26.9,17.9-43.2S139.7,53.3,128.2,41.8z M85,144
		c-15.7,0-30.5-6.2-41.7-17.3C32.2,115.5,26,100.7,26,85s6.2-30.5,17.3-41.7C54.5,32.2,69.3,26,85,26s30.5,6.2,41.7,17.3
		C137.9,54.5,144,69.3,144,85C144,117.5,117.5,144,85,144z"/>
</g>
</svg>
