<?xml version="1.0" encoding="utf-8"?>
<!-- Generator: Adobe Illustrator 19.1.0, SVG Export Plug-In . SVG Version: 6.00 Build 0)  -->
<!DOCTYPE svg PUBLIC "-//W3C//DTD SVG 1.1//EN" "http://www.w3.org/Graphics/SVG/1.1/DTD/svg11.dtd">
<svg version="1.1" id="Layer_1" xmlns="http://www.w3.org/2000/svg" xmlns:xlink="http://www.w3.org/1999/xlink" x="0px" y="0px"
	 viewBox="0 0 170 170" enable-background="new 0 0 170 170" xml:space="preserve">
<g>
	<polygon fill="#999999" points="86.6,84.7 90.1,82.7 133.2,112.3 	"/>
	<polygon fill="#999999" points="84.1,83.1 80.9,81.3 84.5,24.8 	"/>
	<polygon fill="#999999" points="80.3,82.9 66,94.7 83.1,84.6 	"/>
	<path fill="#999999" d="M85,8C42.4,8,7.9,42.5,7.9,85.1s34.5,77.1,77.1,77.1s77.1-34.5,77.1-77.1S127.6,8,85,8z M85,158.1
		c-17.6,0-34.1-5.9-46.4-16.7c-12-10.5-21.2-27.2-23.5-44.9C20.5,130.3,49.8,156,85,156c39.1,0,70.8-31.7,70.8-70.8
		c0-16.2-6.1-32.1-15.2-44.1c9.3,7.2,17.3,27.6,17.3,44.1C157.9,125.5,125.3,158.1,85,158.1z M78.3,79.6l6.2-63.9c0.2,0,0.3,0,0.5,0
		c0.1,0,0.1,0,0.2,0L85.8,83l10.7-6.4L85.7,15.7c38,0.4,68.7,31.3,68.7,69.4c0,12.2-3.2,23.7-8.7,33.7L97.5,78.5l-4.6,2.6l52.4,38.3
		c-0.1,0.2-0.3,0.5-0.4,0.7L86,86.2v12l58.6,22.6c-12.1,20.2-34.3,33.8-59.6,33.8c-25.3,0-47.4-13.5-59.5-33.7L84,98v-12L25,120
		c-0.1-0.2-0.3-0.4-0.4-0.7l52.2-38.2l-4.6-2.6l-48.1,40.1c-5.5-9.9-8.6-21.4-8.6-33.5c0-37.8,30.2-68.6,67.8-69.4L74,77L78.3,79.6z
		 M85,12.1c-40.3,0-72.9,32.6-72.9,72.9c0,16.4,5.9,31.8,15,45.2c3.1,5.7,6.4,9.3,10.8,14C20.5,130.4,9.3,109,9.3,85.1
		C9.3,43.3,43.2,9.4,85,9.4c41.8,0,76.4,35.4,75.1,75.7C159.1,45.7,124.6,12.1,85,12.1z"/>
</g>
</svg>
