<?xml version="1.0" encoding="utf-8"?>
<!-- Generator: Adobe Illustrator 21.1.0, SVG Export Plug-In . SVG Version: 6.00 Build 0)  -->
<svg version="1.1" id="Layer_1" xmlns="http://www.w3.org/2000/svg" xmlns:xlink="http://www.w3.org/1999/xlink" x="0px" y="0px"
	 viewBox="0 0 170 170" style="enable-background:new 0 0 170 170;" xml:space="preserve">
<style type="text/css">
	.st0{fill:#999999;}
</style>
<g>
	<path class="st0" d="M86.4,21.2c-35.2,0-63.8,28.5-63.8,63.8c0,35.2,28.5,63.8,63.8,63.8c35.2,0,63.8-28.5,63.8-63.8
		S121.6,21.2,86.4,21.2z M86.4,143c-32,0-58.1-25.9-58.1-58s25.9-58.1,58.1-58.1c32,0,58.1,25.9,58.1,58.1
		C144.4,117,118.4,143,86.4,143z"/>
	<path class="st0" d="M73.6,41.6c4.1-1.2,8.3-1.8,12.8-1.8c4.3,0,8.6,0.6,12.8,1.8L86.4,69.7L73.6,41.6z"/>
	<path class="st0" d="M110.6,46.7c4.7,2.9,8.8,6.9,12.2,11.4l-20.6,46.4l-8.1-17.9H78.8l-8.1,17.9L49.9,58.3
		c3.3-4.5,7.5-8.4,12.2-11.4l16.7,36.7h15.3L110.6,46.7z"/>
	<path class="st0" d="M42.8,73.2c-1,3.7-1.6,7.7-1.6,11.8c0,17.7,10.2,33,24.9,40.5L42.8,73.2z"/>
	<path class="st0" d="M73.8,128.4c3.9,1.2,8.3,1.8,12.6,1.8s8.4-0.6,12.6-1.8l-12.6-27.7L73.8,128.4z"/>
	<path class="st0" d="M106.6,125.3c14.9-7.5,24.9-22.8,24.9-40.5c0-3.9-0.6-7.9-1.6-11.6L106.6,125.3z"/>
</g>
</svg>
