<?xml version="1.0" encoding="utf-8"?>
<!-- Generator: Adobe Illustrator 19.1.0, SVG Export Plug-In . SVG Version: 6.00 Build 0)  -->
<!DOCTYPE svg PUBLIC "-//W3C//DTD SVG 1.1//EN" "http://www.w3.org/Graphics/SVG/1.1/DTD/svg11.dtd">
<svg version="1.1" id="Layer_1" xmlns="http://www.w3.org/2000/svg" xmlns:xlink="http://www.w3.org/1999/xlink" x="0px" y="0px"
	 viewBox="0 0 170 170" enable-background="new 0 0 170 170" xml:space="preserve">
<g>
	<g>
		<polygon display="none" fill-rule="evenodd" clip-rule="evenodd" fill="#FFFFFF" points="84.7,-0.3 169.8,-0.3 169.8,84.7 
			84.7,84.7 84.7,-0.3 		"/>
		<path fill-rule="evenodd" clip-rule="evenodd" fill="#B1B3B4" d="M153.8,65.9c0,0,0,0.1,0-10.3h-4.2c0,10.3,0,10.3,0,10.3H153.8
			L153.8,65.9z"/>
		<path fill-rule="evenodd" clip-rule="evenodd" fill="#B1B3B4" d="M131.3,61.6v-5.9h-4.1v4.5c0,1.3-0.1,1.7-0.1,2
			c-0.3,0.9-1.3,1.4-2.3,1.4c-1.4,0-2.1-0.5-2.3-1.4c-0.1-0.3-0.1-0.6-0.1-0.9c0-0.3,0-0.7,0-1.1v-4.4h-4.2v5.9c0,1.3,0.4,2.3,1.2,3
			c1.3,1.2,3.4,1.6,5.3,1.6c2.4,0,4.2-0.3,5.5-1.6C130.8,63.9,131.3,63.1,131.3,61.6L131.3,61.6z"/>
		<path fill-rule="evenodd" clip-rule="evenodd" fill="#B1B3B4" d="M111.1,60.9c-0.1,0-0.4-0.1-0.6-0.1h-4.7c-0.2,0-0.5,0-0.6,0.1
			c0.1-0.1,0.2-0.2,0.4-0.4l2.1-3.5c0.3-0.5,0.4-0.8,0.5-0.9c0.1,0.1,0.2,0.4,0.5,0.9l2.2,3.5C110.9,60.6,111,60.8,111.1,60.9
			L111.1,60.9z M119,65.9l-9.4-14.1h-5.3l1.4,1.6c0,0,0.1,0.1,0.1,0.1c-0.1,0-0.1,0.1-0.1,0.1l-8.2,12.3h4.7l1.3-2.1
			c0.1-0.1,0.1-0.2,0.1-0.3c0.1,0,0.2,0.1,0.3,0.1h8.5c0.1,0,0.2,0,0.3-0.1c0,0.1,0,0.1,0.1,0.2l1.3,2.2H119L119,65.9z"/>
		<path fill-rule="evenodd" clip-rule="evenodd" fill="#B1B3B4" d="M148.4,60.6c0-1.1-0.5-2.5-1.9-4.3l-3.5-4.5h-4.9l2.8,3.1
			c0.5,0.5,1.1,1,1.1,1c-0.7-0.4-1.5-0.5-2.2-0.5c-1.6,0-3.3,0.3-4.7,1.1c-1.6,0.9-2.6,2.3-2.6,4.2c0,1.5,0.7,2.6,1.5,3.4
			c1.9,1.9,5.3,2.1,6.5,2.1c1.9,0,4.7-0.4,6.4-1.9C147.8,63.4,148.4,62.2,148.4,60.6L148.4,60.6z M144.4,60.7c0,1.1-0.7,1.9-1.6,2.3
			c-0.7,0.4-1.6,0.5-2.3,0.5s-1.6-0.2-2.4-0.5c-0.9-0.4-1.6-1.3-1.6-2.2c0-1.1,0.9-2,1.9-2.4c0.6-0.3,1.4-0.4,2-0.4
			c0.6,0,1.4,0.1,2.1,0.3C143.6,58.7,144.4,59.7,144.4,60.7L144.4,60.7z"/>
		<path fill-rule="evenodd" clip-rule="evenodd" fill="#B1B3B4" d="M152.5,18.2c-3.2,0-6.1,1.1-8.4,2.9c-2.3-1.8-5.2-2.9-8.4-2.9
			c-3.2,0-6.1,1.1-8.4,2.9c-2.3-1.8-5.2-2.9-8.4-2.9c-3.2,0-6.1,1.1-8.4,2.9c-2.3-1.8-5.2-2.9-8.4-2.9c-7.5,0-13.6,6.1-13.6,13.6
			c0,7.5,6.1,13.6,13.6,13.6c3.2,0,6.1-1.1,8.4-2.9c2.3,1.8,5.2,2.9,8.4,2.9c3.2,0,6.1-1.1,8.4-2.9c2.3,1.8,5.2,2.9,8.4,2.9
			c3.2,0,6.1-1.1,8.4-2.9c2.3,1.8,5.2,2.9,8.4,2.9c7.5,0,13.6-6.1,13.6-13.6C166,24.3,159.9,18.2,152.5,18.2L152.5,18.2z
			 M108.2,40.2c-1.7,1.3-3.9,2-6.2,2c-5.8,0-10.5-4.7-10.5-10.5c0-5.8,4.7-10.5,10.5-10.5c2.3,0,4.5,0.8,6.2,2
			c-1.8,2.3-2.9,5.2-2.9,8.4C105.3,35,106.4,37.9,108.2,40.2L108.2,40.2z M110.4,38c-1.3-1.7-2-3.9-2-6.2c0-2.3,0.8-4.5,2-6.2
			c1.3,1.7,2,3.9,2,6.2C112.5,34.1,111.7,36.3,110.4,38L110.4,38z M125,40.2c-1.7,1.3-3.9,2-6.2,2c-2.3,0-4.4-0.8-6.2-2
			c1.8-2.3,2.9-5.2,2.9-8.4c0-3.2-1.1-6.1-2.9-8.4c1.7-1.3,3.9-2,6.2-2c2.3,0,4.5,0.7,6.2,2c-1.8,2.3-2.9,5.2-2.9,8.4
			C122.1,35,123.2,37.9,125,40.2L125,40.2z M127.2,38c-1.3-1.7-2-3.9-2-6.2c0-2.3,0.8-4.5,2-6.2c1.3,1.7,2,3.9,2,6.2
			C129.3,34.1,128.5,36.3,127.2,38L127.2,38z M141.8,40.2c-1.7,1.3-3.9,2-6.2,2c-2.3,0-4.4-0.8-6.2-2c1.8-2.3,2.9-5.2,2.9-8.4
			c0-3.2-1.1-6.1-2.9-8.4c1.7-1.3,3.9-2,6.2-2c2.3,0,4.5,0.7,6.2,2c-1.8,2.3-2.9,5.2-2.9,8.4C138.9,35,140,37.9,141.8,40.2
			L141.8,40.2z M144.1,38c-1.3-1.7-2-3.9-2-6.2c0-2.3,0.8-4.5,2-6.2c1.3,1.7,2,3.9,2,6.2C146.1,34.1,145.3,36.3,144.1,38L144.1,38z
			 M152.5,42.2c-2.3,0-4.5-0.8-6.2-2c1.8-2.3,2.9-5.2,2.9-8.4c0-3.2-1.1-6.1-2.9-8.4c1.7-1.3,3.9-2,6.2-2c5.8,0,10.5,4.7,10.5,10.5
			C162.9,37.6,158.2,42.2,152.5,42.2L152.5,42.2z"/>
	</g>
	<g>
		<rect x="31.7" y="146.3" fill="#B1B3B4" width="10.4" height="2.8"/>
		<polygon fill="#B1B3B4" points="24.6,153 30.5,154.3 30.5,153.2 24.6,152.3 18.8,151.4 18.7,151.8 		"/>
		<polygon fill="#B1B3B4" points="51.5,146.3 46.1,146.3 44.7,149.1 52.8,149.1 		"/>
		<polygon fill="#B1B3B4" points="30.5,153 30.5,151.9 24.6,151 18.8,150.1 18.7,150.5 24.6,151.7 		"/>
		<path fill="#B1B3B4" d="M18.7,152.5v0.5c1.9,0.4,3.9,0.9,5.9,1.2c0.5,0.1,1.1,0.2,1.6,0.3h-1.6l-5.9,0c0,1,0,2,0,3h5.9h1
			c3.1,0,4.8-0.3,4.9-2.8c-2-0.4-3.9-0.7-5.9-1.1C22.7,153.2,20.7,152.9,18.7,152.5z"/>
		<path fill="#B1B3B4" d="M30.5,151.6c0-0.4,0-0.7,0-1.1c-1.7-0.3-3.8-0.6-5.9-0.9c-1-0.2-2-0.3-2.8-0.4h2.8h5.9c0-1,0-1.8,0-2.8
			c-1.9,0-3.9,0-5.9,0c-0.3,0-0.7,0-1,0c-3.1,0-4.8,0.4-4.9,2.8c2,0.4,3.9,0.8,5.9,1.2C26.6,150.8,28.5,151.2,30.5,151.6z"/>
		<polygon fill="#B1B3B4" points="44.2,150.3 42.1,154.4 35.7,154.4 35.7,153.1 42.1,153.1 42.1,150.3 31.7,150.3 31.7,157.4 
			45.8,157.4 47.7,153.1 50,153.1 52.3,157.4 56.8,157.4 53.4,150.3 		"/>
		<rect x="57.6" y="150.3" fill="#B1B3B4" width="4" height="7.2"/>
		<rect x="53.6" y="146.3" fill="#B1B3B4" width="12.1" height="2.8"/>
	</g>
	<g>
		<g display="none">
			<path fill="#FFFFFF" d="M131.2,88.3c18.5,0,33.7,14.9,33.7,33.2c0,18.3-15.1,33.1-33.7,33.1c-18.6,0-33.7-14.9-33.7-33.1
				C97.5,103.2,112.6,88.3,131.2,88.3z"/>
		</g>
		<path fill="none" stroke="#B2B3B4" stroke-width="1.1111" stroke-miterlimit="10" d="M127.3,94.8c17.7,0,32.1,14.2,32.1,31.7
			c0,17.4-14.4,31.7-32.1,31.7c-17.7,0-32.2-14.2-32.2-31.7C95.1,109.1,109.5,94.8,127.3,94.8z"/>
		<path fill="#B1B3B4" d="M135.5,130.9c0.3,1.9-0.9,1.9-1.2,1.4c1.3-9.7-0.1-17-6-21.2c-2.1-0.4-4.6-0.3-6.1,0.8
			c1.1,1.7,3.1,3.2,4.4,4.7c-0.1,0.4-0.6,0.6-1,0.3c-1.6-1.9-2.9-3.5-5-4.1c-2.5,0.8-5.1,2.6-5.8,5.3c1.8,0.6,3.4,0.9,4.8,1.9
			c0.3,0.2,0.2,0.6-0.2,0.5c-1.5-0.7-3.2-1.4-5.1-1.7c-1.7,1.3-2.2,3.7-2.1,6c7-0.4,10,2.8,10.5,8.1c-1.8,0.4-3.1-1.7-9.5-0.6
			c2,1.5,3.1,2.8,3,4.6c4.1,0.6,2.8-1.5,6.3-1.5c1.9-0.2,10-0.3,11.5-0.2c1.3,0,1.7,0.1,1.5,1.5c1.9-0.3,4.3-1.1,5.7-2.9
			C139.5,131.7,137.4,131,135.5,130.9z M130.5,131.3c-1.3,0-2.4-1-2.4-2.3c0-1.3,1.1-2.3,2.4-2.3c1.3,0,2.4,1,2.4,2.3
			C132.9,130.3,131.8,131.3,130.5,131.3z"/>
		<g>
			<polygon fill="#B1B3B4" points="113.4,147.7 114.4,148.3 114.6,148.4 115.3,146 114.4,146.8 			"/>
			<path fill="#B1B3B4" d="M127.3,97.1c-16.4,0-29.9,13.2-29.9,29.4c0,16.2,13.4,29.4,29.9,29.4c16.4,0,29.8-13.2,29.8-29.4
				C157.1,110.3,143.7,97.1,127.3,97.1z M138.9,100.7l0.8,0.5l2.2,1.4c1.2,0.7,1.9,1.6,2.1,2.5c0.3,1,0.1,2-0.6,3.2
				c-0.8,1.3-1.7,2-2.8,2.2c-0.3,0-0.6,0-0.9,0c-0.7-0.1-1.5-0.4-2.3-0.9l-3-1.9L138.9,100.7z M124.2,99.4c0.8-0.8,1.8-1.2,3.1-1.2
				c0,0,0,0,0,0c1.4,0,2.4,0.4,3.2,1.3c0.7,0.8,1.1,1.8,1.1,3c0,1.4-0.4,2.4-1.2,3.3c-0.8,0.8-1.8,1.2-3.1,1.2c0,0,0,0,0,0
				c-1.3,0-2.3-0.4-3.1-1.1c-0.8-0.8-1.2-1.9-1.2-3.2C123,101.2,123.4,100.1,124.2,99.4z M110,104.2l1.5-0.9l1.4,2.3l0.6-3.5
				l2.7-1.6l-0.9,4.2l5.5,2.6l-2.8,1.7l-3.4-1.8l-0.2,0.9l1.4,2.2l-2.3,1.4L110,106l-0.8-1.3L110,104.2z M106,119.5l1.2-2.3
				c0.3,0.1,0.5,0.1,0.8-0.1c0.2-0.1,0.4-0.3,0.5-0.6c0.2-0.3,0.2-0.6,0.2-0.8c0-0.2-0.1-0.4-0.3-0.5c-0.3-0.1-0.7,0.1-1.2,0.7
				c-0.8,0.9-1.3,1.5-1.7,1.7c-0.8,0.5-1.6,0.6-2.4,0.2c-0.8-0.4-1.2-1-1.3-1.8c0-0.5,0-1,0.2-1.6l-1.7,0.6l0.7-1.4l1-0.3l-0.4-1
				l0.6-1.3l0.6,1.7c0.4-0.7,0.9-1.1,1.5-1.3c0.7-0.3,1.4-0.3,2.1,0l-1.2,2.3c-0.2-0.1-0.5-0.1-0.7,0.1c-0.2,0.1-0.3,0.3-0.5,0.6
				c-0.3,0.5-0.3,0.8,0,1c0.3,0.1,0.7-0.1,1.2-0.7c0.8-0.9,1.4-1.5,1.7-1.7c0.8-0.5,1.5-0.6,2.3-0.2c0.2,0.1,0.4,0.3,0.6,0.4
				c0.4,0.4,0.7,0.9,0.8,1.5c0.1,0.8-0.1,1.8-0.7,2.8c0,0.1-0.1,0.2-0.1,0.2c-0.5,0.8-1.1,1.4-1.8,1.7
				C107.5,119.9,106.7,119.9,106,119.5z M115.8,151.9l-1.4-0.9l-0.4-0.3l0.3-0.9l-1.9-1.2l-0.7,0.6l-1.8-1.2l4.6-3.6l1.1-0.9
				l1.9,1.2L115.8,151.9z M126.1,151c-0.2,1.1-0.7,1.8-1.3,2.1c-0.6,0.4-1.5,0.4-2.6,0.2c-1.1-0.2-1.8-0.6-2.2-1.2
				c-0.4-0.6-0.5-1.5-0.3-2.6l0.8-3.7l2.2,0.5l-0.9,4c-0.1,0.4-0.1,0.7,0,0.9c0.1,0.3,0.4,0.5,0.8,0.5c0.4,0.1,0.7,0,0.9-0.1
				c0.2-0.2,0.3-0.4,0.4-0.8l0.9-4l2.2,0.5L126.1,151z M134,152.9l-2.2,0.5l-1.2-4.9l-1.9,0.5l-0.4-1.7l6-1.4l0.4,1.7l-1.9,0.5
				L134,152.9z M143.9,148c-0.2,0.9-0.8,1.6-1.6,2.2c-0.6,0.4-1.3,0.6-1.9,0.7c-0.3,0-0.5,0-0.8-0.1c-0.9-0.2-1.6-0.8-2.3-1.7
				c-0.6-0.9-0.8-1.8-0.5-2.7c0.2-0.9,0.8-1.6,1.6-2.2c0.6-0.4,1.3-0.6,1.9-0.6c0.3,0,0.6,0,0.9,0.1c0.8,0.2,1.5,0.8,2,1.6
				C143.9,146.1,144.1,147.1,143.9,148z M127.3,145.4c-10.3,0-18.8-8.5-18.8-18.9c0-10.4,8.4-18.9,18.8-18.9
				c10.3,0,18.8,8.5,18.8,18.9C146,136.9,137.6,145.4,127.3,145.4z M148.1,119.4l-1.7,1.8l-1.2-2.4l0.8-0.8l-1.2-2.4l-1.1,0.2
				l-1.2-2.4l5.6-0.7l3.1-0.4l1.2,2.5L148.1,119.4z"/>
			<path fill="#B1B3B4" d="M139.7,108.1C139.7,108.1,139.7,108.1,139.7,108.1c0.5-0.1,1-0.5,1.4-1.2c0.5-0.7,0.6-1.3,0.5-1.7
				c-0.1-0.4-0.4-0.8-1.1-1.2l-0.4-0.3l-0.4,0.7l-2,3.1l0.5,0.3C138.7,108.1,139.2,108.2,139.7,108.1z"/>
			<path fill="#B1B3B4" d="M127.4,104.8L127.4,104.8c0.6,0,1-0.2,1.2-0.7c0.3-0.4,0.4-1,0.4-1.7c0-0.6-0.1-1.2-0.4-1.6
				c-0.3-0.5-0.7-0.7-1.2-0.7c0,0,0,0,0,0c-0.6,0-1,0.3-1.2,0.8c-0.2,0.4-0.3,0.9-0.3,1.6c0,0.6,0.1,1.2,0.3,1.6
				C126.4,104.6,126.8,104.8,127.4,104.8z"/>
			<path fill="#B1B3B4" d="M140.5,145.5c-0.1,0-0.1,0-0.2-0.1c-0.4-0.1-0.7-0.1-1,0.1c-0.4,0.2-0.6,0.6-0.5,1.1
				c0,0.4,0.2,0.8,0.4,1.2c0.3,0.4,0.6,0.8,0.9,1c0.1,0,0.1,0.1,0.2,0.1c0.4,0.1,0.7,0.1,1-0.1c0.4-0.3,0.6-0.6,0.6-1
				c0-0.4-0.2-0.8-0.5-1.3C141.1,146,140.8,145.7,140.5,145.5z"/>
			<polygon fill="#B1B3B4" points="146.6,115.2 147.3,116.7 148.1,116.1 149.6,114.7 148.1,114.9 			"/>
		</g>
		<path display="none" fill="#B1B3B4" d="M131.2,89.8C113.5,89.8,99,104,99,121.5c0,17.4,14.4,31.7,32.2,31.7
			c17.7,0,32.1-14.2,32.1-31.7C163.3,104,148.9,89.8,131.2,89.8z M131.2,141.8c-11.1,0-20.2-9.2-20.2-20.4
			c0-11.2,9.1-20.4,20.2-20.4c11.1,0,20.2,9.2,20.2,20.4C151.4,132.7,142.3,141.8,131.2,141.8z"/>
		<path display="none" fill="#B1B3B4" d="M131.2,89.8C113.5,89.8,99,104,99,121.5c0,17.4,14.4,31.7,32.2,31.7
			c17.7,0,32.1-14.2,32.1-31.7C163.3,104,148.9,89.8,131.2,89.8z M131.2,141.8c-11.1,0-20.2-9.2-20.2-20.4
			c0-11.2,9.1-20.4,20.2-20.4c11.1,0,20.2,9.2,20.2,20.4C151.4,132.7,142.3,141.8,131.2,141.8z"/>
	</g>
	<path fill="#999999" d="M42.3,10.2c-17.9,0-32.5,14.5-32.5,32.5c0,17.9,14.5,32.5,32.5,32.5c17.9,0,32.5-14.5,32.5-32.5
		C74.8,24.7,60.2,10.2,42.3,10.2z M42.3,72.2C26,72.2,12.7,59,12.7,42.7c0-16.3,13.2-29.6,29.6-29.6c16.3,0,29.6,13.2,29.6,29.6
		C71.8,59,58.6,72.2,42.3,72.2z"/>
	<path fill="#999999" d="M35.8,20.6c2.1-0.6,4.2-0.9,6.5-0.9c2.2,0,4.4,0.3,6.5,0.9l-6.5,14.3L35.8,20.6z"/>
	<path fill="#999999" d="M54.6,23.2c2.4,1.5,4.5,3.5,6.2,5.8L50.3,52.6l-4.1-9.1h-7.8l-4.1,9.1L23.7,29.1c1.7-2.3,3.8-4.3,6.2-5.8
		L38.4,42h7.8L54.6,23.2z"/>
	<path fill="#999999" d="M20.1,36.7c-0.5,1.9-0.8,3.9-0.8,6c0,9,5.2,16.8,12.7,20.6L20.1,36.7z"/>
	<path fill="#999999" d="M35.9,64.8c2,0.6,4.2,0.9,6.4,0.9c2.2,0,4.3-0.3,6.4-0.9l-6.4-14.1L35.9,64.8z"/>
	<path fill="#999999" d="M52.6,63.2c7.6-3.8,12.7-11.6,12.7-20.6c0-2-0.3-4-0.8-5.9L52.6,63.2z"/>
	<polygon fill="#B1B3B4" points="67.3,123.3 67.3,118.9 43.3,115.1 19.3,111.4 19.3,113.1 43.3,118.2 	"/>
	<path fill="#B1B3B4" d="M19.3,121.2v1.9c8,1.7,15.9,3.5,24,5c2.1,0.4,4.3,0.8,6.5,1.1h-6.5l-24,0c0,4.1,0,8.1,0,12.2h24h4.1
		c12.6,0,19.6-1.3,20-11.3c-8.1-1.7-16.1-3.1-24.1-4.4C35.3,124.2,27.3,122.9,19.3,121.2z"/>
	<path fill="#B1B3B4" d="M67.3,117.5c0-1.6,0-2.9,0-4.5c-6.9-1-15.8-2.5-24-3.8c-4.1-0.6-8-1.2-11.4-1.7h11.4h24
		c0-4.1,0.1-7.2,0-11.4c-8,0.1-16,0-24,0c-1.4,0-2.7,0-4.1,0c-12.6,0-19.6,1.5-20,11.5c8.1,1.7,16.1,3.3,24.1,4.9
		C51.3,114.2,59.3,115.8,67.3,117.5z"/>
</g>
</svg>
