<?xml version="1.0" encoding="utf-8"?>
<!-- Generator: Adobe Illustrator 21.1.0, SVG Export Plug-In . SVG Version: 6.00 Build 0)  -->
<svg version="1.1" id="Layer_1" xmlns="http://www.w3.org/2000/svg" xmlns:xlink="http://www.w3.org/1999/xlink" x="0px" y="0px"
	 viewBox="0 0 170 170" style="enable-background:new 0 0 170 170;" xml:space="preserve">
<style type="text/css">
	.st0{fill:#B1B3B4;}
</style>
<g>
	<g>
		<rect x="61.2" y="126.7" class="st0" width="21.8" height="5.9"/>
		<polygon class="st0" points="46.4,140.7 58.7,143.5 58.7,141.2 46.4,139.3 34.2,137.4 34,138.2 		"/>
		<polygon class="st0" points="102.7,126.7 91.4,126.7 88.5,132.6 105.4,132.6 		"/>
		<polygon class="st0" points="58.7,140.7 58.7,138.4 46.4,136.6 34.2,134.7 34,135.5 46.4,138 		"/>
		<path class="st0" d="M34,139.7v1c4,0.8,8.2,1.9,12.4,2.5c1,0.2,2.3,0.4,3.4,0.6h-3.4H34c0,2.1,0,4.2,0,6.3h12.4h2.1
			c6.5,0,10.1-0.6,10.3-5.9c-4.2-0.8-8.2-1.5-12.4-2.3C42.4,141.2,38.2,140.5,34,139.7z"/>
		<path class="st0" d="M58.7,137.8c0-0.8,0-1.5,0-2.3c-3.6-0.6-8-1.3-12.4-1.9c-2.1-0.4-4.2-0.6-5.9-0.8h5.9h12.4c0-2.1,0-3.8,0-5.9
			c-4,0-8.2,0-12.4,0c-0.6,0-1.5,0-2.1,0c-6.5,0-10.1,0.8-10.3,5.9c4.2,0.8,8.2,1.7,12.4,2.5C50.5,136.1,54.5,137,58.7,137.8z"/>
		<polygon class="st0" points="87.4,135.1 83,143.7 69.6,143.7 69.6,141 83,141 83,135.1 61.2,135.1 61.2,150 90.8,150 94.7,141 
			99.6,141 104.4,150 113.8,150 106.7,135.1 		"/>
		<rect x="115.5" y="135.1" class="st0" width="8.4" height="15.1"/>
		<rect x="107.1" y="126.7" class="st0" width="25.3" height="5.9"/>
	</g>
	<polygon class="st0" points="135.8,78.5 135.8,69.3 85.5,61.4 35.3,53.6 35.3,57.2 85.5,67.9 	"/>
	<path class="st0" d="M35.3,74.1v4c16.8,3.6,33.3,7.3,50.3,10.5c4.4,0.8,9,1.7,13.6,2.3H85.5H35.3c0,8.6,0,17,0,25.6h50.3h8.6
		c26.4,0,41.1-2.7,41.9-23.7c-17-3.6-33.7-6.5-50.5-9.2C68.8,80.4,52,77.7,35.3,74.1z"/>
	<path class="st0" d="M135.8,66.4c0-3.4,0-6.1,0-9.4c-14.5-2.1-33.1-5.2-50.3-8c-8.6-1.3-16.8-2.5-23.9-3.6h23.9h50.3
		c0-8.6,0.2-15.1,0-23.9c-16.8,0.2-33.5,0-50.3,0c-2.9,0-5.7,0-8.6,0c-26.4,0-41.1,3.1-41.9,24.1c17,3.6,33.7,6.9,50.5,10.3
		C102.3,59.5,119,62.8,135.8,66.4z"/>
</g>
</svg>
