<?xml version="1.0" encoding="utf-8"?>
<!-- Generator: Adobe Illustrator 21.1.0, SVG Export Plug-In . SVG Version: 6.00 Build 0)  -->
<svg version="1.1" id="Laag_2" xmlns="http://www.w3.org/2000/svg" xmlns:xlink="http://www.w3.org/1999/xlink" x="0px" y="0px"
	 viewBox="0 0 149.9 132.8" style="enable-background:new 0 0 149.9 132.8;" xml:space="preserve">
<style type="text/css">
	.st0{fill:#FFFFFF;}
</style>
<path class="st0" d="M92.3,52.2l0.3-7l-7.1-4.2l-1.2-5.7l4.7-6.8l-3.2-6.3L77.5,22l-3.9-4.3l0.7-8.3l-5.9-3.8l-7.2,4.1l-5.5-1.8
	l-3.5-7.5l-7-0.3l-4.2,7.1l-5.7,1.2l-6.8-4.8l-6.3,3.2L22,15.1l-4.3,3.9l-8.3-0.7l-3.8,5.9l4.1,7.2l-1.8,5.6l-7.5,3.5l-0.3,7
	l7.1,4.2l1.2,5.7l-4.7,6.8l3.2,6.3l8.3,0.1l3.9,4.3l-0.7,8.3l5.9,3.8l7.2-4.1L37,85l3.5,7.5l7,0.3l4.2-7.1l5.7-1.2l6.8,4.8l6.3-3.2
	l0.1-8.3l4.3-3.9l8.3,0.7l3.8-5.9L83,61.3l1.8-5.6L92.3,52.2z M61.3,47l0,0.3c-0.1,2.5-0.9,5-2.3,7.1l-0.2,0.2
	c-1.4,2.1-3.3,3.9-5.5,5L53,59.9c-2.3,1.1-4.8,1.7-7.3,1.6l-0.3,0c-2.5-0.2-5-0.9-7.1-2.3L38,59c-2.1-1.4-3.8-3.3-5-5.6l-0.1-0.3
	c-1.1-2.3-1.7-4.8-1.6-7.3l0-0.3c0.1-2.5,0.9-5,2.3-7.1l0.2-0.2c1.4-2.1,3.3-3.9,5.5-5l0.3-0.1c2.3-1.1,4.8-1.7,7.3-1.6l0.3,0
	c2.5,0.2,5,0.9,7.1,2.3l0.2,0.2c2.1,1.4,3.8,3.3,5,5.6l0.1,0.3C60.9,41.9,61.4,44.5,61.3,47z"/>
<path class="st0" d="M143.8,30.4l-0.9-5.8l4.3-6.4l-4.5-6.6l-7.5,1.7l-5.1-2.9l-2.3-7.4l-8-0.6l-3.3,7l-5.4,2.2l-7.2-2.8l-5.4,5.9
	l3.4,7l-1.7,5.6l-6.7,3.9l1.2,8l7.5,1.7l3.3,4.8l-1.1,7.7l7,4l6-4.8l5.8,0.4l5.3,5.7l7.5-3l0-7.8l4-4.3l7.7-0.6l2.3-7.7L143.8,30.4z
	 M132.2,33.7l-0.2,0.5c-1,3-3.2,5.3-6,6.6l-0.5,0.2c-2.9,1.1-6.2,0.8-8.9-0.6l-0.5-0.3c-2.7-1.6-4.5-4.3-5-7.4l-0.1-0.5
	c-0.4-3.1,0.6-6.2,2.6-8.5l0.4-0.4c2.2-2.2,5.2-3.4,8.3-3.3l0.5,0c3.1,0.3,5.9,1.9,7.7,4.4l0.3,0.5C132.5,27.5,133,30.7,132.2,33.7z
	"/>
<path class="st0" d="M148.5,102.6l0.1-8.4l-6.8-2.3l-2.3-6.6l3.9-6.1l-5.3-6.5l-6.7,2.6l-6-3.6l-0.9-7.2l-8.2-1.6l-3.5,6.3l-6.8,1.1
	l-5.3-4.9l-7.3,4.1l1.4,7.1l-4.5,5.3l-7.2-0.4l-3,7.8l5.6,4.5l-0.1,6.9l-5.7,4.4l2.8,7.9l7.2-0.2l4.4,5.4l-1.6,7l7.2,4.3l5.4-4.8
	l6.8,1.3l3.3,6.4l8.2-1.3l1.1-7.1l6-3.4l6.6,2.8l5.5-6.3l-3.7-6.2l2.5-6.5L148.5,102.6z M126.5,98.3c-0.1,2.8-1.1,5.5-2.9,7.7
	l-0.3,0.3c-1.9,2.1-4.4,3.5-7.1,4l-0.4,0.1c-2.8,0.4-5.6-0.1-8-1.5l-0.3-0.2c-2.4-1.5-4.2-3.7-5.2-6.3l-0.1-0.4
	c-0.9-2.7-0.8-5.6,0.1-8.2l0.1-0.4c1-2.6,2.9-4.8,5.3-6.2l0.4-0.2c2.5-1.3,5.3-1.8,8.1-1.3l0.4,0.1c2.7,0.6,5.2,2,7,4.2l0.3,0.3
	c1.7,2.2,2.7,4.9,2.7,7.7L126.5,98.3z"/>
</svg>
